<?xml version="1.0" encoding="utf-8"?>
<!-- Generator: Adobe Illustrator 24.1.0, SVG Export Plug-In . SVG Version: 6.00 Build 0)  -->
<svg version="1.1" id="_x32__x5F_90_x25_主線_x5F_微調整_x5F_1pt_x5F_0327のコピー_5"
	 xmlns="http://www.w3.org/2000/svg" xmlns:xlink="http://www.w3.org/1999/xlink" x="0px" y="0px" viewBox="0 0 810 650"
	 style="enable-background:new 0 0 810 650;" xml:space="preserve">
<style type="text/css">
	.st0{fill:#FFFFFF;stroke:#333333;stroke-linecap:round;stroke-linejoin:round;stroke-miterlimit:10;}
	.st1{fill:#333333;stroke:#333333;stroke-linecap:round;stroke-linejoin:round;stroke-miterlimit:10;}
	.st2{fill:none;stroke:#333333;stroke-linecap:round;stroke-linejoin:round;stroke-miterlimit:10;}
	.st3{fill:#005C92;stroke:#005C92;stroke-width:0.9;stroke-miterlimit:10;}
	.st4{fill:#333333;}
	.st5{fill:none;stroke:#333333;stroke-width:1.35;stroke-miterlimit:10;}
	.st6{fill:#F6EDC0;stroke:#333333;stroke-linecap:round;stroke-linejoin:round;stroke-miterlimit:10;}
	.st7{fill:#333333;stroke:#333333;stroke-width:1.35;stroke-linecap:round;stroke-linejoin:round;stroke-miterlimit:10;}
	.st8{fill:none;stroke:#FFFFFF;stroke-linecap:round;stroke-linejoin:round;stroke-miterlimit:10;}
</style>
<g id="資料のコピー_12">
	<g id="_x32_のコピー_12">
	</g>
	<g id="_x31_のコピー_12">
		<g id="_x30_1mapのコピー_12">
		</g>
		<g id="_x31_mapのコピー_12">
		</g>
		<g id="_x32_mapのコピー_12">
		</g>
		<g id="_x33_photoのコピー_12">
		</g>
		<g id="_x34_photoのコピー_12">
		</g>
		<g id="本文のコピー_12">
		</g>
	</g>
	<g id="本のコピー_12">
	</g>
</g>
<g id="顔のコピー_13_6_">
</g>
<g id="髪のコピー_13_4_">
</g>
<g id="服のコピー_13_6_">
</g>
<g id="lineのコピー_11">
</g>
<g id="マークのコピー_7">
</g>
<g id="端子の穴のコピー_11">
</g>
<g id="手のコピー_13_3_">
	<g id="手のコピー_13_4_">
	</g>
</g>
<g id="顔のコピー_13_5_">
</g>
<g id="シャツのコピー_12">
</g>
<g id="ネクタイのコピー_12">
</g>
<g id="髪のコピー_13_3_">
</g>
<g id="眼鏡のコピー_11">
</g>
<g id="右手のコピー_13_3_">
</g>
<g id="左手のコピー_13_3_">
</g>
<g id="African01のコピー_12">
	<g id="服のコピー_13_4_">
	</g>
	<g id="顔のコピー_13_4_">
	</g>
	<g id="アクセサリーのコピー_12">
	</g>
	<g id="髪の毛のコピー_12">
	</g>
	<g id="バンダナのコピー_12">
	</g>
	<g id="手のコピー_13_2_">
	</g>
</g>
<g id="服のコピー_13_3_">
</g>
<g id="左手のコピー_13_2_">
</g>
<g id="顔のコピー_13_3_">
</g>
<g id="ヒゲのコピー_12">
</g>
<g id="帽子のコピー_12">
	<g id="レイヤー_47のコピー_12">
	</g>
	<g id="レイヤー_48のコピー_12">
	</g>
</g>
<g id="生徒のコピー_12">
	<g id="服のコピー_13_2_">
	</g>
	<g id="顔のコピー_13_2_">
	</g>
	<g id="髪のコピー_13_2_">
		<g id="レイヤー_60のコピー_12">
		</g>
	</g>
</g>
<g id="ボードのコピー_12">
</g>
<g id="手のコピー_13">
</g>
<g id="カメラのコピー_12">
</g>
<g>
	
		<rect x="485.75" y="233.32" transform="matrix(-0.401 0.9161 -0.9161 -0.401 942.1966 -143.1431)" class="st0" width="64.29" height="6.27"/>
	
		<rect x="572.29" y="271.21" transform="matrix(-0.401 0.9161 -0.9161 -0.401 1098.1508 -169.3431)" class="st0" width="64.29" height="6.27"/>
	
		<rect x="397.77" y="194.81" transform="matrix(-0.401 0.9161 -0.9161 -0.401 783.654 -116.5082)" class="st0" width="64.29" height="6.27"/>
	<g>
		
			<rect x="426.62" y="196.2" transform="matrix(-0.401 0.9161 -0.9161 -0.401 856.6567 -163.9709)" class="st1" width="110.62" height="3.76"/>
		
			<rect x="429.37" y="193.78" transform="matrix(-0.401 0.9161 -0.9161 -0.401 855.5695 -170.442)" class="st1" width="108.27" height="1.41"/>
		<g>
			<line class="st1" x1="500.76" y1="149.69" x2="483.81" y2="179.6"/>
			<polygon class="st2" points="500.81,149.39 468.68,172.98 461.88,170 			"/>
			<polyline class="st2" points="474.77,175.64 500.81,149.39 455.85,167.36 			"/>
			<path class="st2" d="M444.32,162.32c22.64-2.07,56.49-12.93,56.49-12.93l-21.18,28.39"/>
			<line class="st1" x1="504.76" y1="151.44" x2="494.28" y2="184.18"/>
			<polygon class="st2" points="504.95,151.2 509.41,190.81 516.21,193.78 			"/>
			<polyline class="st2" points="503.32,188.14 504.95,151.2 522.24,196.42 			"/>
			<path class="st2" d="M533.66,201.42c-13.83-18.04-28.82-50.27-28.82-50.27l-6.49,34.82"/>
		</g>
	</g>
	<g>
		
			<rect x="515.68" y="235.18" transform="matrix(-0.401 0.9161 -0.9161 -0.401 1017.1406 -190.9319)" class="st1" width="110.62" height="3.76"/>
		
			<rect x="518.43" y="232.77" transform="matrix(-0.401 0.9161 -0.9161 -0.401 1016.0535 -197.403)" class="st1" width="108.27" height="1.41"/>
		<g>
			<line class="st1" x1="589.82" y1="188.68" x2="572.87" y2="218.59"/>
			<polygon class="st2" points="589.87,188.37 557.73,211.96 550.94,208.99 			"/>
			<polyline class="st2" points="563.82,214.63 589.87,188.37 544.91,206.35 			"/>
			<path class="st2" d="M533.38,201.3c22.64-2.07,56.49-12.93,56.49-12.93l-21.18,28.39"/>
			<line class="st1" x1="593.81" y1="190.42" x2="583.34" y2="223.17"/>
			<polygon class="st2" points="594,190.18 598.47,229.8 605.26,232.77 			"/>
			<polyline class="st2" points="592.38,227.13 594,190.18 611.3,235.41 			"/>
			<path class="st2" d="M622.72,240.41c-13.83-18.04-28.82-50.27-28.82-50.27l-6.49,34.82"/>
		</g>
	</g>
	
		<rect x="422.58" y="202.84" transform="matrix(0.9161 0.401 -0.401 0.9161 127.1198 -195.4084)" class="st0" width="215.6" height="6.27"/>
	
		<rect x="424.31" y="200.85" transform="matrix(0.9161 0.401 -0.401 0.9161 125.6808 -196.4334)" class="st0" width="215.6" height="2.35"/>
</g>
<g id="道路のコピー_13">
	<polygon class="st0" points="354.03,631.68 9.3,379.11 354.03,153.55 698.75,379.11 	"/>
	<polygon class="st0" points="599.98,451.54 394.13,322.86 503.68,249.94 467.43,227.35 354.38,298.01 241.33,227.35 205.08,249.94 
		314.62,322.86 108.78,451.54 152.65,483.61 354.38,349.33 556.1,483.61 	"/>
	<g>
		<g>
			<polygon class="st3" points="537.83,444.26 562.13,459.59 565.33,454.19 543.34,440.56 			"/>
			<polygon class="st3" points="533.88,434.7 516.58,423.98 511.3,427.53 528.46,438.35 			"/>
		</g>
		<polygon class="st3" points="248.5,253.14 241.32,248.56 238.31,250.44 245.51,255.1 		"/>
		<polygon class="st3" points="263.16,262.13 255.83,257.79 252.77,259.8 260.03,264.18 		"/>
		<polygon class="st3" points="280.04,272.86 271.52,267.77 268.33,269.87 276.76,275.01 		"/>
		<polygon class="st3" points="297.54,283.99 288.55,278.6 285.2,280.79 294.12,286.24 		"/>
		<polygon class="st3" points="315.11,295.16 306.19,289.81 302.69,292.1 311.53,297.51 		"/>
		<polygon class="st3" points="334.67,307.6 323.87,301.06 320.22,303.45 330.92,310.06 		"/>
		<polygon class="st3" points="388.73,341.97 377.04,334.87 372.92,337.56 384.51,344.74 		"/>
		<polygon class="st3" points="411.94,356.74 398.12,348.27 393.83,351.09 407.53,359.64 		"/>
		<polygon class="st3" points="434.7,371.21 421.49,363.13 416.99,366.08 430.09,374.24 		"/>
		<polygon class="st3" points="457.92,385.97 444.4,377.7 439.71,380.78 453.11,389.13 		"/>
		<polygon class="st3" points="481.6,401.02 467.77,392.56 462.87,395.77 476.58,404.32 		"/>
		<polygon class="st3" points="506.64,416.95 491.6,407.71 486.49,411.05 501.41,420.39 		"/>
	</g>
	<g>
		<g>
			<polygon class="st3" points="170.41,445.16 146.11,460.49 142.91,455.09 164.9,441.46 			"/>
			<polygon class="st3" points="174.36,435.6 191.66,424.88 196.94,428.43 179.78,439.25 			"/>
		</g>
		<polygon class="st3" points="459.73,254.04 466.92,249.46 469.93,251.34 462.73,256 		"/>
		<polygon class="st3" points="445.07,263.03 452.41,258.69 455.47,260.7 448.2,265.08 		"/>
		<polygon class="st3" points="428.2,273.76 436.71,268.67 439.91,270.77 431.48,275.91 		"/>
		<polygon class="st3" points="410.69,284.89 419.69,279.5 423.04,281.69 414.12,287.14 		"/>
		<polygon class="st3" points="393.13,296.06 402.05,290.71 405.55,293 396.7,298.41 		"/>
		<polygon class="st3" points="373.57,308.5 384.37,301.96 388.02,304.35 377.32,310.96 		"/>
		<polygon class="st3" points="319.51,342.87 331.2,335.77 335.31,338.46 323.72,345.64 		"/>
		<polygon class="st3" points="296.29,357.64 310.11,349.17 314.41,351.99 300.71,360.54 		"/>
		<polygon class="st3" points="273.53,372.11 286.75,364.03 291.24,366.98 278.14,375.14 		"/>
		<polygon class="st3" points="250.32,386.87 263.83,378.6 268.53,381.68 255.13,390.03 		"/>
		<polygon class="st3" points="226.64,401.92 240.47,393.46 245.37,396.67 231.66,405.22 		"/>
		<polygon class="st3" points="201.6,417.85 216.64,408.61 221.75,411.95 206.83,421.29 		"/>
	</g>
	<g>
		<polygon class="st3" points="347.62,316.16 343.74,318.67 361.55,330.2 365.62,327.61 		"/>
	</g>
	<polygon class="st3" points="362.07,315.71 342.92,327.89 346.99,330.49 365.95,318.22 	"/>
</g>
<path class="st0" d="M689.28,310.24c0,0-54.9-44.1-57.6-58.5c-2.7-14.4-8.03-20.16-1.77-17.73c6.27,2.43,49.47,36.63,62.97,45.63
	s64.8,63.9,65.7,70.2c0.9,6.3-2.7,6.3-2.7,6.3L689.28,310.24z"/>
<polygon class="st0" points="630.78,235.54 639.78,218.44 635.34,241.42 "/>
<path class="st0" d="M623.58,231.94c0,0-3.6,7.2,0.9,13.5c10.88,15.23-1.88,51.05,1.8,62.1c5.4,16.2,7.2,40.5,36.9,54.9
	c29.7,14.4,24.3,10.8,50.4,11.7c34.19,1.18,33.3-8.1,41.4-15.3c8.1-7.2,0.9-9.9,0.9-9.9s-66.6-38.7-91.8-69.3
	c-12.55-15.24-30.6-42.3-32.4-45C629.88,231.94,622.68,225.64,623.58,231.94z"/>
<path class="st0" d="M623.58,231.94c0,0-4.5,7.2,0,13.5c0.68,0.95,4.87,1.98,5.38,3.09c7.67,16.52,21.62,29.31,36.92,45.51
	c13.98,14.81,31.5,30.6,49.5,42.3c17.22,11.2,38.63,25.14,43.2,19.8c5.4-6.3-2.7-7.2-2.7-7.2s-66.6-38.7-91.8-69.3
	c-12.55-15.24-30.6-42.3-32.4-45C629.88,231.94,622.68,225.64,623.58,231.94z"/>
<path class="st0" d="M699.18,285.04l-6.3,8.1c0,0,11.7,12.6,22.5,20.7c10.8,8.1,25.2,18.9,27.9,18.9s9.9-7.2,9.9-10.8
	s-2.7-15.3-17.1-22.5c-14.4-7.2-27-17.1-31.5-16.2C700.08,284.14,699.18,285.04,699.18,285.04z"/>
<path class="st1" d="M735.72,274.77l-15.28,17.81c0,0-1.28,3.31,4.19,8.78c6.36,6.37,11.71,7.13,11.71,7.13l16.05-16.79
	c0,0-6.87-2.8-9.92-6.88S735.72,274.77,735.72,274.77z"/>
<path class="st0" d="M744.86,300.89c-1.64,1.79-7-0.45-11.97-5c-4.97-4.55-7.68-9.7-6.04-11.49c1.64-1.79,6.87,1.34,11.84,5.89
	C743.67,294.85,746.5,299.1,744.86,300.89z"/>
<path class="st4" d="M746.66,298.81c-1.64,1.79-7-0.45-11.97-5c-4.97-4.55-7.68-9.7-6.04-11.49s6.87,1.34,11.84,5.89
	C745.47,292.76,748.3,297.02,746.66,298.81z"/>
<path class="st0" d="M748.69,296.56c-1.64,1.79-7-0.45-11.97-5c-4.97-4.55-7.68-9.7-6.04-11.49c1.64-1.79,6.87,1.34,11.84,5.89
	C747.49,290.51,750.33,294.77,748.69,296.56z"/>
<path class="st1" d="M753.41,291.16c-1.64,1.79-7-0.45-11.97-5c-4.97-4.55-7.68-9.7-6.04-11.49c1.64-1.79,6.87,1.34,11.84,5.89
	C752.22,285.11,755.05,289.37,753.41,291.16z"/>
<path class="st4" d="M750.71,294.76c-1.64,1.79-7-0.45-11.97-5c-4.97-4.55-7.68-9.7-6.04-11.49c1.64-1.79,6.87,1.34,11.84,5.89
	C749.52,288.71,752.35,292.97,750.71,294.76z"/>
<g>
	<path class="st0" d="M678.41,278.2c0,0,70.69-74.86,73.69-77.22c3-2.36-68.98,83.23-68.98,83.23S678.77,282.78,678.41,278.2z"/>
	<path class="st0" d="M723.89,220.69l-3.22,4.14c0,0-0.65,5.36,4.39,8.69c5.04,3.33,7.04,1.76,7.04,1.76l3.22-4.14
		c0,0-5.36-0.65-7.72-3.65S724.67,221.69,723.89,220.69z"/>
	<path class="st0" d="M735.15,230.5c-1.28,1.42-4.74,0.37-7.72-2.32c-2.99-2.7-4.37-6.03-3.09-7.45c1.28-1.42,4.57,0.26,7.56,2.96
		C734.88,226.38,736.43,229.08,735.15,230.5z"/>
	<path class="st0" d="M752.1,200.98c-0.61,0.48-1.69-0.3-6.72,4.93c-3.83,3.98-10.94,13.23-16.15,18.69
		c0.59,0.8,1.24,1.53,1.95,2.18C743.59,211.84,753.24,200.09,752.1,200.98z"/>
</g>
<g>
	<path class="st0" d="M747.71,337.06c0,0,56.97-59.13,59.39-60.99c2.42-1.86-55.59,65.73-55.59,65.73S748,340.68,747.71,337.06z"/>
	<path class="st0" d="M784.36,291.64l-2.6,3.27c0,0-0.52,4.23,3.54,6.86s5.67,1.39,5.67,1.39l2.6-3.27c0,0-4.32-0.51-6.22-2.88
		C785.45,294.63,784.99,292.43,784.36,291.64z"/>
	<path class="st0" d="M793.44,299.39c-1.03,1.12-3.82,0.3-6.23-1.84c-2.41-2.13-3.52-4.77-2.49-5.88c1.03-1.12,3.68,0.21,6.09,2.34
		C793.22,296.14,794.47,298.27,793.44,299.39z"/>
	<path class="st0" d="M807.1,276.08c-0.49,0.38-1.36-0.24-5.42,3.89c-3.09,3.14-8.81,10.44-13.02,14.76c0.48,0.63,1,1.21,1.57,1.72
		C800.24,284.66,808.02,275.37,807.1,276.08z"/>
</g>
<polyline class="st0" points="702.03,286.56 732.48,312.94 753.18,321.94 "/>
<g>
	<path class="st0" d="M703.68,299.44l-2.7-2.7c0,0,1.8-4.5,2.7-3.6c0.9,0.9,2.7,1.8,2.7,2.7S703.68,299.44,703.68,299.44z"/>
	<path class="st0" d="M709.98,304.84l-2.7-2.7c0,0,1.8-4.5,2.7-3.6c0.9,0.9,2.7,1.8,2.7,2.7
		C712.68,302.14,709.98,304.84,709.98,304.84z"/>
	<path class="st0" d="M716.28,310.24l-2.7-2.7c0,0,1.8-4.5,2.7-3.6s2.7,1.8,2.7,2.7C718.98,307.54,716.28,310.24,716.28,310.24z"/>
	<path class="st0" d="M722.58,315.64l-2.7-2.7c0,0,1.8-4.5,2.7-3.6c0.9,0.9,2.7,1.8,2.7,2.7S722.58,315.64,722.58,315.64z"/>
	<path class="st0" d="M729.78,320.14l-2.7-1.8c0,0,1.8-4.5,2.7-3.6c0.9,0.9,1.8,0.9,1.8,1.8S729.78,320.14,729.78,320.14z"/>
	<path class="st0" d="M736.08,323.74l-2.7-1.8c0,0,1.8-4.5,2.7-3.6c0.9,0.9,1.8,0.9,1.8,1.8
		C737.88,321.04,736.08,323.74,736.08,323.74z"/>
</g>
<path class="st2" d="M750.62,203.44c0,0,0.64,30.7,17.57,50.57c13.31,15.62,37.95,22.63,37.95,22.63"/>
<g>
	<path class="st2" d="M640.68,218.44c0,0,13.5,5.4,41.4,5.4c27.96,0,69.3-22.5,69.3-22.5"/>
	<polygon class="st0" points="648.27,220.45 648.91,225.81 655.43,221.94 	"/>
	<polygon class="st0" points="658.02,222.61 659.37,228.39 666.04,223.36 	"/>
	<polygon class="st0" points="667.65,222.97 668.84,228.8 675.64,223.93 	"/>
	<polygon class="st0" points="677.84,223.98 679.71,229.62 685.89,223.99 	"/>
	<polygon class="st0" points="687.9,223.05 690.28,228.49 695.92,222.31 	"/>
	<polygon class="st0" points="697.94,222.45 701.45,227.24 705.6,219.99 	"/>
	<polygon class="st0" points="708.12,219.01 711.64,223.8 715.79,216.54 	"/>
	<polygon class="st0" points="717.46,215.79 720.98,220.58 725.13,213.32 	"/>
	<polygon class="st0" points="726.82,212.78 730.87,217.13 734.15,209.44 	"/>
</g>
<path class="st1" d="M651.4,176.55c0,0-1.96-3.75-5.05-3.01c-3.09,0.74-6.14,3.21-6.14,3.21s3.49-2.04,5,0.43
	c1.51,2.47,1.49,1.61,1.09,2.91c-0.41,1.3-1.42,2.69-1.42,2.69s-0.52-0.16,1.3,0.41c1.82,0.57,3.53-0.32,3.53-0.32
	s1.21-0.76,2.31-0.99c2.75-0.57,5.93-0.71,7.57,4.09c0.95,2.78,1.89-2.91,0.87-4.58C656.09,174.31,651.4,176.55,651.4,176.55z"/>
<path class="st1" d="M685.6,177.31c0,0-0.75-3.08-3.12-3.1s-5.04,1.22-5.04,1.22s2.91-0.85,3.56,1.21s0.79,1.44,0.26,2.31
	c-0.53,0.87-1.51,1.7-1.51,1.7s-0.35-0.21,0.87,0.53c1.22,0.74,2.62,0.4,2.62,0.4s1.01-0.34,1.85-0.3c2.1,0.08,4.43,0.55,4.76,4.33
	c0.19,2.19,1.9-1.77,1.45-3.17C689.41,176.53,685.6,177.31,685.6,177.31z"/>
<g id="海のコピー_13">
	<g>
		<path class="st0" d="M425.58,212.14c0,0-13.5,17.1,2.7,23.4c16.2,6.3,26.1-0.9,34.2,7.2c8.1,8.1,0,14.4,14.4,18.9
			s15.3-0.9,24.3,4.5c5.88,3.53,3.6,9,4.5,13.5c1.84,9.21,11.7,11.7,17.1,9.9c5.4-1.8,17.1-2.7,21.6,4.5
			c4.5,7.2-2.17,20.15,11.06,19.97s28.54-2.87,34.84,2.53s8.96,24.03,23.38,23.72c14.42-0.32,19.82-3.92,21.62,10.48
			c1.8,14.4,0.9,24.3,11.7,21.6c10.8-2.7,18-4.5,19.8,2.7c1.8,7.2-4.5,18.9,9,19.8c5.39,0.36,23.4-15.3,23.4-15.3l-260.1-171
			L425.58,212.14z"/>
		<path class="st0" d="M430.08,209.44c0,0-13.5,17.1,2.7,23.4s26.1-0.9,34.2,7.2c8.1,8.1,0,14.4,14.4,18.9s15.3-0.9,24.3,4.5
			c5.88,3.53,3.6,9,4.5,13.5c1.84,9.21,11.7,11.7,17.1,9.9c5.4-1.8,17.1-2.7,21.6,4.5c4.5,7.2-2.17,20.15,11.06,19.97
			s28.54-2.87,34.84,2.53s8.96,24.03,23.38,23.72c14.42-0.32,19.82-3.92,21.62,10.48s0.9,24.3,11.7,21.6c10.8-2.7,17.1-1.8,18.9,5.4
			c1.8,7.2-4.5,15.3,9,17.1c5.35,0.71,19.8-12.6,19.8-12.6s0.9-8.1-2.92-10.94c-3.21-2.38-7.88,1.04-10.74-2.96
			c-1.52-2.12,0.86-4.35-2.54-6.81c-5.51-3.99-6.3,0.9-11.74-2.44c-2.49-1.53-0.44-4.21-3.03-5.94c-2.24-1.5-19.84-4.84-22.19-6.41
			c-27.6-18.5-61.88-41.57-92.52-62.51c-1.9-1.3-3.79-7.09-5.66-8.36c-2.7-1.83-4.46-0.94-7.08-2.71c-1.5-1.02-3.89-4.72-5.36-5.71
			c-2.56-1.72-6.88,0.18-9.36-1.49c-1.72-1.16-2.52-5.01-4.2-6.14c-5.88-3.96-6.06-0.53-11.24-4.04c-1.87-1.26-3.69-5.2-5.45-6.39
			c-3.04-2.06-5.92-0.42-8.6-2.24c-2.17-1.48-4.21-5.57-6.12-6.87c-3.45-2.36-6.45-0.82-8.91-2.53c-4.59-3.18-1.6-4-5.1-6.51
			c-4.06-2.91-3.87,0.6-10.26-3.41c-2.7-1.69-3.39-5.43-5.32-6.32c-4.68-2.18-4.24-0.19-6.71-1.25c-1.78-0.76-3.32-6.02-5.56-6.65
			c-3.15-0.88-9.51-2.39-9.51-2.39L430.08,209.44z"/>
	</g>
	<g>
		<path class="st5" d="M478.9,297.24L478.9,297.24c-0.85,0.11-1.64-0.49-1.75-1.34l0,0c-0.11-0.85,0.49-1.64,1.34-1.75l0,0
			c0.85-0.11,1.64,0.49,1.75,1.34l0,0C480.36,296.34,479.76,297.13,478.9,297.24z"/>
		<path class="st5" d="M468.32,296.56L468.32,296.56c-0.85,0.11-1.64-0.49-1.75-1.34l0,0c-0.11-0.85,0.49-1.64,1.34-1.75l0,0
			c0.85-0.11,1.64,0.49,1.75,1.34h0C469.78,295.66,469.17,296.44,468.32,296.56z"/>
		<path class="st5" d="M471.35,287.76L471.35,287.76c-0.85,0.11-1.64-0.49-1.75-1.34l0,0c-0.11-0.85,0.49-1.64,1.34-1.75l0,0
			c0.85-0.11,1.64,0.49,1.75,1.34l0,0C472.8,286.86,472.2,287.65,471.35,287.76z"/>
		<path class="st5" d="M486.74,293.05L486.74,293.05c-0.85,0.11-1.64-0.49-1.75-1.34l0,0c-0.11-0.85,0.49-1.64,1.34-1.75l0,0
			c0.85-0.11,1.64,0.49,1.75,1.34l0,0C488.19,292.15,487.59,292.94,486.74,293.05z"/>
		<path class="st5" d="M487.97,302.33L487.97,302.33c-0.85,0.11-1.64-0.49-1.75-1.34l0,0c-0.11-0.85,0.49-1.64,1.34-1.75l0,0
			c0.85-0.11,1.64,0.49,1.75,1.34l0,0C489.43,301.43,488.83,302.22,487.97,302.33z"/>
		<path class="st5" d="M484.2,313.32L484.2,313.32c-0.85,0.11-1.64-0.49-1.75-1.34l0,0c-0.11-0.85,0.49-1.64,1.34-1.75l0,0
			c0.85-0.11,1.64,0.49,1.75,1.34l0,0C485.65,312.42,485.05,313.21,484.2,313.32z"/>
		<path class="st5" d="M471.32,323.97L471.32,323.97c0.86-0.04,1.59,0.63,1.63,1.49l0,0c0.04,0.86-0.63,1.59-1.49,1.63h0
			c-0.86,0.04-1.59-0.63-1.63-1.49l0,0C469.8,324.74,470.47,324.01,471.32,323.97z"/>
		<path class="st5" d="M441.47,307L441.47,307c0.86-0.04,1.59,0.63,1.63,1.49l0,0c0.04,0.86-0.63,1.59-1.49,1.63l0,0
			c-0.86,0.04-1.59-0.63-1.63-1.49l0,0C439.95,307.77,440.62,307.04,441.47,307z"/>
		<path class="st5" d="M429.83,305.85L429.83,305.85c0.86-0.04,1.59,0.63,1.63,1.49v0c0.04,0.86-0.63,1.59-1.49,1.63l0,0
			c-0.86,0.04-1.59-0.63-1.63-1.49l0,0C428.31,306.62,428.98,305.89,429.83,305.85z"/>
		<path class="st5" d="M432.6,315.6L432.6,315.6c0.86-0.04,1.59,0.63,1.63,1.49l0,0c0.04,0.86-0.63,1.59-1.49,1.63h0
			c-0.86,0.04-1.59-0.63-1.63-1.49l0,0C431.07,316.37,431.74,315.64,432.6,315.6z"/>
		<path class="st5" d="M459.63,326.71L459.63,326.71c0.86-0.04,1.59,0.63,1.63,1.49l0,0c0.04,0.86-0.63,1.59-1.49,1.63l0,0
			c-0.86,0.04-1.59-0.63-1.63-1.49l0,0C458.1,327.48,458.77,326.74,459.63,326.71z"/>
		<path class="st5" d="M440.08,334.18L440.08,334.18c0.86-0.04,1.59,0.63,1.63,1.49v0c0.04,0.86-0.63,1.59-1.49,1.63h0
			c-0.86,0.04-1.59-0.63-1.63-1.49l0,0C438.56,334.95,439.23,334.21,440.08,334.18z"/>
		<path class="st5" d="M468.23,335.58L468.23,335.58c0.86-0.04,1.59,0.63,1.63,1.49l0,0c0.04,0.86-0.63,1.59-1.49,1.63l0,0
			c-0.86,0.04-1.59-0.63-1.63-1.49l0,0C466.7,336.35,467.37,335.62,468.23,335.58z"/>
		<path class="st5" d="M483.71,339.71L483.71,339.71c0.86-0.04,1.59,0.63,1.63,1.49l0,0c0.04,0.86-0.63,1.59-1.49,1.63l0,0
			c-0.86,0.04-1.59-0.63-1.63-1.49l0,0C482.18,340.47,482.85,339.74,483.71,339.71z"/>
		<path class="st5" d="M494.32,344.73L494.32,344.73c0.86-0.04,1.59,0.63,1.63,1.49l0,0c0.04,0.86-0.63,1.59-1.49,1.63l0,0
			c-0.86,0.04-1.59-0.63-1.63-1.49l0,0C492.79,345.5,493.46,344.76,494.32,344.73z"/>
		<path class="st5" d="M480.12,331.13L480.12,331.13c0.86-0.04,1.59,0.63,1.63,1.49l0,0c0.04,0.86-0.63,1.59-1.49,1.63l0,0
			c-0.86,0.04-1.59-0.63-1.63-1.49l0,0C478.6,331.9,479.27,331.17,480.12,331.13z"/>
		<path class="st5" d="M493.13,317.38L493.13,317.38c-0.85,0.11-1.64-0.49-1.75-1.34h0c-0.11-0.85,0.49-1.64,1.34-1.75l0,0
			c0.85-0.11,1.64,0.49,1.75,1.34l0,0C494.58,316.48,493.98,317.26,493.13,317.38z"/>
		<path class="st5" d="M479.25,307.69L479.25,307.69c-0.85,0.11-1.64-0.49-1.75-1.34l0,0c-0.11-0.85,0.49-1.64,1.34-1.75l0,0
			c0.85-0.11,1.64,0.49,1.75,1.34l0,0C480.7,306.79,480.1,307.58,479.25,307.69z"/>
		<path class="st5" d="M467.5,306.11L467.5,306.11c-0.85,0.11-1.64-0.49-1.75-1.34l0,0c-0.11-0.85,0.49-1.64,1.34-1.75l0,0
			c0.85-0.11,1.64,0.49,1.75,1.34l0,0C468.95,305.21,468.35,305.99,467.5,306.11z"/>
		<path class="st5" d="M456.37,301.3L456.37,301.3c-0.85,0.11-1.64-0.49-1.75-1.34l0,0c-0.11-0.85,0.49-1.64,1.34-1.75l0,0
			c0.85-0.11,1.64,0.49,1.75,1.34v0C457.82,300.4,457.22,301.18,456.37,301.3z"/>
		<path class="st5" d="M447.57,298.27L447.57,298.27c-0.85,0.11-1.64-0.49-1.75-1.34l0,0c-0.11-0.85,0.49-1.64,1.34-1.75l0,0
			c0.85-0.11,1.64,0.49,1.75,1.34l0,0C449.03,297.37,448.42,298.16,447.57,298.27z"/>
		<path class="st5" d="M497.11,300.06L497.11,300.06c-0.85,0.11-1.64-0.49-1.75-1.34l0,0c-0.11-0.85,0.49-1.64,1.34-1.75l0,0
			c0.85-0.11,1.64,0.49,1.75,1.34l0,0C498.57,299.16,497.96,299.95,497.11,300.06z"/>
		<path class="st5" d="M494.23,309.89L494.23,309.89c-0.85,0.11-1.64-0.49-1.75-1.34h0c-0.11-0.85,0.49-1.64,1.34-1.75l0,0
			c0.85-0.11,1.64,0.49,1.75,1.34l0,0C495.68,308.99,495.08,309.77,494.23,309.89z"/>
		<path class="st5" d="M503.3,314.97L503.3,314.97c-0.85,0.11-1.64-0.49-1.75-1.34l0,0c-0.11-0.85,0.49-1.64,1.34-1.75l0,0
			c0.85-0.11,1.64,0.49,1.75,1.34l0,0C504.75,314.07,504.15,314.86,503.3,314.97z"/>
		<path class="st5" d="M492.08,284.47l-0.38,0.05c-0.46,0.06-0.89-0.27-0.95-0.73l-0.05-0.38c-0.06-0.46,0.27-0.89,0.73-0.95
			l0.38-0.05c0.46-0.06,0.89,0.27,0.95,0.73l0.05,0.38C492.87,283.98,492.54,284.41,492.08,284.47z"/>
		<path class="st5" d="M484.43,281.42l-0.38,0.05c-0.46,0.06-0.89-0.27-0.95-0.73l-0.05-0.38c-0.06-0.46,0.27-0.89,0.73-0.95
			l0.38-0.05c0.46-0.06,0.89,0.27,0.95,0.73l0.05,0.38C485.22,280.92,484.89,281.35,484.43,281.42z"/>
		<path class="st5" d="M478.96,288.32l-0.38,0.05c-0.46,0.06-0.89-0.27-0.95-0.73l-0.05-0.38c-0.06-0.46,0.27-0.89,0.73-0.95
			l0.38-0.05c0.46-0.06,0.89,0.27,0.95,0.73l0.05,0.38C479.75,287.83,479.42,288.26,478.96,288.32z"/>
		<path class="st5" d="M458.34,291.07l-0.38,0.05c-0.46,0.06-0.89-0.27-0.95-0.73l-0.05-0.38c-0.06-0.46,0.27-0.89,0.73-0.95
			l0.38-0.05c0.46-0.06,0.89,0.27,0.95,0.73l0.05,0.38C459.13,290.58,458.81,291.01,458.34,291.07z"/>
		<path class="st5" d="M463.7,284.06l-0.38,0.05c-0.46,0.06-0.89-0.27-0.95-0.73l-0.05-0.38c-0.06-0.46,0.27-0.89,0.73-0.95
			l0.38-0.05c0.46-0.06,0.89,0.27,0.95,0.73l0.05,0.38C464.49,283.57,464.17,284,463.7,284.06z"/>
		<path class="st5" d="M473.46,278.56l-0.38,0.05c-0.46,0.06-0.89-0.27-0.95-0.73l-0.05-0.38c-0.06-0.46,0.27-0.89,0.73-0.95
			l0.38-0.05c0.46-0.06,0.89,0.27,0.95,0.73l0.05,0.38C474.25,278.07,473.92,278.5,473.46,278.56z"/>
		<path class="st5" d="M484.57,273.03l-0.38,0.05c-0.46,0.06-0.89-0.27-0.95-0.73l-0.05-0.38c-0.06-0.46,0.27-0.89,0.73-0.95
			l0.38-0.05c0.46-0.06,0.89,0.27,0.95,0.73l0.05,0.38C485.36,272.54,485.03,272.97,484.57,273.03z"/>
		<path class="st5" d="M496.14,275.54l-0.38,0.05c-0.46,0.06-0.89-0.27-0.95-0.73l-0.05-0.38c-0.06-0.46,0.27-0.89,0.73-0.95
			l0.38-0.05c0.46-0.06,0.89,0.27,0.95,0.73l0.05,0.38C496.93,275.05,496.6,275.48,496.14,275.54z"/>
		<path class="st5" d="M501.36,283.24l-0.38,0.05c-0.46,0.06-0.89-0.27-0.95-0.73l-0.05-0.38c-0.06-0.46,0.27-0.89,0.73-0.95
			l0.38-0.05c0.46-0.06,0.89,0.27,0.95,0.73l0.05,0.38C502.15,282.75,501.82,283.18,501.36,283.24z"/>
		<path class="st5" d="M492.91,269.3l-0.38,0.05c-0.46,0.06-0.89-0.27-0.95-0.73l-0.05-0.38c-0.06-0.46,0.27-0.89,0.73-0.95
			l0.38-0.05c0.46-0.06,0.89,0.27,0.95,0.73l0.05,0.38C493.71,268.81,493.38,269.24,492.91,269.3z"/>
		<path class="st5" d="M495.24,292.44l-0.38,0.05c-0.46,0.06-0.89-0.27-0.95-0.73l-0.05-0.38c-0.06-0.46,0.27-0.89,0.73-0.95
			l0.38-0.05c0.46-0.06,0.89,0.27,0.95,0.73l0.05,0.38C496.03,291.95,495.7,292.38,495.24,292.44z"/>
		<path class="st5" d="M459.25,309.35l-0.38,0.05c-0.46,0.06-0.89-0.27-0.95-0.73l-0.05-0.38c-0.06-0.46,0.27-0.89,0.73-0.95
			l0.38-0.05c0.46-0.06,0.89,0.27,0.95,0.73l0.05,0.38C460.04,308.86,459.71,309.29,459.25,309.35z"/>
		<path class="st5" d="M449.17,305.93l-0.38,0.05c-0.46,0.06-0.89-0.27-0.95-0.73l-0.05-0.38c-0.06-0.46,0.27-0.89,0.73-0.95
			l0.38-0.05c0.46-0.06,0.89,0.27,0.95,0.73l0.05,0.38C449.97,305.44,449.64,305.87,449.17,305.93z"/>
		<path class="st5" d="M437.57,302.84l-0.38,0.05c-0.46,0.06-0.89-0.27-0.95-0.73l-0.05-0.38c-0.06-0.46,0.27-0.89,0.73-0.95
			l0.38-0.05c0.46-0.06,0.89,0.27,0.95,0.73l0.05,0.38C438.36,302.34,438.03,302.77,437.57,302.84z"/>
		<path class="st5" d="M470.78,313.54l-0.38,0.05c-0.46,0.06-0.89-0.27-0.95-0.73l-0.05-0.38c-0.06-0.46,0.27-0.89,0.73-0.95
			l0.38-0.05c0.46-0.06,0.89,0.27,0.95,0.73l0.05,0.38C471.57,313.05,471.24,313.48,470.78,313.54z"/>
		<path class="st5" d="M478.96,319.79l-0.38,0.05c-0.46,0.06-0.89-0.27-0.95-0.73l-0.05-0.38c-0.06-0.46,0.27-0.89,0.73-0.95
			l0.38-0.05c0.46-0.06,0.89,0.27,0.95,0.73l0.05,0.38C479.75,319.3,479.42,319.73,478.96,319.79z"/>
		<path class="st5" d="M487,325.01l-0.38,0.05c-0.46,0.06-0.89-0.27-0.95-0.73l-0.05-0.38c-0.06-0.46,0.27-0.89,0.73-0.95l0.38-0.05
			c0.46-0.06,0.89,0.27,0.95,0.73l0.05,0.38C487.79,324.52,487.46,324.95,487,325.01z"/>
		<path class="st5" d="M499.5,324.4l-0.38,0.05c-0.46,0.06-0.89-0.27-0.95-0.73l-0.05-0.38c-0.06-0.46,0.27-0.89,0.73-0.95
			l0.38-0.05c0.46-0.06,0.89,0.27,0.95,0.73l0.05,0.38C500.29,323.9,499.96,324.33,499.5,324.4z"/>
		<path class="st5" d="M506.51,331.1l-0.38,0.05c-0.46,0.06-0.89-0.27-0.95-0.73l-0.05-0.38c-0.06-0.46,0.27-0.89,0.73-0.95
			l0.38-0.05c0.46-0.06,0.89,0.27,0.95,0.73l0.05,0.38C507.3,330.61,506.97,331.04,506.51,331.1z"/>
		<path class="st5" d="M462.56,319.63l-0.38,0.05c-0.46,0.06-0.89-0.27-0.95-0.73l-0.05-0.38c-0.06-0.46,0.27-0.89,0.73-0.95
			l0.38-0.05c0.46-0.06,0.89,0.27,0.95,0.73l0.05,0.38C463.35,319.14,463.02,319.57,462.56,319.63z"/>
		<path class="st5" d="M493.27,331.49l-0.38,0.05c-0.46,0.06-0.89-0.27-0.95-0.73l-0.05-0.38c-0.06-0.46,0.27-0.89,0.73-0.95
			l0.38-0.05c0.46-0.06,0.89,0.27,0.95,0.73l0.05,0.38C494.06,331,493.73,331.43,493.27,331.49z"/>
		<path class="st5" d="M493.17,338.29l-0.38,0.05c-0.46,0.06-0.89-0.27-0.95-0.73l-0.05-0.38c-0.06-0.46,0.27-0.89,0.73-0.95
			l0.38-0.05c0.46-0.06,0.89,0.27,0.95,0.73l0.05,0.38C493.96,337.8,493.63,338.23,493.17,338.29z"/>
		<path class="st5" d="M494.84,355.8l-0.38,0.05c-0.46,0.06-0.89-0.27-0.95-0.73l-0.05-0.38c-0.06-0.46,0.27-0.89,0.73-0.95
			l0.38-0.05c0.46-0.06,0.89,0.27,0.95,0.73l0.05,0.38C495.63,355.31,495.3,355.74,494.84,355.8z"/>
		<path class="st5" d="M484.2,352.72l-0.38,0.05c-0.46,0.06-0.89-0.27-0.95-0.73l-0.05-0.38c-0.06-0.46,0.27-0.89,0.73-0.95
			l0.38-0.05c0.46-0.06,0.89,0.27,0.95,0.73l0.05,0.38C484.99,352.23,484.66,352.66,484.2,352.72z"/>
		<path class="st5" d="M484.33,360.82l-0.38,0.05c-0.46,0.06-0.89-0.27-0.95-0.73l-0.05-0.38c-0.06-0.46,0.27-0.89,0.73-0.95
			l0.38-0.05c0.46-0.06,0.89,0.27,0.95,0.73l0.05,0.38C485.12,360.33,484.79,360.76,484.33,360.82z"/>
		<path class="st5" d="M488.06,369.76l-0.38,0.05c-0.46,0.06-0.89-0.27-0.95-0.73l-0.05-0.38c-0.06-0.46,0.27-0.89,0.73-0.95
			l0.38-0.05c0.46-0.06,0.89,0.27,0.95,0.73l0.05,0.38C488.85,369.27,488.53,369.7,488.06,369.76z"/>
		<path class="st5" d="M475.24,355.56l-0.38,0.05c-0.46,0.06-0.89-0.27-0.95-0.73l-0.05-0.38c-0.06-0.46,0.27-0.89,0.73-0.95
			l0.38-0.05c0.46-0.06,0.89,0.27,0.95,0.73l0.05,0.38C476.04,355.07,475.71,355.5,475.24,355.56z"/>
		<path class="st5" d="M478.07,363.62l-0.38,0.05c-0.46,0.06-0.89-0.27-0.95-0.73l-0.05-0.38c-0.06-0.46,0.27-0.89,0.73-0.95
			l0.38-0.05c0.46-0.06,0.89,0.27,0.95,0.73l0.05,0.38C478.86,363.12,478.53,363.55,478.07,363.62z"/>
		<path class="st5" d="M467.09,352.08l-0.38,0.05c-0.46,0.06-0.89-0.27-0.95-0.73l-0.05-0.38c-0.06-0.46,0.27-0.89,0.73-0.95
			l0.38-0.05c0.46-0.06,0.89,0.27,0.95,0.73l0.05,0.38C467.88,351.59,467.55,352.02,467.09,352.08z"/>
		<path class="st5" d="M468.16,362.87l-0.38,0.05c-0.46,0.06-0.89-0.27-0.95-0.73l-0.05-0.38c-0.06-0.46,0.27-0.89,0.73-0.95
			l0.38-0.05c0.46-0.06,0.89,0.27,0.95,0.73l0.05,0.38C468.95,362.38,468.62,362.81,468.16,362.87z"/>
		<path class="st5" d="M494.29,365.17l-0.38,0.05c-0.46,0.06-0.89-0.27-0.95-0.73l-0.05-0.38c-0.06-0.46,0.27-0.89,0.73-0.95
			l0.38-0.05c0.46-0.06,0.89,0.27,0.95,0.73l0.05,0.38C495.08,364.68,494.76,365.11,494.29,365.17z"/>
		<path class="st5" d="M496.26,375.94l-0.38,0.05c-0.46,0.06-0.89-0.27-0.95-0.73l-0.05-0.38c-0.06-0.46,0.27-0.89,0.73-0.95
			l0.38-0.05c0.46-0.06,0.89,0.27,0.95,0.73l0.05,0.38C497.05,375.45,496.72,375.88,496.26,375.94z"/>
		<path class="st5" d="M503.39,371.33l-0.38,0.05c-0.46,0.06-0.89-0.27-0.95-0.73l-0.05-0.38c-0.06-0.46,0.27-0.89,0.73-0.95
			l0.38-0.05c0.46-0.06,0.89,0.27,0.95,0.73l0.05,0.38C504.18,370.84,503.85,371.27,503.39,371.33z"/>
		<path class="st5" d="M504.16,363.22l-0.38,0.05c-0.46,0.06-0.89-0.27-0.95-0.73l-0.05-0.38c-0.06-0.46,0.27-0.89,0.73-0.95
			l0.38-0.05c0.46-0.06,0.89,0.27,0.95,0.73l0.05,0.38C504.96,362.72,504.63,363.15,504.16,363.22z"/>
		<path class="st5" d="M474.58,346.74l-0.38,0.05c-0.46,0.06-0.89-0.27-0.95-0.73l-0.05-0.38c-0.06-0.46,0.27-0.89,0.73-0.95
			l0.38-0.05c0.46-0.06,0.89,0.27,0.95,0.73l0.05,0.38C475.37,346.25,475.04,346.68,474.58,346.74z"/>
		<path class="st5" d="M462.73,345.51l-0.38,0.05c-0.46,0.06-0.89-0.27-0.95-0.73l-0.05-0.38c-0.06-0.46,0.27-0.89,0.73-0.95
			l0.38-0.05c0.46-0.06,0.89,0.27,0.95,0.73l0.05,0.38C463.52,345.02,463.19,345.45,462.73,345.51z"/>
		<path class="st5" d="M450.99,342.99l-0.38,0.05c-0.46,0.06-0.89-0.27-0.95-0.73l-0.05-0.38c-0.06-0.46,0.27-0.89,0.73-0.95
			l0.38-0.05c0.46-0.06,0.89,0.27,0.95,0.73l0.05,0.38C451.78,342.5,451.45,342.92,450.99,342.99z"/>
		<path class="st5" d="M442,344.02l-0.38,0.05c-0.46,0.06-0.89-0.27-0.95-0.73l-0.05-0.38c-0.06-0.46,0.27-0.89,0.73-0.95l0.38-0.05
			c0.46-0.06,0.89,0.27,0.95,0.73l0.05,0.38C442.79,343.53,442.46,343.96,442,344.02z"/>
		<path class="st5" d="M454.71,351.03l-0.38,0.05c-0.46,0.06-0.89-0.27-0.95-0.73l-0.05-0.38c-0.06-0.46,0.27-0.89,0.73-0.95
			l0.38-0.05c0.46-0.06,0.89,0.27,0.95,0.73l0.05,0.38C455.5,350.54,455.17,350.97,454.71,351.03z"/>
		<path class="st5" d="M474.58,346.74l-0.38,0.05c-0.46,0.06-0.89-0.27-0.95-0.73l-0.05-0.38c-0.06-0.46,0.27-0.89,0.73-0.95
			l0.38-0.05c0.46-0.06,0.89,0.27,0.95,0.73l0.05,0.38C475.37,346.25,475.04,346.68,474.58,346.74z"/>
		<path class="st5" d="M460.16,336.81l-0.38,0.05c-0.46,0.06-0.89-0.27-0.95-0.73l-0.05-0.38c-0.06-0.46,0.27-0.89,0.73-0.95
			l0.38-0.05c0.46-0.06,0.89,0.27,0.95,0.73l0.05,0.38C460.95,336.32,460.62,336.75,460.16,336.81z"/>
		<path class="st5" d="M450.48,334.72l-0.38,0.05c-0.46,0.06-0.89-0.27-0.95-0.73l-0.05-0.38c-0.06-0.46,0.27-0.89,0.73-0.95
			l0.38-0.05c0.46-0.06,0.89,0.27,0.95,0.73l0.05,0.38C451.27,334.23,450.94,334.65,450.48,334.72z"/>
		<path class="st5" d="M445.73,327.84l-0.38,0.05c-0.46,0.06-0.89-0.27-0.95-0.73l-0.05-0.38c-0.06-0.46,0.27-0.89,0.73-0.95
			l0.38-0.05c0.46-0.06,0.89,0.27,0.95,0.73l0.05,0.38C446.52,327.35,446.19,327.78,445.73,327.84z"/>
		<path class="st5" d="M436.99,327.71l-0.38,0.05c-0.46,0.06-0.89-0.27-0.95-0.73l-0.05-0.38c-0.06-0.46,0.27-0.89,0.73-0.95
			l0.38-0.05c0.46-0.06,0.89,0.27,0.95,0.73l0.05,0.38C437.78,327.22,437.45,327.65,436.99,327.71z"/>
		<path class="st5" d="M426.31,327.54l-0.38,0.05c-0.46,0.06-0.89-0.27-0.95-0.73l-0.05-0.38c-0.06-0.46,0.27-0.89,0.73-0.95
			l0.38-0.05c0.46-0.06,0.89,0.27,0.95,0.73l0.05,0.38C427.1,327.05,426.77,327.48,426.31,327.54z"/>
		<path class="st5" d="M423.57,315.85l-0.38,0.05c-0.46,0.06-0.89-0.27-0.95-0.73l-0.05-0.38c-0.06-0.46,0.27-0.89,0.73-0.95
			l0.38-0.05c0.46-0.06,0.89,0.27,0.95,0.73l0.05,0.38C424.36,315.35,424.03,315.78,423.57,315.85z"/>
		<path class="st5" d="M414.8,317.65l-0.38,0.05c-0.46,0.06-0.89-0.27-0.95-0.73l-0.05-0.38c-0.06-0.46,0.27-0.89,0.73-0.95
			l0.38-0.05c0.46-0.06,0.89,0.27,0.95,0.73l0.05,0.38C415.59,317.16,415.26,317.59,414.8,317.65z"/>
		<path class="st5" d="M419.57,323.55l-0.38,0.05c-0.46,0.06-0.89-0.27-0.95-0.73l-0.05-0.38c-0.06-0.46,0.27-0.89,0.73-0.95
			l0.38-0.05c0.46-0.06,0.89,0.27,0.95,0.73l0.05,0.38C420.36,323.06,420.03,323.49,419.57,323.55z"/>
		<path class="st5" d="M405.97,323.35l-0.38,0.05c-0.46,0.06-0.89-0.27-0.95-0.73l-0.05-0.38c-0.06-0.46,0.27-0.89,0.73-0.95
			l0.38-0.05c0.46-0.06,0.89,0.27,0.95,0.73l0.05,0.38C406.76,322.85,406.43,323.28,405.97,323.35z"/>
		<path class="st5" d="M413.64,330.26l-0.38,0.05c-0.46,0.06-0.89-0.27-0.95-0.73l-0.05-0.38c-0.06-0.46,0.27-0.89,0.73-0.95
			l0.38-0.05c0.46-0.06,0.89,0.27,0.95,0.73l0.05,0.38C414.43,329.77,414.1,330.2,413.64,330.26z"/>
		<path class="st5" d="M431.04,335.39l-0.38,0.05c-0.46,0.06-0.89-0.27-0.95-0.73l-0.05-0.38c-0.06-0.46,0.27-0.89,0.73-0.95
			l0.38-0.05c0.46-0.06,0.89,0.27,0.95,0.73l0.05,0.38C431.83,334.9,431.5,335.33,431.04,335.39z"/>
		<path class="st5" d="M502.85,340.38l-0.38,0.05c-0.46,0.06-0.89-0.27-0.95-0.73l-0.05-0.38c-0.06-0.46,0.27-0.89,0.73-0.95
			l0.38-0.05c0.46-0.06,0.89,0.27,0.95,0.73l0.05,0.38C503.64,339.89,503.31,340.32,502.85,340.38z"/>
		<path class="st5" d="M506.61,348.21l-0.38,0.05c-0.46,0.06-0.89-0.27-0.95-0.73l-0.05-0.38c-0.06-0.46,0.27-0.89,0.73-0.95
			l0.38-0.05c0.46-0.06,0.89,0.27,0.95,0.73l0.05,0.38C507.4,347.72,507.08,348.15,506.61,348.21z"/>
		<path class="st5" d="M502.64,353.98l-0.38,0.05c-0.46,0.06-0.89-0.27-0.95-0.73l-0.05-0.38c-0.06-0.46,0.27-0.89,0.73-0.95
			l0.38-0.05c0.46-0.06,0.89,0.27,0.95,0.73l0.05,0.38C503.43,353.48,503.1,353.91,502.64,353.98z"/>
		<path class="st5" d="M451.29,321.86l-0.38,0.05c-0.46,0.06-0.89-0.27-0.95-0.73l-0.05-0.38c-0.06-0.46,0.27-0.89,0.73-0.95
			l0.38-0.05c0.46-0.06,0.89,0.27,0.95,0.73l0.05,0.38C452.08,321.37,451.75,321.79,451.29,321.86z"/>
		<path class="st5" d="M441.62,318.79l-0.38,0.05c-0.46,0.06-0.89-0.27-0.95-0.73l-0.05-0.38c-0.06-0.46,0.27-0.89,0.73-0.95
			l0.38-0.05c0.46-0.06,0.89,0.27,0.95,0.73l0.05,0.38C442.41,318.3,442.08,318.73,441.62,318.79z"/>
		<path class="st5" d="M452.38,314.1l-0.38,0.05c-0.46,0.06-0.89-0.27-0.95-0.73l-0.05-0.38c-0.06-0.46,0.27-0.89,0.73-0.95
			l0.38-0.05c0.46-0.06,0.89,0.27,0.95,0.73l0.05,0.38C453.17,313.61,452.84,314.04,452.38,314.1z"/>
	</g>
</g>
<path class="st0" d="M16.98,384.94c-12.6-8.1-9-4.5-10.8-8.1s-0.9-11.7,2.7-22.5c3.6-10.8,13.5-21.6,15.3-34.2
	c1.8-12.6,17.1-60.3,18-81.9c0.9-21.6,5.4-82.8,24.3-87.3s15.3-8.1,39.6,6.3c24.3,14.4,36.9,36,37.8,33.3c0.9-2.7,3.6-12.6,8.1-27
	c4.5-14.4,13.5-22.5,23.4-21.6c9.9,0.9,20.7,0.9,30.6,10.8c9.9,9.9,29.7,18.9,36,21.6s35.1,16.2,35.1,16.2s27,8.1,8.1,18
	c-18.9,9.9-23.4,18.9-32.4,22.5c-9,3.6-18-4.5-38.7,16.2s-19.8,18-50.4,34.2s-58.5,46.8-90,58.5S16.98,384.94,16.98,384.94z"/>
<g>
	<polygon class="st0" points="600.18,450.64 510.18,394.84 508.38,292.24 600.18,344.44 	"/>
	<polygon class="st0" points="600.18,450.64 664.08,403.84 671.28,301.24 600.18,342.64 	"/>
	<polygon class="st1" points="602.13,346.58 504.78,292.24 579.65,254.8 677.04,300.71 	"/>
	<polygon class="st1" points="602.13,353.78 504.78,299.44 579.65,262 677.04,307.91 	"/>
	<polygon class="st0" points="601.93,342.36 509.59,290.75 580.2,255.45 673.44,299.81 	"/>
	<polygon class="st1" points="594.49,281.91 546.18,258.94 586.72,242.26 633.71,260.08 	"/>
	<polygon class="st0" points="589.78,321.94 547.44,297.92 547.56,266.21 590.68,287.02 	"/>
	<polygon class="st1" points="581.68,318.34 576.78,315.02 576.9,287.81 582.58,290.62 	"/>
	<polygon class="st1" points="569.98,310.24 565.08,306.92 565.2,281.51 570.88,284.32 	"/>
	<polygon class="st1" points="559.18,304.84 554.28,301.52 554.4,276.11 559.18,278.92 	"/>
	<polygon class="st0" points="589.78,321.94 629.89,299.09 632.09,265.72 590.68,287.14 	"/>
	<polyline class="st2" points="509.91,378.96 599.98,434.51 665.02,389.44 	"/>
	<polyline class="st2" points="509.91,362.76 599.98,417.41 665.92,373.24 	"/>
	<polyline class="st2" points="509.91,347.46 599.98,401.21 666.82,357.04 	"/>
	<polyline class="st2" points="509.91,329.46 599.98,384.11 668.62,339.04 	"/>
	<polyline class="st2" points="509.01,310.56 599.98,365.21 669.52,321.04 	"/>
	<line class="st6" x1="615.92" y1="406.73" x2="615.17" y2="423.98"/>
	<line class="st6" x1="625.37" y1="385.13" x2="624.97" y2="399.68"/>
	<line class="st6" x1="645.17" y1="372.53" x2="644.77" y2="387.08"/>
	<line class="st6" x1="661.91" y1="360.83" x2="660.97" y2="376.28"/>
	<line class="st6" x1="606.4" y1="397.73" x2="606.17" y2="413.18"/>
	<line class="st6" x1="624.47" y1="418.43" x2="624.07" y2="432.98"/>
	<line class="st6" x1="644.27" y1="404.03" x2="643.87" y2="418.58"/>
	<line class="st6" x1="660.11" y1="393.23" x2="659.17" y2="406.88"/>
	<line class="st6" x1="606.4" y1="430.13" x2="606.17" y2="445.58"/>
	<line class="st6" x1="518.2" y1="384.23" x2="517.97" y2="399.68"/>
	<line class="st6" x1="580.3" y1="423.83" x2="580.07" y2="439.28"/>
	<line class="st6" x1="557.8" y1="408.53" x2="557.57" y2="423.98"/>
	<line class="st6" x1="537.1" y1="395.93" x2="536.87" y2="411.38"/>
	<line class="st6" x1="519.1" y1="352.73" x2="518.87" y2="368.18"/>
	<line class="st6" x1="581.2" y1="390.53" x2="580.97" y2="405.98"/>
	<line class="st6" x1="558.7" y1="376.13" x2="558.47" y2="391.58"/>
	<line class="st6" x1="538" y1="363.53" x2="537.77" y2="378.98"/>
	<line class="st6" x1="519.1" y1="317.63" x2="518.87" y2="334.88"/>
	<line class="st6" x1="581.2" y1="355.43" x2="580.97" y2="372.68"/>
	<line class="st6" x1="558.7" y1="341.03" x2="558.47" y2="358.28"/>
	<line class="st6" x1="538" y1="328.43" x2="537.77" y2="345.68"/>
	<line class="st6" x1="526.3" y1="372.53" x2="526.07" y2="387.98"/>
	<line class="st6" x1="588.4" y1="411.23" x2="588.17" y2="426.68"/>
	<line class="st6" x1="565.9" y1="396.83" x2="565.67" y2="412.28"/>
	<line class="st6" x1="545.2" y1="384.23" x2="544.97" y2="399.68"/>
	<line class="st6" x1="526.3" y1="340.13" x2="526.07" y2="355.58"/>
	<line class="st6" x1="588.4" y1="377.93" x2="588.17" y2="393.38"/>
	<line class="st6" x1="565.9" y1="364.43" x2="565.67" y2="379.88"/>
	<line class="st6" x1="545.2" y1="351.83" x2="544.97" y2="367.28"/>
	<line class="st6" x1="526.3" y1="304.13" x2="526.07" y2="319.58"/>
	<line class="st6" x1="588.4" y1="341.93" x2="588.17" y2="357.38"/>
	<line class="st6" x1="565.9" y1="328.43" x2="565.67" y2="343.88"/>
	<line class="st6" x1="545.2" y1="315.83" x2="544.97" y2="331.28"/>
	<line class="st6" x1="625.37" y1="350.03" x2="624.97" y2="367.28"/>
	<line class="st6" x1="645.17" y1="337.43" x2="644.77" y2="354.68"/>
	<line class="st6" x1="662.81" y1="325.73" x2="661.87" y2="342.98"/>
	<line class="st6" x1="606.4" y1="362.63" x2="606.17" y2="379.88"/>
	<line class="st6" x1="635.72" y1="394.13" x2="634.97" y2="409.58"/>
	<line class="st6" x1="654.62" y1="381.53" x2="653.87" y2="396.98"/>
	<line class="st6" x1="616.82" y1="373.43" x2="616.07" y2="389.78"/>
	<line class="st6" x1="636.62" y1="360.83" x2="635.87" y2="376.28"/>
	<line class="st6" x1="655.52" y1="348.23" x2="654.77" y2="363.68"/>
	<line class="st6" x1="617.72" y1="333.83" x2="616.97" y2="353.78"/>
	<line class="st6" x1="637.52" y1="322.13" x2="636.77" y2="341.18"/>
	<line class="st6" x1="656.42" y1="311.33" x2="655.67" y2="329.48"/>
	<polygon class="st1" points="593.02,288.64 546.18,265.52 546.3,259.91 593.92,281.62 	"/>
	<polygon class="st1" points="593.38,288.64 633.49,268.49 633.89,260.32 593.38,281.74 	"/>
	<polygon class="st0" points="553.38,259.84 589.38,239.14 592.08,277.75 	"/>
	<path class="st0" d="M587.13,240.47l2.49-23.22c0,0-0.58-1.66,1.23-1.6c1.81,0.06,1.13,1.42,1.13,1.42l0.62,22.6l-2.13,1.21
		L587.13,240.47z"/>
	<polygon class="st0" points="591.18,277.84 589.38,239.14 625.38,261.64 	"/>
	<polygon class="st1" points="593.88,242.74 589.78,244.54 585.78,242.74 585.78,237.34 589.78,239.14 593.88,237.34 	"/>
	<rect x="588.03" y="219.34" class="st1" width="4.5" height="4.5"/>
	<polygon class="st1" points="598.26,317.3 602.81,314.53 604.2,289.91 598.98,293.08 	"/>
	<polygon class="st1" points="609.01,311.16 613.56,308.39 614.95,284.66 609.73,287.84 	"/>
	<polygon class="st1" points="618.95,304.98 623.5,302.21 624.9,280.28 620.48,282.6 	"/>
	<polygon class="st1" points="504.53,292.79 504.53,299.99 516.45,305.84 513.53,296.09 	"/>
	<polygon class="st1" points="676.93,300.79 676.93,307.89 667.93,313.29 667.93,304.49 	"/>
</g>
<g id="木のコピー_12">
	<g>
		<path class="st0" d="M48.43,356.23c0,0-2.3,3.62-5.92,1.32c-3.62-2.3-5.4-5.21-5.68-3.52c-0.28,1.69-15.35,8.4-12.28-5.81
			c2.57-11.9-19.92,5.11-10.37-21.07c1.66-4.55-2.25-5.28-1.72-12.47c0.67-9.05,9.09-9.64,10.51-8.56
			c1.42,1.07-1.86-11.68,6.06-15.06s10.17,1.9,12.03,0.63c1.86-1.27,7.58-5.87,10.61-0.45c3.03,5.43,3.77,2.86,6.11,1.95
			c2.85-1.1,6.21-2.89,9.51,3.26c3.34,6.23,2.82,8.76,6.1,8.56c3.28-0.2,11.89,14.37,2.95,23.22c1.18,6.7,7.78,10.36,1.28,14.81
			s-8.12,0.1-6.79,6.02c0,0,0.54,5.77-3.66,6.6c-7.03,1.39-4.84-0.1-9.34,2.3S48.43,356.23,48.43,356.23z"/>
		<path class="st0" d="M48.43,388.5c7.25-8.9,2.61-18.94,2.49-26.15s-0.07-16-4.03-16.38s-13.24-3.66-11.36-6.68
			s3.81,1.96,8.79,0.04c4.98-1.92,1.96-4.93,1.81-11.18c-0.15-6.25-1.43-9.57,1.81-10.06c3.24-0.49,2.9,11.47,4.56,10.83
			s5.51-7.47,6.23-6.6c0.72,0.87,5.17,4.49,1.77,6.57c-3.4,2.07-6.87,4.94-5.59,8.26c1.28,3.32,3.74,2.75,7.92,0.76
			s7.21-0.11,3.66,3.55c-3.55,3.66-8.94,1.55-9.55,7.88c-0.6,6.34,0.7,22.56,3.9,25.95c5.83,6.16,11.71,11.52,6.96,11.07
			c-4.75-0.45-3.58-4.34-8.72-0.83c-2.71,1.85-1.09,3.09-4.49,5.17S45.37,392.25,48.43,388.5z"/>
	</g>
	<g>
		<path class="st0" d="M188.89,260.03c0,0,2.18,1.91,4.1-0.27c1.91-2.18,2.34-5,2.85-3.96c0.51,1.04,10.94,0.99,5.29-5.01
			c-5.04-5.36,12.96-3.56,4.48-16.18c-1.83-2.72,0.46-3.86-1.26-8.43c-2.16-5.75-7.74-4.53-8.46-3.56c-0.72,0.97-1.01-7.95-6.8-8.63
			c-5.79-0.69-6.25,3.17-7.69,2.7c-1.45-0.47-6.04-2.37-6.98,1.73c-0.94,4.1-1.9,2.58-3.6,2.43c-2.06-0.17-4.58-0.69-5.55,3.93
			c-0.98,4.69-0.16,6.23-2.33,6.72s-4.99,11.6,2.51,15.65c0.51,4.58-3.08,8.21,1.99,9.87c5.07,1.65,5.29-1.48,5.56,2.62
			c0,0,0.75,3.85,3.64,3.59c4.83-0.43,3.13-0.98,6.5-0.28C186.5,263.66,188.89,260.03,188.89,260.03z"/>
		<path class="st0" d="M181.22,280.05c5.34-6.26,1.95-10.83,1.99-15.99s0.22-11.46-2.62-11.8c-2.83-0.34-9.42-2.84-8.02-4.97
			c1.4-2.13,2.7,1.47,6.3,0.17c3.6-1.29,3.49-3.97,1.49-7.98c-1.32-2.63-3.56-7.11-1.22-7.41c2.33-0.3,4.58,8.5,5.78,8.07
			c1.2-0.43,3.78-4.45,4.57-4.62c1.45-0.33,3.7,2.41,1.24,3.84c-2.47,1.43-5.08,4.32-4.22,6.72c0.86,2.4,0.91,0.98,3.95-0.38
			s5.16,0.04,2.56,2.6c-2.6,2.56-4.72,2.01-5.25,6.54c-0.54,4.53,0.36,13.48,2.6,15.96c4.07,4.51,8.2,8.45,4.8,8.04
			c-3.4-0.4-2.89,1.32-6.62,3.74c-1.97,1.28-0.44-2.29-2.91-0.86S178.97,282.69,181.22,280.05z"/>
	</g>
	<path class="st0" d="M226.68,355.24c0.64-11.46,3.82-21.64,8.28-24.19c3.04-1.74,1.64,1.85,0.64,5.73
		c-0.47,1.81-0.84,3.68-0.64,5.09c0.64,4.46,3.82-10.82,7-8.91c3.18,1.91,1.91,1.27,3.18,4.46c1.27,3.18,1.91-6.37,4.46-4.46
		s-0.64-1.27,3.18,4.46"/>
	<path class="st0" d="M92.58,333.64c0.64-11.46,3.82-21.64,8.28-24.19c3.04-1.74,1.64,1.85,0.64,5.73
		c-0.47,1.81-0.84,3.68-0.64,5.09c0.64,4.46,3.82-10.82,7-8.91c3.18,1.91,1.91,1.27,3.18,4.46s1.91-6.37,4.46-4.46
		c2.55,1.91-0.64-1.27,3.18,4.46"/>
	<path class="st0" d="M147.72,294.04c0.49-8.88,2.2-13.71,5.65-15.68c2.35-1.34,2.03-1.62,1.26,1.38c-0.36,1.4-0.65,2.85-0.5,3.95
		c0.49,3.45,3.72-9.91,6.19-8.43c2.47,1.48,0.72,2.51,1.7,4.98c0.99,2.47,1.48-4.93,3.45-3.45s-0.49-0.99,2.47,3.45"/>
</g>
<g id="ビルのコピー_13">
	<polygon class="st0" points="354.02,68.25 289.67,38.44 354.02,11.26 418.38,38.44 	"/>
	<polygon class="st0" points="354.02,57.27 309.47,36.64 354.02,17.82 398.57,36.64 	"/>
	<g>
		<polygon class="st0" points="297.32,119.5 228.02,85.69 287.42,60.6 356.72,91.99 		"/>
		<polygon class="st0" points="302.28,265.24 250.98,233.74 227.58,85.24 292.38,116.74 		"/>
	</g>
	<g>
		<polygon class="st0" points="409.38,120.4 468.78,92.89 409.38,67.8 349.98,92.89 		"/>
		<polygon class="st0" points="404.42,266.14 444.92,241.84 468.32,93.34 414.32,117.64 		"/>
	</g>
	<polygon class="st0" points="353.58,297.64 302.28,265.24 286.98,30.34 300.48,36.64 300.58,41.83 340.87,61.15 340.08,52.84 
		353.58,58.24 	"/>
	<polygon class="st0" points="342.78,290.44 312.11,271.54 300.48,55.54 340.98,74.44 	"/>
	<polygon class="st0" points="353.58,297.64 404.88,266.14 419.28,31.24 409.86,35.27 409.6,40.72 365.26,61.8 365.66,53.87 
		353.58,59.14 	"/>
	<polygon class="st0" points="364.38,291.34 396.78,271.54 410.28,54.64 365.28,76.24 	"/>
	<g>
		<line class="st0" x1="310.69" y1="246.37" x2="342.42" y2="265.24"/>
		<line class="st0" x1="310.69" y1="234.67" x2="342.42" y2="253.54"/>
		<line class="st0" x1="309.79" y1="222.07" x2="342.42" y2="240.94"/>
		<line class="st0" x1="309.79" y1="210.37" x2="342.42" y2="229.24"/>
		<line class="st0" x1="308.89" y1="197.77" x2="342.42" y2="215.74"/>
		<line class="st0" x1="308.89" y1="185.17" x2="341.52" y2="203.14"/>
		<line class="st0" x1="307.99" y1="171.67" x2="341.52" y2="189.64"/>
		<line class="st0" x1="307.09" y1="159.07" x2="341.52" y2="177.04"/>
		<line class="st0" x1="306.19" y1="145.57" x2="341.52" y2="164.44"/>
		<line class="st0" x1="305.29" y1="132.97" x2="341.52" y2="151.84"/>
		<line class="st0" x1="304.39" y1="120.37" x2="341.52" y2="139.24"/>
		<line class="st0" x1="304.39" y1="108.67" x2="341.52" y2="127.54"/>
		<line class="st0" x1="303.49" y1="96.07" x2="340.62" y2="114.94"/>
		<line class="st0" x1="302.59" y1="82.57" x2="340.62" y2="101.44"/>
		<line class="st0" x1="301.69" y1="69.97" x2="340.62" y2="88.84"/>
		<line class="st0" x1="311.59" y1="258.97" x2="342.42" y2="277.84"/>
	</g>
	<g>
		<line class="st0" x1="364.43" y1="279.34" x2="397.6" y2="259.27"/>
		<line class="st0" x1="364.43" y1="267.64" x2="397.6" y2="247.57"/>
		<line class="st0" x1="364.43" y1="255.94" x2="398.5" y2="235.87"/>
		<line class="st0" x1="364.43" y1="244.24" x2="399.4" y2="224.17"/>
		<line class="st0" x1="364.43" y1="231.64" x2="399.4" y2="212.47"/>
		<line class="st0" x1="364.43" y1="218.14" x2="400.3" y2="198.97"/>
		<line class="st0" x1="366.23" y1="91.24" x2="408.4" y2="70.27"/>
		<line class="st0" x1="366.23" y1="104.74" x2="407.5" y2="83.77"/>
		<line class="st0" x1="366.23" y1="117.34" x2="406.6" y2="96.37"/>
		<line class="st0" x1="366.23" y1="129.94" x2="406.6" y2="108.97"/>
		<line class="st0" x1="365.33" y1="141.64" x2="405.7" y2="120.67"/>
		<line class="st0" x1="365.33" y1="154.24" x2="404.8" y2="133.27"/>
		<line class="st0" x1="365.33" y1="166.84" x2="403.9" y2="145.87"/>
		<line class="st0" x1="365.33" y1="179.44" x2="403.9" y2="158.47"/>
		<line class="st0" x1="365.33" y1="192.04" x2="403" y2="171.07"/>
		<line class="st0" x1="365.33" y1="204.64" x2="402.1" y2="184.57"/>
	</g>
	<polygon class="st0" points="408.93,36.03 398.58,31.24 408.93,26.87 419.27,31.24 	"/>
	<polyline class="st2" points="398.58,31.24 398.58,36.64 409.38,41.14 409.38,35.74 	"/>
	<polygon class="st0" points="344.38,8.74 345.28,15.3 354.48,18.64 363.67,15.3 364.57,8.74 354.48,12.08 	"/>
	<polygon class="st0" points="354.92,12.63 344.57,8.74 354.02,5.27 364.38,8.74 	"/>
	<line class="st2" x1="354.93" y1="12.79" x2="354.93" y2="18.19"/>
	<polygon class="st0" points="313.53,30.79 312.79,37.21 300.93,42.49 300.03,30.79 	"/>
	<polygon class="st0" points="300.03,36.38 286.97,30.34 300.03,24.83 313.08,30.34 	"/>
	<polygon class="st0" points="353.12,59.54 339.62,53.29 353.12,47.59 366.62,53.29 	"/>
	<g>
		<polygon class="st4" points="422.66,140.14 419.64,141.94 420.39,132.04 423.41,130.24 		"/>
		<polygon class="st4" points="430.76,136.54 427.74,138.34 428.49,128.44 431.51,126.64 		"/>
		<polygon class="st4" points="438.86,132.94 435.84,134.74 436.59,124.84 439.61,123.04 		"/>
		<polygon class="st4" points="446.96,129.34 443.94,131.14 444.93,121.69 448.61,119.44 		"/>
		<polygon class="st4" points="455.06,125.74 452.04,127.54 453.69,117.64 456.71,115.84 		"/>
	</g>
	<g>
		<polygon class="st4" points="421.76,159.04 418.74,160.84 419.49,150.94 422.51,149.14 		"/>
		<polygon class="st4" points="429.86,155.44 426.84,157.24 427.59,147.34 430.61,145.54 		"/>
		<polygon class="st4" points="437.96,151.84 434.94,153.64 435.69,143.74 438.71,141.94 		"/>
		<polygon class="st4" points="445.16,148.24 442.14,150.04 443.13,140.59 446.81,138.34 		"/>
		<polygon class="st4" points="453.26,144.64 450.24,146.44 451.89,136.54 454.91,134.74 		"/>
	</g>
	<g>
		<polygon class="st4" points="419.96,177.94 416.94,179.74 417.69,169.84 420.71,168.04 		"/>
		<polygon class="st4" points="428.06,173.44 425.04,175.24 425.79,165.34 428.81,163.54 		"/>
		<polygon class="st4" points="436.16,169.84 433.14,171.64 433.89,161.74 436.91,159.94 		"/>
		<polygon class="st4" points="443.36,166.24 440.34,168.04 441.33,158.59 445.01,156.34 		"/>
		<polygon class="st4" points="451.46,162.64 448.44,164.44 450.09,154.54 453.11,152.74 		"/>
	</g>
	<g>
		<polygon class="st4" points="414.21,248 411.54,249.59 412.2,240.85 414.87,239.26 		"/>
		<polygon class="st4" points="420.51,244.82 417.84,246.41 418.5,237.67 421.18,236.08 		"/>
		<polygon class="st4" points="426.81,241.64 424.14,243.23 424.81,234.49 427.48,232.9 		"/>
		<polygon class="st4" points="433.11,237.56 430.44,239.15 431.31,230.81 434.57,228.82 		"/>
		<polygon class="st4" points="439.41,233.48 436.74,235.07 438.2,226.33 440.88,224.74 		"/>
	</g>
	<g>
		<polygon class="st4" points="416.09,231.76 413.34,233.39 414.02,224.38 416.78,222.74 		"/>
		<polygon class="st4" points="422.58,228.48 419.83,230.12 420.52,221.1 423.27,219.46 		"/>
		<polygon class="st4" points="429.08,225.2 426.32,226.84 427.01,217.83 429.77,216.19 		"/>
		<polygon class="st4" points="435.57,221.02 432.82,222.66 433.72,214.06 437.08,212.01 		"/>
		<polygon class="st4" points="442.07,216.84 439.31,218.48 440.82,209.47 443.58,207.83 		"/>
	</g>
	<g>
		<polygon class="st4" points="417.23,214.51 414.24,216.29 414.99,206.48 417.98,204.69 		"/>
		<polygon class="st4" points="424.31,210.94 421.31,212.72 422.06,202.91 425.06,201.12 		"/>
		<polygon class="st4" points="431.38,207.37 428.38,209.15 429.13,199.34 432.13,197.55 		"/>
		<polygon class="st4" points="438.46,203.8 435.46,205.58 436.44,196.21 440.1,193.98 		"/>
		<polygon class="st4" points="445.53,200.23 442.53,202.01 444.18,192.19 447.18,190.41 		"/>
	</g>
	<g>
		<polygon class="st4" points="419.06,196.39 415.87,198.29 416.67,187.84 419.86,185.94 		"/>
		<polygon class="st4" points="426.6,192.59 423.4,194.49 424.2,184.04 427.39,182.14 		"/>
		<polygon class="st4" points="434.13,188.79 430.93,190.69 431.73,180.24 434.93,178.34 		"/>
		<polygon class="st4" points="441.66,184.99 438.47,186.89 439.51,176.91 443.41,174.54 		"/>
		<polygon class="st4" points="449.19,181.19 446,183.09 447.75,172.64 450.94,170.74 		"/>
	</g>
	<polygon class="st7" points="240.43,184.24 229.83,196.39 284.73,227.89 295.53,215.29 	"/>
	<g>
		<polygon class="st0" points="260.88,165.34 247.38,159.04 244.68,141.04 258.18,147.34 		"/>
		<line class="st0" x1="250.98" y1="144.64" x2="253.47" y2="161.17"/>
	</g>
	<g>
		<polygon class="st0" points="286.08,178.84 270.78,170.74 268.98,152.74 284.28,160.84 		"/>
		<line class="st0" x1="276.18" y1="157.24" x2="277.77" y2="173.77"/>
	</g>
	<g>
		<polygon class="st0" points="257.28,133.84 242.88,126.64 240.18,108.64 254.58,115.84 		"/>
		<line class="st0" x1="247.38" y1="113.14" x2="249.87" y2="129.67"/>
	</g>
	<g>
		<polygon class="st0" points="283.38,146.44 268.08,138.34 266.28,121.24 281.58,128.44 		"/>
		<line class="st0" x1="273.48" y1="125.74" x2="275.07" y2="141.37"/>
	</g>
	<line class="st0" x1="268.02" y1="218.6" x2="271.6" y2="246.07"/>
	<polygon class="st7" points="232.08,170.74 241.08,168.04 296.88,195.04 298.08,214.84 293.28,216.64 237.41,187.42 	"/>
	<line class="st8" x1="232.08" y1="184.24" x2="292.37" y2="215.74"/>
</g>
<g id="右生徒のコピー_13">
	<g id="服のコピー_13_1_">
		<path class="st0" d="M581.28,429.94c0,0-2.7,0.9-18,0s-14.49-4.23-18.95-5.72c-4.45-1.48-5.35,1.22-16.15,1.22
			c-10.8,0-19.8-4.5-26.1,0.9c-6.3,5.4-38.7,27.9-47.7,35.1s-17.1,13.5-21.6,15.3c-4.5,1.8,0.9-2.7-3.6-2.7s-11.7-7.2-13.5-17.1
			c-1.8-9.9-14.4-32.4-17.1-33.3c-2.7-0.9-5.4-1.8-5.4-1.8s-27.9,7.2-30.6,9c-2.7,1.8-1.8,1.8,0.9,9c2.7,7.2,9,14.4,12.6,28.8
			c2.84,11.35,3.95,17.03,8.1,27c4.5,10.8,10.51,20.12,13.5,27c3.08,7.1,8.1,8.1,12.6,7.2c4.5-0.9,18.9-4.5,22.5-5.4s4.5,0,13.5-2.7
			s17.1-5.4,17.1-5.4s-6.3,13.5-10.8,18.9c-4.5,5.4-28.8,44.1-31.5,45c-2.7,0.9-9,0-10.8,2.7s-2.7,6.3-2.7,6.3s1.8,27.9,8.1,33.3
			c6.3,5.4,8.1,7.2,8.1,7.2s9-1.8,26.1-6.3s54-7.2,66.6-9.9c12.6-2.7,38.7-0.9,46.8-5.4s9.9,0,13.5-11.7s12.6-34.2,18-42.3
			c5.4-8.1,9.9-20.7,12.6-30.6c2.7-9.9,19.8-32.4,12.6-50.4s-9.9-36-18-39.6C593.88,429.94,581.28,429.94,581.28,429.94z"/>
		<path class="st2" d="M421.98,580.24c0,0,62.1-11.7,69.3-11.7s24.3-8.1,31.5-8.1s19.8-18,22.5-21.6c2.7-3.6,9-24.3,9-24.3"/>
	</g>
	<g id="顔のコピー_13_1_">
		<path class="st0" d="M547.98,320.13c0,0-16.61,18.31-20.9,26.9c-4.29,8.59-9.3,22.19-8.59,37.93c0.72,15.74,2.86,17.18,5.73,20.04
			c2.86,2.86,13.6,4.29,15.74,5.01c2.15,0.72,1.43,5.01,1.43,9.3c0,4.29-5.73,10.74-12.17,11.45c-6.44,0.72-2.15,17.18,2.86,19.32
			c4.05,1.74,20.29-1.68,30.89-4.56c2.5-0.68,4.69-1.33,6.33-1.88c8.59-2.86,12.17-6.44,12.17-6.44s-3.58-4.29-4.29-7.87
			c-0.72-3.58-5.73-21.46-4.29-25.75c1.43-4.29,23.62-14.32,23.62-14.32v-24.33L547.98,320.13z"/>
	</g>
	<g id="髪のコピー_13_1_">
		<path class="st0" d="M547.83,324.13c0,0,0,10.02,3.58,17.89s5.73,12.88,7.16,13.6c1.43,0.72-1.43-7.16-2.15-15.74
			c-0.72-8.59,1.43,4.29,7.87,12.88c6.44,8.59,10.02,15.74,8.59,23.62c-1.43,7.87-4.29,10.74-4.29,10.74s3.58,1.43,7.16-7.16
			c3.58-8.59,4.29-9.3,7.87-9.3c3.58,0,8.59,0.72,6.44,5.01s-5.73,10.02-9.3,10.02c-3.58,0-9.3,8.59-9.3,17.89
			c0,2.95,3.58,17.18,3.58,17.18c-0.32-0.32,2.15-4.29,3.58-9.3c1.69-5.92,9.3-12.17,14.31-13.6s18.61-9.3,20.04-19.32
			c1.43-10.02,1.43-40.08-7.87-48.67c-9.3-8.59-34.35-20.75-45.09-17.18c-10.74,3.58-9.3,0.72-12.17,2.15s-21.47,12.17-25.05,35.07
			c-0.89,5.7,0,8.28,0.54,6.15C525.65,347.03,545.68,326.82,547.83,324.13z"/>
	</g>
	<g id="右手のコピー_13_1_">
		<g>
			<path class="st0" d="M372.34,433.15c0,0,5.14,1.29,6.43,1.29c1.29,0,5.14-1.29,8.36-3.21c3.21-1.93,3.21-1.29,3.21-1.93
				s0-4.5,0-8.36c0-3.86-0.64-18-2.57-23.15s-1.93-10.29-6.43-14.15c-4.5-3.86-6.43-6.43-9.64-9s-7.07-7.72-9-5.14
				c-1.93,2.57-1.93,4.5,0,6.43c1.93,1.93,6.43,5.79,7.07,7.72c0.64,1.93,2.57,4.5-2.57,3.21c-5.14-1.29-12.22-3.86-17.36-5.14
				c-5.14-1.29-12.22-5.14-15.43-5.79c-3.21-0.64-6.43,0-5.79,2.57c0.64,2.57,2.25,3,0.64,1.93c-1.93-1.29-4.5-0.64-5.14,1.29
				s0,3.86,1.93,4.5c1.93,0.64,1.29,1.93,0,1.93c-1.29,0-1.93,0.64-1.93,2.57c0,1.44,0,1.29,2.57,3.21
				c2.57,1.93,0.64,1.93,0.64,1.93s-2.57,1.29-0.64,3.21c1.93,1.93,5.14,7.72,10.29,9c5.14,1.29,8.36,3.86,12.22,5.79
				c3.86,1.93,3.86,6.43,9,9c5.14,2.57,8.36,4.5,9.64,5.14C369.12,428.65,371.7,431.22,372.34,433.15z"/>
			<path class="st2" d="M329.26,380.43c0,0,1.93,1.93,5.14,3.21c3.21,1.29,11.57,4.5,12.86,4.5"/>
			<path class="st2" d="M327.18,386.97c0,0,1.44,1.18,3.37,1.82c1.93,0.64,8.36,4.5,10.29,5.14c1.93,0.64,7.07,2.57,7.07,2.57"/>
			<path class="st2" d="M327.95,395.27c0,0,2.6,1.88,5.17,3.17c2.57,1.29,4.5,2.57,7.07,3.21c2.57,0.64,3.21,1.93,5.14,2.57"/>
			<path class="st2" d="M370.55,386.77c0,0-0.14-1.19-0.14,2.66c0,3.86-5.14,7.72-3.21,12.86"/>
		</g>
	</g>
	<g id="左手のコピー_13_1_">
		<g>
			<path class="st0" d="M410.6,590.25c-3.02-1.01-12.32-2.43-19.46-1.91s-25.97,0.98-29.61,1.44c-5.91,0.76-6.88,5.69-1.7,8.63
				c3.28,1.86,14.09-0.66,15.82,0.32c1.73,0.98,0.49,0.74-5.15,6.67c-5.65,5.93-7.61,9.38-12.03,12.35
				c-4.42,2.97-14.27,4.23-16.97,8.18c-2.7,3.95,0.26,5.17,3.71,3.93c1.41-0.51,4.86-0.8,5.91-0.76c1.73,0.07-6.15,1.99-6.39,3.22
				c-1.15,5.85,6.41,3.18,11.83,1.69c5.41-1.49-3.94,0.5-1.46,4.19c1.98,2.95,11.82-1.51,15.76-2.02c3.94-0.5-13.28,5.71-5.89,7.16
				c4.36,0.86,9.85-1.26,17.72-5.47c7.87-4.21,15.98-9.65,24.33-16.33s11.38-6.2,14.84-8.35
				C419.59,605.06,416.73,592.29,410.6,590.25z"/>
			<path class="st2" d="M351.11,629.1c0,0,8.12-2.24,9.6-3.23c1.47-0.99,4.18-1.74,4.18-1.74"/>
			<path class="st2" d="M358.27,633.39c0,0,4.92-0.63,6.4-1.62c1.47-0.99,7.37-4.95,8.11-5.44"/>
			<line class="st0" x1="378.9" y1="632.26" x2="371.77" y2="635.98"/>
		</g>
	</g>
</g>
<g id="左生徒のコピー_13">
	<g id="服のコピー_13">
		<g>
			<path class="st0" d="M128.58,429.94c0,0,2.7,0.9,18,0s14.49-4.23,18.95-5.72c4.45-1.48,5.35,1.22,16.15,1.22
				c10.8,0,19.8-4.5,26.1,0.9s27,6.3,36,13.5c9,7.2,24.09,21.18,26.1,25.2c4.5,9,20.7,66.6,20.7,66.6s-1.8,25.2-8.1,30.6
				c-6.3,5.4-32.4-16.2-32.4-16.2s-6.9,20.24-24.3,23.4c-9.9,1.8-18.9,11.7-27.9,15.3c-11.96,4.79-48.6,24.3-56.7,19.8
				c-8.1-4.5-9.9,0-13.5-11.7c-3.6-11.7-7.2-30.6-12.6-38.7c-5.4-8.1-9.9-20.7-12.6-30.6c-2.7-9.9-19.8-32.4-12.6-50.4
				c7.2-18,9.9-36,18-39.6S128.58,429.94,128.58,429.94z"/>
			<path class="st2" d="M160.98,552.34c0,0,0.9,0,0-3.6c-0.9-3.6-7.2-19.8-12.6-31.5c-5.4-11.7-9-25.2-9-25.2"/>
			<path class="st2" d="M228.48,568.54c0,0-2.7-0.9-4.5-4.5c-1.8-3.6-3.43-16.16-2.7-19.8c0.9-4.5,2.7-8.1,0.9-8.1
				c-1.8,0-24.3,1.8-28.8,3.6s-17.1,7.2-27.9,10.8c-10.8,3.6-24.3,11.7-24.3,11.7"/>
			<path class="st2" d="M134.88,554.14c0,0,2.7,0,7.2-1.8c4.5-1.8,16.2-2.7,18-2.7s1.8,0.9,1.8,0.9"/>
		</g>
	</g>
	<g id="右手のコピー_13">
		<path class="st0" d="M221.5,543.38c0,0,1.7-0.7,5.18-3.48c3.48-2.79,7.66-11.14,9.05-13.23c1.39-2.09,17.41-20.89,20.2-22.29
			c2.79-1.39,6.96-4.88,9.05-6.96c2.09-2.09,4.88-4.88,5.57-3.48c0.7,1.39,2.09,4.88-2.09,9.05c-4.18,4.18-5.57,4.88-6.96,6.27
			c-1.39,1.39-0.7,2.09-0.7,2.09s3.48-3.48,5.57-4.18c2.09-0.7,6.96-0.7,7.66-0.7c0.7,0,4.88,2.09,2.09,3.48
			c-2.79,1.39-6.96,3.48-8.36,4.88c-1.39,1.39-12.54,20.2-14.63,25.07c-2.09,4.88-3.66,14.32-5.66,17.96
			c-2,3.63-9.01,11.6-13.47,11.6s-8.73-1-11.51-10.05C219.71,550.34,221.5,543.38,221.5,543.38z"/>
	</g>
	<g id="左腕のコピー_12">
		<path class="st0" d="M282.48,523.54c0,0-9.89-17.19-11.69-18.95c-1.81-1.75-18.91-17.95-20.71-21.55s-18.9-28.8-19.8-31.5
			c-0.9-2.7-5.4-0.9-9.9,1.8c-4.5,2.7,1.8,12.6-7.2,7.2c-4.46-2.68-9.9,10.8-4.5,13.5c0,0,15.3,27,18.9,32.4
			c3.6,5.4,16.2,36,26.1,42.3"/>
	</g>
	<g id="奥の髪のコピー_12">
		<path class="st0" d="M196.98,392.14c0,0-5.8,7.63-5.25,14.23c0.68,8.1,6.96,7.61,4.1,17.24c-2.9,9.79-19.2,12.24-24.88,5.09
			c-10.5-13.22,0.9-34.59,0.9-34.59L196.98,392.14z"/>
	</g>
	<g id="顔のコピー_13">
		<path class="st0" d="M183.2,319.71c0,0,17.03,16.16,20.41,25.15c3.38,8.99,6.96,23.03,4.62,38.62
			c-2.34,15.59-4.63,16.79-7.77,19.34s-13.97,2.86-16.18,3.35s-1.94,4.83-2.39,9.11s4.58,11.27,10.92,12.65
			c6.33,1.38,0.36,17.31-4.85,18.92s-28.1-6.52-36.35-10.26c-8.25-3.74-11.43-7.67-11.43-7.67s4-3.9,5.09-7.39
			c1.08-3.49,7.4-15.78,6.42-20.2c-0.98-4.42-21.49-21.66-21.49-21.66l2.52-24.2L183.2,319.71z"/>
	</g>
	<g id="左手のコピー_13">
		<g>
			<path class="st0" d="M227.43,448.38c-1.67-3.33-4.81-9.73-6.69-13.18s-8.39-15.19-8.6-23.25c-0.21-8.06-1.74-8.62-1.61-13.78
				c0.13-5.16,2.52-9.85-1.1-9.43s-5.51,5.59-4.98,15.18c0.53,9.6,0.48,15.48,0.82,18.38c0.34,2.9,0.73-0.08-1.37,0.89
				c-2.09,0.98-5.55,2.85-9.81,4.09c-4.27,1.23-9.26,2.55-8.19,5.37c1.06,2.82,1.23,4.27,1.23,4.27s-2.26-0.47-1.11,3.07
				c1.15,3.54,3.33,3.29,3.33,3.29s-2.26-0.47-2.01,1.71c0.25,2.18,2.13,5.63,9.08,8.49c6.95,2.86,7.38,6.49,10.62,9.05
				s9.08,8.49,16.89,6.11S231.27,456.02,227.43,448.38z"/>
			<path class="st2" d="M187.15,436.9c0,0,3.85-1.4,7.13-1.97c2.72-0.48,6.37,0.42,7.36,0.3"/>
			<path class="st2" d="M189.34,443.28c0,0,3.07,1.11,6.7,0.69c3.63-0.42,3.97,2.48,5.42,2.31"/>
		</g>
	</g>
	<g id="髪のコピー_13">
		<path class="st0" d="M171.11,327.93c0,0-7.42,11.21-12.82,20.49c-6.03,10.36-3.88,12.91-3.27,20.89
			c0.61,7.98,3.16,11.12,3.16,11.12s-3.71,1.05-6.38-7.86c-2.67-8.91-3.31-9.7-6.87-10.07c-3.56-0.37-8.62-0.18-6.93,4.32
			c1.69,4.49,4.66,10.56,8.22,10.93s8.36,9.51,7.4,18.76c-0.31,2.93,0.12,6.03-1.05,16.71c-1.17,10.68-7.17,23.54-21.74,19.25
			c-6.07-1.78-15.09-2.46-19.29-0.56c-4.19,1.91-7.07,5.27-7.28,3.98c-5.14-31.71,22.28-28.28,21.42-48.84
			c-0.22-5.21-4.81-9.45-8.57-18.85c-6.86-17.14,0.53-40.92,10.67-48.5c10.14-7.58,36.32-17.09,46.62-12.42
			c10.31,4.67,9.18,1.68,11.88,3.4c2.7,1.72,21.19,13.31,22.38,36.46c0.3,5.76-0.59,9.14-1.37,7.08
			c-1.33-3.48-3.33-2.58-20.47-12.07C177.74,337.12,172.11,329.49,171.11,327.93z"/>
	</g>
</g>
</svg>
