<?xml version="1.0" encoding="utf-8"?>
<!-- Generator: Adobe Illustrator 24.1.0, SVG Export Plug-In . SVG Version: 6.00 Build 0)  -->
<svg version="1.1" id="_x32__x5F_90_x25_主線_x5F_微調整_x5F_1pt_x5F_0327のコピー_5"
	 xmlns="http://www.w3.org/2000/svg" xmlns:xlink="http://www.w3.org/1999/xlink" x="0px" y="0px" viewBox="0 0 530 387"
	 style="enable-background:new 0 0 530 387;" xml:space="preserve">
<style type="text/css">
	.st0{fill:#FFFFFF;stroke:#333333;stroke-linecap:round;stroke-linejoin:round;stroke-miterlimit:10;}
	.st1{fill:none;stroke:#333333;stroke-linecap:round;stroke-linejoin:round;stroke-miterlimit:10;}
	.st2{fill:#333333;stroke:#333333;stroke-width:0.3;stroke-linecap:round;stroke-linejoin:round;stroke-miterlimit:10;}
	.st3{opacity:0.5;fill:#FFFFFF;}
	.st4{clip-path:url(#SVGID_2_);fill:#FFFFFF;stroke:#333333;stroke-linecap:round;stroke-linejoin:round;stroke-miterlimit:10;}
	.st5{clip-path:url(#SVGID_4_);fill:#FFFFFF;stroke:#333333;stroke-linecap:round;stroke-linejoin:round;stroke-miterlimit:10;}
	.st6{fill:#333333;}
	.st7{fill:#FFFFFF;}
	.st8{clip-path:url(#SVGID_6_);fill:#FFFFFF;stroke:#333333;stroke-linecap:round;stroke-linejoin:round;stroke-miterlimit:10;}
	.st9{clip-path:url(#SVGID_8_);fill:#FFFFFF;stroke:#333333;stroke-linecap:round;stroke-linejoin:round;stroke-miterlimit:10;}
	.st10{clip-path:url(#SVGID_8_);}
	.st11{clip-path:url(#SVGID_10_);}
	.st12{fill:#F6EDC0;stroke:#333333;stroke-linecap:round;stroke-linejoin:round;stroke-miterlimit:10;}
	.st13{fill:#FFFFFF;stroke:#333333;stroke-miterlimit:10;}
	.st14{fill:#FFFFFF;stroke:#333333;stroke-width:0.9;stroke-linecap:round;stroke-linejoin:round;stroke-miterlimit:10;}
	.st15{fill:none;stroke:#333333;stroke-miterlimit:10;}
	.st16{fill:#FFFFFF;stroke:#333333;stroke-linecap:round;stroke-miterlimit:10;}
	.st17{fill:#005C92;stroke:#005C92;stroke-width:0.9;stroke-linecap:round;stroke-linejoin:round;stroke-miterlimit:10;}
	.st18{fill:#005C92;stroke:#333333;stroke-width:1.35;stroke-miterlimit:10;}
	.st19{fill:#005C92;stroke:#333333;stroke-miterlimit:10;}
	.st20{fill:#005C92;stroke:#333333;stroke-linecap:round;stroke-linejoin:round;stroke-miterlimit:10;}
	.st21{fill:#333333;stroke:#333333;stroke-linecap:round;stroke-linejoin:round;stroke-miterlimit:10;}
	.st22{display:none;fill:none;stroke:#333333;stroke-linecap:round;stroke-linejoin:round;stroke-miterlimit:10;}
</style>
<g id="資料のコピー_12">
	<g id="_x32_のコピー_12">
		<path class="st0" d="M287.91,45.37l-29.43,147.95c0,0,55.13,1.93,71.47,3.6s53.56,5.63,56.26,5.46c2.69-0.17,5.11-4.83,4.82-9.32
			c-0.28-4.49,32.24-131.9,32.92-135.55s-5.9-7.74-12.3-9.14s-100.72-9.87-112.23-6.43S287.91,45.37,287.91,45.37z"/>
		<g>
			<path class="st1" d="M324.33,85.13c0,0,8.05-0.9,13.52-0.61c5.47,0.29,12.04,2.36,16.51,1.86c4.47-0.5,16.57,2.43,18.37,2.53
				c1.82,0.11,10.15,1.36,14.72,1.75c4.57,0.39,8.46,2.76,8.46,2.76"/>
			<path class="st1" d="M393.91,102.71c0,0-7.62-2.74-13.01-3.72s-12.26-0.49-16.49-2.01s-16.68-1.47-18.45-1.79
				c-1.79-0.32-10.18-1.03-14.72-1.7c-4.54-0.67-8.87,0.73-8.87,0.73"/>
			<path class="st1" d="M320.43,103.51c0,0,8.05-0.9,13.52-0.61c5.47,0.29,12.04,2.36,16.51,1.86c4.47-0.5,16.57,2.43,18.37,2.53
				c1.82,0.11,10.15,1.36,14.72,1.75c4.57,0.39,8.46,2.76,8.46,2.76"/>
			<path class="st1" d="M390.01,121.21c0,0-7.61-2.77-13-3.76c-5.38-1-12.25-0.53-16.48-2.07c-4.23-1.54-16.68-1.53-18.45-1.85
				c-1.79-0.32-10.18-1.06-14.72-1.75c-4.54-0.69-8.87,0.7-8.87,0.7"/>
			<path class="st1" d="M316.52,121.88c0,0,8.05-0.9,13.52-0.61c5.47,0.29,12.04,2.36,16.51,1.86c4.47-0.5,16.57,2.43,18.37,2.53
				c1.82,0.11,10.15,1.36,14.72,1.75c4.57,0.39,8.46,2.76,8.46,2.76"/>
			<path class="st1" d="M386.23,138.44c0,0-7.7-2.52-13.11-3.35s-12.26-0.14-16.54-1.54c-4.28-1.4-16.72-1-18.5-1.26
				c-1.8-0.27-10.21-0.74-14.77-1.28s-8.84,0.98-8.84,0.98"/>
			<path class="st1" d="M312.61,140.25c0,0,8.05-0.9,13.52-0.61c5.47,0.29,12.04,2.36,16.51,1.86c4.47-0.5,16.57,2.43,18.37,2.53
				c1.82,0.11,10.15,1.36,14.72,1.75c4.57,0.39,8.46,2.76,8.46,2.76"/>
			<path class="st1" d="M310.66,149.44c0,0,8.05-0.9,13.52-0.61s12.04,2.36,16.51,1.86c4.47-0.5,16.57,2.43,18.37,2.53
				c1.82,0.11,10.15,1.36,14.72,1.75c4.57,0.39,9.36,1.86,9.36,1.86"/>
			<path class="st1" d="M308.71,158.62c0,0,8.05-0.9,13.52-0.61c5.47,0.29,12.04,2.36,16.51,1.86c4.47-0.5,16.57,2.43,18.37,2.53
				c1.82,0.11,10.15,1.36,14.72,1.75s9.36,1.86,9.36,1.86"/>
			<path class="st1" d="M306.75,167.81c0,0,8.05-0.9,13.52-0.61c5.47,0.29,12.04,2.36,16.51,1.86c4.47-0.5,16.57,2.43,18.37,2.53
				c1.82,0.11,10.15,1.36,14.72,1.75c4.57,0.39,9.36,2.76,9.36,2.76"/>
			<path class="st1" d="M304.8,177c0,0,8.05-0.9,13.52-0.61c5.47,0.29,12.04,2.36,16.51,1.86c4.47-0.5,16.57,2.43,18.37,2.53
				c1.82,0.11,10.15,1.36,14.72,1.75c4.57,0.39,10.26,2.76,10.26,2.76"/>
		</g>
		<g>
			<path class="st2" d="M333.19,55.54c0,0-2.53,18.97-1.6,19.74s2.25-10.19,2.56-11.91c0.5-2.71,6.44,11.58,7.37,12.34
				c0.93,0.77,2.39-14.43,2.89-17.14s-2.61-1.39-2.5-0.52s-1.47,8.96-1.47,8.96S336.69,56.88,333.19,55.54z"/>
			<path class="st2" d="M348.01,57.17c-1.45,2.09-3.47,18.72-1.82,18.59c1.65-0.13,6.74,1.23,7.43-0.58
				c0.69-1.81-4.13,0.32-4.4-3.17c-0.27-3.5-0.22-3.52,2.26-3.72c2.48-0.19,3.44,1.49,3.17-2.01c-0.15-1.95-6.46,2.23-5.99-1.35
				c0.42-3.2,0.49-5.26,2.14-5.39c1.65-0.13,4.66,1.54,4.87-0.38C355.82,57.76,348.53,56.42,348.01,57.17z"/>
			<path class="st2" d="M357.74,58.88c-1.66,0.06-0.08,15.72,1.71,18.6c1.8,2.88,2.8-10.91,3.58-11.92
				c0.78-1.01,1.39,11.73,3.04,11.67c1.66-0.06,5.1-14.93,3.35-16.83c-1.75-1.9-2.85,9.93-2.85,9.93s-3.09-12.65-3.82-10.66
				c-0.74,1.99-2.02,9.9-2.02,9.9S359.39,58.82,357.74,58.88z"/>
			<path class="st2" d="M381.86,63.65c0.39-3.58-10.73-5.74-9.87,1.22c0.68,5.5,8.16,6.1,6.94,9.79s-5.19-0.73-5.97-1.03
				c-1.75-0.67-4.72,2.35,1.47,5.12c5.15,2.31,10.97-5.77,5.61-8.64c-5.36-2.87-6.62-7.18-2.4-6.82
				C379.49,63.45,380.22,63.85,381.86,63.65z"/>
		</g>
	</g>
	<g id="_x31_のコピー_12">
		<path class="st0" d="M15.67,59.04c3.12,6.11,40.21,101.94,45.12,121.46S75,230.96,76.14,234.49c1.14,3.53,9.04,0.3,16.16-1.08
			c7.12-1.38,130.32-20.46,146.55-20.64s78.18-4.34,94.29-6.32c16.1-1.98,24.25-1.62,24.25-1.62s-2.64-25.98-6.96-50.05
			c-4.32-24.07-15.93-74.5-19.55-89.79C327.1,49,319.96,9.79,316.13,6.43c-3.83-3.35-44.93,1.59-67.41,3.61
			C209.27,13.59,18.6,48.92,15.19,51.85C11.78,54.79,15.67,59.04,15.67,59.04z"/>
		<path class="st3" d="M196.16,31.84c0.7,1.24,7.25,31.75,8.44,35.76c1.19,4.01,3.38,10.34,3.65,11.07
			c0.27,0.72,1.88-0.02,3.34-0.37s28.7-5.07,32.02-5.68c4.07-0.74,16.13-2.28,19.46-2.83s6.91-1.58,6.91-1.58s-1.43-4.62-2.53-9.57
			c-1.1-4.95-8.42-37.17-9.25-37.83c-0.82-0.66-9.31,0.72-13.95,1.34c-8.15,1.08-47.56,7.56-48.25,8.2
			C195.32,30.99,196.16,31.84,196.16,31.84z"/>
		<g id="_x30_1mapのコピー_12">
		</g>
		<g id="_x31_mapのコピー_12">
			<g>
				<defs>
					<path id="SVGID_1_" d="M28.29,65.32c1.79,3.17,23.58,53.17,26.62,63.41c3.04,10.24,8.65,26.45,9.34,28.29
						c0.68,1.85,4.8-0.04,8.55-0.93c3.75-0.89,68.79-12.65,77.26-14.2c10.4-1.9,41.25-5.83,49.74-7.24s15.52-1.58,15.52-1.58
						s-3.65-11.8-6.48-24.47s-11-39.09-13.26-47.12c-2.36-8.39-6.89-27.23-9-28.92c-2.11-1.69-23.79,1.84-35.67,3.41
						C130.07,38.72,29.62,59.89,27.88,61.53C26.13,63.16,28.29,65.32,28.29,65.32z"/>
				</defs>
				<clipPath id="SVGID_2_">
					<use xlink:href="#SVGID_1_"  style="overflow:visible;"/>
				</clipPath>
				<path class="st4" d="M213.79,114.77c0,0-2.69,0.18-4.49,0.3s-4.55-0.6-6.47-2.27c-1.92-1.68-2.81-1.62-5.57-2.33
					c-2.75-0.72-3.77-2.45-5.39,0.36c-1.62,2.81-6.29,0.42-7,3.18c-0.72,2.75-0.42,7.24-3.11,7.42c-2.69,0.18-4.97,6.65-7.96,2.34
					c-2.99-4.31-6.11-10.41-7.91-10.29c-1.8,0.12-6.47-2.27-6.65-4.97c-0.18-2.69,2.21-7.36,2.21-7.36s0.66-3.65,3.35-3.83
					s5.03-5.75,5.03-5.75s2.63-1.08,3.47-2.04c0.84-0.96,0.48-6.35,2.21-7.36c1.74-1.02,3.47-2.04,5.27-2.16
					c1.8-0.12,1.92,1.68,1.98,2.57s-4.31,2.99-2.39,4.67c1.92,1.68,1.98,2.57,4.67,2.39c2.69-0.18,6.11-3.12,5.99-4.91
					c-0.12-1.8,0.78-1.86-1.2-4.43c-1.98-2.57-1.32-6.23,0.54-5.45s5.69,4.13,6.59,4.07c0.9-0.06,8.38,3.95,8.5,5.74
					C205.58,86.45,213.79,114.77,213.79,114.77z"/>
			</g>
			<g>
				<path class="st0" d="M170.93,70.6c-2.65-2.39-2.03-5.32-0.19-4.5S170.93,70.6,170.93,70.6z"/>
				<path class="st0" d="M174.43,64.67c0,0-3.31,1.17-2.95-0.6c0.36-1.76,2.93-3.08,3.67-2.93s3.28-4.85,4.02-4.7
					s0.03,3.68,0.59,4.71c0.56,1.03,0.2,2.8-0.53,2.65C178.48,63.66,174.43,64.67,174.43,64.67z"/>
				<path class="st0" d="M183.72,53.81c-3.48,2.85-5.36,1.13-3.64-0.75C181.81,51.19,183.72,53.81,183.72,53.81z"/>
			</g>
			<g>
				<defs>
					<path id="SVGID_3_" d="M28.29,65.32c1.79,3.17,23.58,53.17,26.62,63.41c3.04,10.24,8.65,26.45,9.34,28.29
						c0.68,1.85,4.8-0.04,8.55-0.93c3.75-0.89,68.79-12.65,77.26-14.2c10.4-1.9,41.25-5.83,49.74-7.24s15.52-1.58,15.52-1.58
						s-3.65-11.8-6.48-24.47s-11-39.09-13.26-47.12c-2.36-8.39-6.89-27.23-9-28.92c-2.11-1.69-23.79,1.84-35.67,3.41
						C130.07,38.72,29.62,59.89,27.88,61.53C26.13,63.16,28.29,65.32,28.29,65.32z"/>
				</defs>
				<clipPath id="SVGID_4_">
					<use xlink:href="#SVGID_3_"  style="overflow:visible;"/>
				</clipPath>
				<path class="st5" d="M184.67,30.13c0,0-125.06,18.3-124.88,21c0.18,2.69-2.21,7.36,0.6,8.98c2.81,1.62,1.2,4.43-0.66,3.65
					c-1.86-0.78-6.47-2.27-7.36-2.21c-0.9,0.06-5.39,0.36-4.37,2.1c1.02,1.74,2.93,3.41,4.73,3.29c1.8-0.12,1.2,4.43,0.3,4.49
					c-0.9,0.06-4.43,1.2-4.31,2.99c0.12,1.8-4.19,4.79-1.37,6.41c2.81,1.62,3.65,0.66,3.83,3.35c0.18,2.69,1.07,1.16,2.81,1.62
					c2.75,0.72,4.55,0.6,4.37-2.1c-0.18-2.69,2.39-4.67,2.39-4.67s0.96,0.84,2.75,0.72s6.17-2.22,6.11-3.12
					c-0.06-0.9,0.72-2.75,0.42-7.24c-0.3-4.49,1.14,3.53,2.93,3.41s5.33-1.26,5.21-3.05c-0.12-1.8,4.31-2.99,5.33-1.26
					c1.02,1.74-1.37,6.41-3.29,4.73c-1.92-1.68-4.43,1.2-4.31,2.99s0.42,6.29-1.37,6.41c-1.8,0.12-2.87-2.51-5.51-1.43
					c-2.63,1.08-7,3.18-6.88,4.97c0.12,1.8,0.18,2.69,1.2,4.43c1.02,1.74-0.72,2.75-1.56,3.71c-0.84,0.96-0.84,0.96-0.6,4.55
					c0.24,3.59,1.2,4.43,1.44,8.02c0.24,3.59-2.21,7.36-2.09,9.16c0.12,1.8,1.73,5.6,4.07,6.94c2.81,1.62,6.29-0.42,8.14,0.36
					c1.86,0.78,6.41,1.37,6.59,4.07c0.18,2.69,3.05,5.21,3.95,5.15c0.9-0.06,1.14,3.53,2.16,5.27c1.02,1.74,5.57,2.33,5.63,3.23
					c0.06,0.9,1.26,5.33,3.05,5.21c1.8-0.12,4.97-6.65,5.8-7.61c0.84-0.96,4.49-0.3,4.31-2.99c-0.18-2.69,1.5-4.61-0.6-8.98
					c-2.1-4.37-4.25-9.64-0.96-14.37c3.29-4.73,4.25-3.89,1.31-7.3c-2.93-3.41,1.62-2.81,1.31-7.3c-0.09-1.41-1.87-6.92-3.57-9.05
					c-1.24-1.56-2.33,0.34-3.25-1.36c-1.81-3.35-1.49-7.07-0.67-7.13c0.76-0.05,2.47-1.55,5.3-2.1c3.85-0.74,9.15,2.28,9.25,3.83
					c0.18,2.69,1.26,5.33,3.05,5.21c1.8-0.12,1.98,2.57,2.99,4.31c1.02,1.74,4.79,4.19,4.67,2.39c-0.12-1.8,0.6-4.55-0.42-6.29
					s-1.26-5.33,0.54-5.45c1.8-0.12,3.41-2.93,4.19-4.79c0.78-1.86,2.22,6.17,4.91,5.99c2.69-0.18,2.93,3.41,4.79,4.19
					c1.86,0.78,3.77,2.45,5.51,1.43c1.74-1.02,3.47-2.04,3.35-3.83c-0.12-1.8-2.04-3.47-0.36-5.39c1.68-1.92,2.39-4.67,3.29-4.73
					c0.9-0.06,4.43-1.2,5.27-2.16c0.84-0.96,0.78-1.86,3.47-2.04c2.69-0.18,6.17-2.22,6.05-4.01c-0.12-1.8-0.3-4.49,1.31-7.3
					c1.62-2.81,2.63-1.08,4.31-2.99c1.78-2.03,2.45-3.77,4.19-4.79c1.74-1.02,5.33-1.26,5.27-2.16c-0.06-0.9,4.37-2.1,4.13-5.69
					s0.78-1.86,2.27-6.47C186.64,32.7,184.67,30.13,184.67,30.13z"/>
			</g>
			<path class="st1" d="M28.29,65.32c1.79,3.17,23.58,53.17,26.62,63.41c3.04,10.24,8.65,26.45,9.34,28.29
				c0.68,1.85,4.8-0.04,8.55-0.93c3.75-0.89,68.79-12.65,77.26-14.2c10.4-1.9,41.25-5.83,49.74-7.24s15.52-1.58,15.52-1.58
				s-3.65-11.8-6.48-24.47s-11-39.09-13.26-47.12c-2.36-8.39-6.89-27.23-9-28.92c-2.11-1.69-23.79,1.84-35.67,3.41
				C130.07,38.72,29.62,59.89,27.88,61.53C26.13,63.16,28.29,65.32,28.29,65.32z"/>
		</g>
		<g id="_x32_mapのコピー_12">
			<g>
				<path class="st6" d="M104.15,182.28c1.77,3.84-1.11,15.87-1.11,15.87s-11.02-5.63-12.79-9.47c-1.77-3.84-0.09-8.38,3.75-10.15
					C97.84,176.76,102.39,178.44,104.15,182.28z"/>
				<circle class="st7" cx="97.39" cy="185.89" r="2.7"/>
			</g>
			<g>
				<defs>
					<path id="SVGID_5_" d="M67.66,168.22c1.79,3.17,15.69,53.28,16.37,55.13c0.68,1.85,7.49-0.22,11.24-1.11
						c3.75-0.89,68.91-10.86,77.38-12.41c10.4-1.9,41.31-4.93,49.8-6.34c8.5-1.41,11.92-1.34,11.92-1.34s-5.85-24.65-8.11-32.68
						c-2.36-8.39-6.89-27.23-9-28.92c-2.11-1.69-23.79,1.84-35.67,3.41c-20.84,2.76-112.61,18.84-114.35,20.47
						C65.5,166.06,67.66,168.22,67.66,168.22z"/>
				</defs>
				<clipPath id="SVGID_6_">
					<use xlink:href="#SVGID_5_"  style="overflow:visible;"/>
				</clipPath>
				<path class="st8" d="M78.76,213.12c0,0,0.72,10.78,3.36,9.7c2.63-1.08,5.92-5.81,18.2-11.14s19.27-8.51,21.25-5.93
					c1.98,2.57,8.09,12.99,8.15,13.89c0.06,0.9,7.36,2.21,7.18-0.48c-0.18-2.69-8.15-13.89-10.12-16.46
					c-1.98-2.57-1.78-2.41,4.49-8.33c6.28-5.92,42.07-23.66,47.82-18.63c5.75,5.03,27.07,27.05,30,30.46
					c2.93,3.41,10.78-0.72,10.78-0.72s-21.02-17.53-25.09-24.48c-4.07-6.94-8.74-9.34,4.07-6.59s34.01,9.45,34.01,9.45l-2.58-11.55
					c0,0-35.92-11.12-39.52-10.88c-3.59,0.24-44.9,3.01-44.9,3.01s-19.09,24.73-32.08,32.82
					C100.79,205.33,78.76,213.12,78.76,213.12z"/>
			</g>
			<path class="st1" d="M67.66,168.22c1.79,3.17,15.69,53.28,16.37,55.13c0.68,1.85,7.49-0.22,11.24-1.11
				c3.75-0.89,68.91-10.86,77.38-12.41c10.4-1.9,41.31-4.93,49.8-6.34c8.5-1.41,11.92-1.34,11.92-1.34s-5.85-24.65-8.11-32.68
				c-2.36-8.39-6.89-27.23-9-28.92c-2.11-1.69-23.79,1.84-35.67,3.41c-20.84,2.76-112.61,18.84-114.35,20.47
				C65.5,166.06,67.66,168.22,67.66,168.22z"/>
		</g>
		<g id="_x33_photoのコピー_12">
			<g>
				<defs>
					<path id="SVGID_7_" d="M196.16,31.84c0.7,1.24,7.25,31.75,8.44,35.76c1.19,4.01,3.38,10.34,3.65,11.07
						c0.27,0.72,1.88-0.02,3.34-0.37s28.7-5.07,32.02-5.68c4.07-0.74,16.13-2.28,19.46-2.83s6.91-1.58,6.91-1.58
						s-1.43-4.62-2.53-9.57c-1.1-4.95-8.42-37.17-9.25-37.83c-0.82-0.66-9.31,0.72-13.95,1.34c-8.15,1.08-47.56,7.56-48.25,8.2
						C195.32,30.99,196.16,31.84,196.16,31.84z"/>
				</defs>
				<clipPath id="SVGID_8_">
					<use xlink:href="#SVGID_7_"  style="overflow:visible;"/>
				</clipPath>
				<path class="st9" d="M195.08,37.55c0,0-3.65-0.66-1.08-2.63c2.57-1.98,3.78-3.46,6.23-1.32c0.96,0.84,0.06,0.9,2.69-0.18
					c1.86-0.76,3.71,1.56,2.93,3.41c-0.78,1.86,0.24,3.59,0.24,3.59c1.92,1.68,2.99,4.31,1.2,4.43c-1.8,0.12,1.92,1.68,2.1,4.37
					c0.13,2.01-0.66,3.65-2.45,3.77c-1.8,0.12,1.08,2.63-0.66,3.65c-1.74,1.02-6.15,1.78-6.31-0.24s-0.28-3.82-2.91-2.75
					s-2.93-3.41-3.05-5.21C193.89,46.65,193.35,38.56,195.08,37.55z"/>
				<path class="st9" d="M198.8,52.63c0.09,1.27,2.7,13.35,2.82,15.15c0.12,1.8,3.65,0.66,5.45,0.54s3.66,0.2,2.1-2.63
					c-1.56-2.82-3.48-4.5-4.8-10.72S198.5,48.14,198.8,52.63z"/>
				<g class="st10">
					<path class="st0" d="M201.75,69.73l3.37,10.44l72.06-11.94l-5.73-19.16c0,0-38.63,7.03-46.47,9.33
						C217.14,60.71,211.07,62.89,201.75,69.73z"/>
					<path class="st0" d="M219.85,48.05l4.67,18.54c0,0,21.61,1.95,23.32,1.83c1.71-0.11,20.35-15.04,20.35-15.04l-8.09-31.16
						l-32.64,11.61L219.85,48.05z"/>
					<polygon class="st0" points="225.8,30.8 215.6,51.03 218.44,53.51 227.81,34.22 248.45,50.61 270.56,35.8 258.7,17.94 
						255.1,17.29 					"/>
					<line class="st1" x1="231.23" y1="32.49" x2="259.65" y2="18.76"/>
					<line class="st0" x1="243.29" y1="46.51" x2="247.87" y2="68.42"/>
					<path class="st0" d="M224.21,46.9l1.24,5.25l12.38-0.83c0,0,0.59-4.48-1.24-5.25C234.77,45.31,224.21,46.9,224.21,46.9z"/>
					<path class="st0" d="M231.1,67.17c0,0-3.59-10.71-2.7-10.77c0.88-0.06,7.96-0.53,7.96-0.53s2.25,10.33,2.57,11.82
						C237.26,67.8,235.37,67.48,231.1,67.17z"/>
					<polygon class="st0" points="252.11,52.14 253.35,57.39 261.84,51.49 260.66,47.13 					"/>
					<line class="st1" x1="256.86" y1="50.05" x2="257.59" y2="54.44"/>
				</g>
			</g>
			<path class="st1" d="M196.16,31.84c0.7,1.24,7.25,31.75,8.44,35.76c1.19,4.01,3.38,10.34,3.65,11.07
				c0.27,0.72,1.88-0.02,3.34-0.37s28.7-5.07,32.02-5.68c4.07-0.74,16.13-2.28,19.46-2.83s6.91-1.58,6.91-1.58s-1.43-4.62-2.53-9.57
				c-1.1-4.95-8.42-37.17-9.25-37.83c-0.82-0.66-9.31,0.72-13.95,1.34c-8.15,1.08-47.56,7.56-48.25,8.2
				C195.32,30.99,196.16,31.84,196.16,31.84z"/>
		</g>
		<g id="_x34_photoのコピー_12">
			<g>
				<defs>
					<path id="SVGID_9_" d="M209.65,85.06c0.7,1.24,7.25,31.75,8.44,35.76c1.19,4.01,3.38,10.34,3.65,11.07
						c0.27,0.72,1.88-0.02,3.34-0.37c1.47-0.35,28.7-5.07,32.02-5.68c4.07-0.74,16.13-2.28,19.46-2.83
						c3.32-0.55,6.91-1.58,6.91-1.58s-1.43-4.62-2.53-9.57c-1.1-4.95-8.42-37.17-9.25-37.83s-9.31,0.72-13.95,1.34
						c-8.15,1.08-47.56,7.56-48.25,8.2C208.8,84.21,209.65,85.06,209.65,85.06z"/>
				</defs>
				<clipPath id="SVGID_10_">
					<use xlink:href="#SVGID_9_"  style="overflow:visible;"/>
				</clipPath>
				<g class="st11">
					<path class="st0" d="M243.22,130.13c0,0-4.45-16.47-7.64-20.8c-3.2-4.34-1.03-5.93-2.08-9.17c-1.05-3.24-2.1-6.48-5.61-6.24
						s-5.43,5.34-3.31,9.13c2.12,3.79,2.39,4.6,1.29,6.74c-1.09,2.15-3.06,12.63-0.46,23.43
						C228.02,144.01,243.22,130.13,243.22,130.13z"/>
					<path class="st0" d="M246.81,128.34c0,0-2.16-19.49-0.8-24.7c1.36-5.21-1.25-5.89-1.48-9.29c-0.23-3.4-0.46-6.8,2.89-7.88
						s7.03,2.94,6.46,7.25c-0.57,4.31-0.51,5.16,1.31,6.74c1.81,1.59,7.54,10.59,9.13,21.58
						C265.9,133.03,246.81,128.34,246.81,128.34z"/>
					<path class="st0" d="M263.06,128.1c0,0-1.99-16.94-0.63-22.15c1.36-5.21-1.25-5.89-1.48-9.29c-0.23-3.4-0.46-6.8,2.89-7.88
						c3.34-1.08,7.03,2.94,6.46,7.25c-0.57,4.31-0.51,5.16,1.31,6.74c1.81,1.59,7.54,10.59,9.13,21.58
						C282.32,135.35,263.06,128.1,263.06,128.1z"/>
				</g>
			</g>
			<path class="st1" d="M209.65,85.06c0.7,1.24,7.25,31.75,8.44,35.76c1.19,4.01,3.38,10.34,3.65,11.07
				c0.27,0.72,1.88-0.02,3.34-0.37c1.47-0.35,28.7-5.07,32.02-5.68c4.07-0.74,16.13-2.28,19.46-2.83c3.32-0.55,6.91-1.58,6.91-1.58
				s-1.43-4.62-2.53-9.57c-1.1-4.95-8.42-37.17-9.25-37.83s-9.31,0.72-13.95,1.34c-8.15,1.08-47.56,7.56-48.25,8.2
				C208.8,84.21,209.65,85.06,209.65,85.06z"/>
		</g>
		<g id="本文のコピー_12">
			<g>
				<path class="st12" d="M269.91,23.51c0,0,1.02,1.74,8.08-0.54c7.06-2.28,10.84,0.18,16.16-1.08c5.33-1.26,14.31-1.86,14.31-1.86"
					/>
				<path class="st12" d="M310.86,28.79c0,0-1.02-1.74-8.08,0.54c-7.06,2.28-10.84-0.18-16.16,1.08s-14.31,1.86-14.31,1.86"/>
				<path class="st12" d="M274.59,39.43c0,0,1.02,1.74,8.08-0.54c7.06-2.28,10.84,0.18,16.16-1.08c5.33-1.26,14.31-1.86,14.31-1.86"
					/>
				<path class="st12" d="M315.53,44.71c0,0-1.02-1.74-8.08,0.54c-7.06,2.28-10.84-0.18-16.16,1.08
					c-5.33,1.26-14.31,1.86-14.31,1.86"/>
				<path class="st12" d="M279.26,55.36c0,0,1.02,1.74,8.08-0.54c7.06-2.28,10.84,0.18,16.16-1.08s14.31-1.86,14.31-1.86"/>
				<path class="st12" d="M320.21,60.63c0,0-1.02-1.74-8.08,0.54c-7.06,2.28-10.84-0.18-16.16,1.08
					c-5.33,1.26-14.31,1.86-14.31,1.86"/>
			</g>
			<g>
				<path class="st12" d="M283.28,74.93c0,0,1.02,1.74,8.08-0.54c7.06-2.28,10.84,0.18,16.16-1.08c5.33-1.26,14.31-1.86,14.31-1.86"
					/>
				<path class="st12" d="M324.23,80.21c0,0-1.02-1.74-8.08,0.54c-7.06,2.28-10.84-0.18-16.16,1.08s-14.31,1.86-14.31,1.86"/>
				<path class="st12" d="M287.96,90.86c0,0,1.02,1.74,8.08-0.54c7.06-2.28,10.84,0.18,16.16-1.08c5.33-1.26,14.31-1.86,14.31-1.86"
					/>
				<path class="st12" d="M328.9,96.13c0,0-1.02-1.74-8.08,0.54c-7.06,2.28-10.84-0.18-16.16,1.08c-5.33,1.26-14.31,1.86-14.31,1.86
					"/>
				<path class="st12" d="M292.63,106.78c0,0,1.02,1.74,8.08-0.54s10.84,0.18,16.16-1.08s14.31-1.86,14.31-1.86"/>
				<path class="st12" d="M333.58,112.05c0,0-1.02-1.74-8.08,0.54c-7.06,2.28-10.84-0.18-16.16,1.08
					c-5.33,1.26-14.31,1.86-14.31,1.86"/>
			</g>
			<g>
				<path class="st12" d="M230.64,149c0,0,4.57,0.44,10.74-1.1s13.52-0.48,20.59-2.1c7.07-1.63,15.93-3.44,21.31-3.99
					s12.63-0.38,19.7-2.01c7.07-1.63,13.87-5.94,22.02-5.87s18.5-0.23,18.5-0.23"/>
				<path class="st12" d="M228.24,140.14c0,0,4.57,0.44,10.74-1.1c6.18-1.54,13.52-0.48,20.59-2.1c7.07-1.63,15.93-3.44,21.31-3.99
					c5.37-0.55,12.63-0.38,19.7-2.01c7.07-1.63,13.87-5.94,22.02-5.87s18.5-0.23,18.5-0.23"/>
				<path class="st12" d="M233.04,157.86c0,0,4.57,0.44,10.74-1.1c6.18-1.54,13.52-0.48,20.59-2.1c7.07-1.63,15.93-3.44,21.31-3.99
					c5.37-0.55,12.63-0.38,19.7-2.01c7.07-1.63,13.87-5.94,22.02-5.87c8.15,0.07,18.5-0.23,18.5-0.23"/>
				<path class="st12" d="M236.33,166.66c0,0,4.57,0.44,10.74-1.1c6.18-1.54,13.52-0.48,20.59-2.1c7.07-1.63,15.93-3.44,21.31-3.99
					c5.37-0.55,12.63-0.38,19.7-2.01c7.07-1.63,13.87-5.94,22.02-5.87c8.15,0.07,18.5-0.23,18.5-0.23"/>
				<path class="st12" d="M238.62,175.18c0,0,4.56,0.54,10.77-0.86c6.21-1.4,13.53-0.18,20.63-1.65c7.11-1.47,16-3.09,21.39-3.52
					s12.63-0.11,19.74-1.58c7.11-1.47,14-5.63,22.14-5.38c8.15,0.25,18.5,0.18,18.5,0.18"/>
				<path class="st12" d="M240.98,183.73c0,0,4.55,0.56,10.77-0.8c6.22-1.37,13.53-0.11,20.64-1.54s16.02-3,21.41-3.4
					c5.39-0.4,12.63-0.04,19.75-1.47c7.11-1.43,14.03-5.56,22.17-5.26c8.14,0.3,18.5,0.28,18.5,0.28"/>
				<path class="st12" d="M243.23,191.21c0,0,4.6,1.57,10.85,0.36c6.25-1.21,13.41-1.57,20.55-2.83c7.15-1.26,16.15-1.71,21.54-1.98
					c5.39-0.27,12.63,0.27,19.78-0.99s14.16-5.21,22.29-4.72c8.13,0.49,18.48,0.73,18.48,0.73"/>
				<path class="st12" d="M245.67,200.45c0,0,4.54,0.64,10.78-0.61c6.24-1.26,13.53,0.13,20.67-1.17
					c7.14-1.31,16.07-2.72,21.46-3.02s12.63,0.18,19.77-1.12s14.12-5.31,22.26-4.87s18.49,0.61,18.49,0.61"/>
			</g>
		</g>
	</g>
	<g id="本のコピー_12">
		<g>
			<path class="st0" d="M393.26,84.48l-3.54,1.13c0,0,1.02,16.17,1.92,16.11c0.9-0.06,4.49-0.28,8.14,0.39
				c3.65,0.67,11.96,3.75,16.68,7.06c4.72,3.31,11.52,11,11.69,13.69c0.11,1.8,1.07,2.64,2.81,1.63c0,0,3.59-0.23,4.66,2.41
				c0.68,1.67,1.91,1.68,1.91,1.68s0,0,3.65,0.67c3.65,0.67,10.95,2.01,22.3,10.31c9.77,7.15,11.46,10.1,12.47,11.84
				c1.01,1.74,10.32-7.87,12.06-8.88c3.21-1.87-4.05-6.96-4.05-6.96l-7.14-13.08l-43.08-25.23L393.26,84.48z"/>
			<path class="st0" d="M469.49,63.43c0,0-7.42-17.57-20.45-23.96c-8.48-5.78-19.66-11.38-21.45-11.27
				c-1.8,0.11-3.48,2.02-4.26,3.88c-0.78,1.85-33.59,53.53-33.59,53.53c2.81,1.63,6.4,1.4,11.9,2.85
				c5.5,1.46,13.22,5.98,19.77,13.18c11.63,12.79,9.95,18.1,12.08,19.98c0.95,0.84,10.11-2.1,18.98,0.6
				c7.36,2.24,21.28,8.57,27.97,14.46c3.94,3.47,5.79,5.95,6.68,5.89c0.9-0.06,2.64-1.07,4.26-3.88s31.91-51.62,31.79-53.41
				c-0.11-1.8-22.03-15.99-26.34-17.27C475.66,61.23,469.49,63.43,469.49,63.43z"/>
			<line class="st1" x1="436.01" y1="118.75" x2="469.49" y2="63.43"/>
			<path class="st1" d="M472.86,74.04c0,0,12.69,1,19.2,4.2c6.51,3.2,13.93,6.33,18.7,10.54"/>
			<path class="st1" d="M468.71,79.71c0,0,12.69,1,19.2,4.2c6.51,3.2,13.93,6.33,18.7,10.54"/>
			<path class="st1" d="M465.52,86.22c0,0,12.69,1,19.2,4.2s13.93,6.33,18.7,10.54"/>
			<path class="st1" d="M461.42,92.79c0,0,12.69,1,19.2,4.2c6.51,3.2,13.93,6.33,18.7,10.54"/>
			<path class="st1" d="M457.33,99.37c0,0,12.69,1,19.2,4.2c6.51,3.2,13.87,5.44,18.65,9.64"/>
			<path class="st1" d="M453.24,105.94c0,0,12.69,1,19.2,4.2c6.51,3.2,13.87,5.44,18.65,9.64"/>
			<path class="st1" d="M449.14,112.51c0,0,12.69,1,19.2,4.2c6.51,3.2,13.03,6.39,17.8,10.6"/>
			<path class="st0" d="M429.27,40.72c0,0,13.03,6.39,16.85,9.76c3.82,3.37,11.46,10.1,12.59,13.63"/>
			<path class="st0" d="M425.12,46.39c0,0,12.07,5.55,15.89,8.92c3.82,3.37,12.41,10.94,13.54,14.47"/>
			<path class="st0" d="M421.93,52.91c0,0,11.12,4.71,14.94,8.07s13.37,11.78,14.5,15.32"/>
			<path class="st0" d="M417.83,59.48c0,0,11.12,4.71,14.94,8.07c3.82,3.37,13.37,11.78,14.5,15.32"/>
			<path class="st0" d="M413.74,66.05c0,0,11.12,4.71,14.94,8.07c3.82,3.37,13.43,12.68,14.55,16.21"/>
			<path class="st0" d="M408.69,71.78c0,0,12.07,5.55,15.89,8.92s13.43,12.68,14.55,16.21"/>
			<path class="st0" d="M404.6,78.35c0,0,12.97,5.49,16.79,8.86c3.82,3.37,13.48,13.58,14.61,17.11"/>
			<path class="st1" d="M430.73,120.89c0,0-7.45-13.35-13.82-18.97c-8.59-7.57-19.71-12.28-26-11.88"/>
			<path class="st1" d="M428.04,121.06c0,0-7.2-13.97-16.58-19.69c-8.76-5.34-13.98-7.23-20.27-6.83"/>
			<path class="st1" d="M439.1,124.87c0,0,10.66-2.48,27.51,7.28c15.12,8.76,17.08,13.35,17.08,13.35"/>
			<path class="st1" d="M439.22,126.66c0,0,14.48,0.89,25.77,8.29c14.61,9.58,16.12,12.51,16.12,12.51"/>
		</g>
	</g>
</g>
<g id="顔のコピー_13_6_">
	<path class="st0" d="M153.28,215.63c0,0,5.92-10.13,10.39-11.2c4.46-1.07,27.68-6.44,32.21-5.71s8.09-0.3,8.09-0.3l-18.14,20.49
		L153.28,215.63z"/>
	<path class="st13" d="M144.33,140.61c0,0-9.79,19.82-7.72,31.89c2.07,12.08,5.55,18.43,8.13,22.39s7.68,10.25,10.14,10.96
		s6.47-0.24,6.47-0.24l6.18,13.54l24.84-7.41c0,0-6.29-11.58-6.96-20.7c-0.13-1.81-2.01-2.46-2.07-4.08
		c-0.06-1.62,5.51-4.26,7.07-5.94c1.56-1.68,2.15-7.37,0.41-10.55s-3.39-3.92-4.98-3.05s-13.98-27.03-22.88-26.69
		S144.33,140.61,144.33,140.61z"/>
</g>
<g id="髪のコピー_13_4_">
	<path class="st14" d="M148.85,145.55c0.48-0.02,2.41,10.73,8.8,18.58c4.32,5.31,14.31,5.39,15.91,10.63
		c3.69,12.02,1.93,29.91,2.77,30.69c1.19,1.1,3.56-3.46,3.89-4.2c0.75-1.65,4.43-11.51,4.34-13.94c-0.09-2.43,0.21,5.66,0.3,8.09
		c0.09,2.43,2.79,9.62,3.6,9.59c0.81-0.03,0.6-5.69,2.03-10.61c2.25-4.95,8.24-12.89,9.91-16.58c1.5-3.3,5.35-16.41-1.03-27.51
		c-8.67-15.07-21.26-26.75-42.9-20.27c-4.86,0.18-10.43,2.82-12.77,5.34s-14.62,20.81-12.51,33.69c2.25,13.8,8.32,27.24,10.89,31.2
		c1.71,2.37,3.39,3.92,1.59-0.87c-1.53-4.08-5.6-18.22-2.8-31.5C143.65,154.81,148.04,145.58,148.85,145.55z"/>
</g>
<g id="服のコピー_13_6_">
	<path class="st14" d="M209.14,216.24c-2.77-1.7-2-5.33-2.14-8.93c-0.13-3.6,1.43-9.96-3.04-8.89c-4.46,1.07-15.88,8.7-20.31,10.67
		c-4.43,1.97-21.42,5.31-24.11,5.41s-6.26,1.14-6.26,1.14s2.9,5.29,3.83,6.16s-6.3,4.26-9.69,5.77c-4.43,1.97-6.96,6.57-9.45,12.06
		s-12.04,39.18-13.74,41.94c-1.7,2.77-0.73,4.53,0.27,7.19c1,2.66,22.44,45.99,22.44,45.99l37.04,3.11l29.81,2.48
		c0,0,29.17-14.6,32.67-17.44c3.5-2.83,13.32-5,13.05-12.2c-0.2-5.4-3.31-16.09-4.34-19.65c-1.03-3.56-3.06-57.53-18.69-65.95
		C221.55,217.06,212.57,218.34,209.14,216.24z"/>
</g>
<path id="base_x3C_パス_x3E__1_" class="st0" d="M146.1,324.43c0,0,73.49,14.36,77.19,16.92s0.24,6.3,0.24,6.3
	s-57.21,35.47-59.91,35.57c-2.7,0.1-110.8-24.66-113.53-25.46c-2.73-0.8-42.34-84.42-41.95-85.79c0.4-1.37,3.06-2.37,4.4-2.87
	c1.33-0.5,118.08,15.79,120.46,18C133.46,287.53,146.1,324.43,146.1,324.43z"/>
<g id="lineのコピー_11">
	<path class="st15" d="M8.61,272.4c0,0,112.17,14.86,118.63,17.17c4.56,1.63,31.12,85.29,33.88,86.99
		c2.77,1.7,62.67-33.87,62.67-33.87"/>
	<line class="st1" x1="128.13" y1="289.53" x2="132.89" y2="287.36"/>
	<line class="st16" x1="165.42" y1="375.06" x2="146.2" y2="324.6"/>
</g>
<g id="マークのコピー_7">
	<path class="st17" d="M72.88,315.34l1.51,3.02l15.88,3.17l-1.51-3.02C88.75,318.51,75.14,315.34,72.88,315.34z"/>
	<path class="st17" d="M75.14,322.14l1.51,3.02l15.88,3.17l-1.51-3.02C91.02,325.31,77.41,322.14,75.14,322.14z"/>
	<path class="st17" d="M78.17,328.95l1.51,3.02l15.88,3.17l-1.51-3.02C94.04,332.11,80.44,328.95,78.17,328.95z"/>
</g>
<g id="端子の穴のコピー_11">
	<path class="st6" d="M176.51,373.89l-5.56,3.06c-0.44,0.24-0.99,0.08-1.23-0.36l-0.2-0.36c-0.24-0.44-0.08-0.99,0.36-1.23
		l5.56-3.06c0.44-0.24,0.99-0.08,1.23,0.36l0.2,0.36C177.11,373.09,176.95,373.65,176.51,373.89z"/>
	<path class="st6" d="M185.06,369.2l-5.2,2.86c-0.54,0.29-1.22,0.1-1.51-0.44l0,0c-0.29-0.54-0.1-1.22,0.44-1.51l5.2-2.86
		c0.54-0.29,1.22-0.1,1.51,0.44l0,0C185.79,368.23,185.59,368.91,185.06,369.2z"/>
	<path class="st6" d="M191.07,365.79l-2.17,1.2c-0.41,0.22-0.93,0.07-1.15-0.33l-0.24-0.44c-0.22-0.41-0.07-0.93,0.33-1.15l2.17-1.2
		c0.41-0.22,0.93-0.07,1.15,0.33l0.24,0.44C191.63,365.05,191.48,365.57,191.07,365.79z"/>
	<path class="st6" d="M195.72,363.22l-2.17,1.2c-0.41,0.22-0.93,0.07-1.15-0.33l-0.24-0.44c-0.22-0.41-0.07-0.93,0.33-1.15l2.17-1.2
		c0.41-0.22,0.93-0.07,1.15,0.33l0.24,0.44C196.27,362.48,196.12,363,195.72,363.22z"/>
</g>
<g id="手のコピー_13_3_">
	<g id="手のコピー_13_4_">
		<g>
			<path class="st0" d="M188.77,326.38c0,0-13.37,4.74-15.88,5.68c-2.51,0.94-6.64,3.64-7.39,6.21c-0.75,2.57-5.44,12.91-5.44,12.91
				l-1.98,4.45l2.5,6.52c0,0,5.71-2.73,6.5-4.45c0.78-1.72-2.38,4.32-0.69,4.26c1.69-0.06,5.01-1.88,8.33-3.7
				c3.32-1.82-1.63,1.76,0.91,1.66s6.7-1.95,9.18-3.73c2.47-1.79,9.11-5.42,10.77-6.33c1.66-0.91,5.86-1.91,7.49-3.67
				s4.88-5.27,4.88-5.27s4.1-3.54,4.01-6.08c-0.1-2.54-14.76-9.61-17.3-9.52C192.13,325.4,188.77,326.38,188.77,326.38z"/>
			<path class="st0" d="M174.9,340.45c0,0-2.57-0.75-3.38,0.13s-2.38,4.32-2.38,4.32L174.9,340.45z"/>
			<path class="st0" d="M167.08,357.68c0,0,3.22-4.36,4.88-5.27c1.66-0.91,6.54-6.17,6.54-6.17"/>
			<path class="st0" d="M175.72,357.65c0,0,3.88-4.68,5.54-5.59c1.66-0.91,3.26-3.51,4.1-3.54"/>
			<path class="st0" d="M159.08,357.15c0,0,3.54-5.23,4.36-6.11s5.7-6.14,5.7-6.14"/>
		</g>
	</g>
	<path class="st0" d="M202.13,317.37c0,0-16.92,5.14-16.82,7.84c0.1,2.7-1.83-0.83,2.7-0.1s11.76,1.36,14.56,3.96
		s6.67,9.58,7.17,10.95c0.5,1.37,6.86-1.03,8.49-1.63"/>
</g>
<path class="st0" d="M350.28,209.14c-9.76,3.97-19.72,2.54-27.75,4.64c-8.03,2.1-13.52-0.39-17.82,5.17s-4.09,10.96-6.76,11.96
	c-2.66,1-13.05,12.2-19.04,20.53c-5.99,8.33-10.59,5.8-15.85,9.6c-5.26,3.8-15.02,7.77-26.58,11.8
	c-11.56,4.04-30.31,9.34-33.87,10.38c-1.78,0.52-1.53,1.92-1.53,3.92c0,1.22,2.6-0.46,3.53,0.4c1.87,1.73,7.53,8.72,8.57,12.29
	c1.03,3.56,1.14,9.93,1.14,9.93s4.6-0.13,8.13-2.07c3.53-1.93,29.51-6.61,36.6-9.58c7.09-2.97,14.15-6.84,18.58-8.8
	c4.43-1.97,22.08-11.64,23.88-11.7s1.34,11.66,1.51,16.15c0.17,4.5-6.71,37.18-6.68,38.08c0.03,0.9,20.75,9.3,20.75,9.3l-0.06-10.08
	c0,0,4.54,25.05,3.71,26.88c-0.83,1.83-1.65,7.2-0.65,7.2c2.7,0,12.11-2.28,16.11-3.28c6.89-1.72,36.57-9.48,47.26-12.58
	s23.11-8.07,23.88-11.7c0.76-3.63,2.23-12.69,1.82-23.48c-0.4-10.79,4.25-30.78,5.78-38.04s4.25-30.78-0.52-37.81
	s-24.09-18.01-29.66-22.3c-5.56-4.29-11.2-10.39-20.16-9.15C355.64,208.04,350.28,209.14,350.28,209.14z"/>
<path class="st0" d="M203.27,286.26c0,0-6.22-0.06-7.04,0.82s0.13,4.4,0.13,4.4s2.55-1.1,6.17,4.72s3.57,11.55,3.64,13.25
	s3.91,0.71,5.4-0.13c1.05-0.59,3.29-0.77,3.29-0.77S216.08,293.15,203.27,286.26z"/>
<path class="st0" d="M316.53,332.93c0,0-7.45-1.28-8.55-0.63s-1.9,2.86-1.9,2.86s4,0,5.36,4.71c2.02,6.97,1.99,18.92,1.54,20.66
	c-0.45,1.74,2.39,1.55,3.48,0.91s4.14-1.45,4.14-1.45S322.62,339.43,316.53,332.93z"/>
<g>
	<path class="st1" d="M317.08,331.15c0,0,32.45-9.85,39.57-11.92c7.13-2.07,15.22-2.37,16.95-4.24c0.79-0.85,1.51-4.77,2.2-9.18
		c0.82-5.24,0.68-11.15,1.45-13.47"/>
	<path class="st1" d="M373.61,314.99c0,0,7.19-0.27,12.69,2.23"/>
	<path class="st1" d="M371.84,315.96c0,0,3.46-3.73,9.84-4.73c4.63-0.73,8.84-1.37,8.84-1.37"/>
</g>
<g id="顔のコピー_13_5_">
	<path class="st0" d="M311.06,149.44c-0.37,5.89,0.49,12.95,0.55,14.57c0.06,1.62,1.48,17.78,3.25,21.77s7.89,15.92,15.24,17.26
		s8.91-0.33,10.52-0.39c1.62-0.06,0.27,7.29,0.27,7.29l-5.65,4.23l-1.72,22.62l30.4-17.98l5.15-13.98c0,0-1.8-4.8-1.92-8.04
		s0.95-17.87,0.89-19.49c-0.06-1.62,3.74-3.19,5.48-5.07c1.56-1.68,4.4-12.33-0.49-12.95s-7.94,4.35-7.94,4.35l-1.53,0.15
		c0,0,3.79-26.18-6.14-31.48c-9.93-5.3-25.97-0.65-25.97-0.65S311.56,141.32,311.06,149.44z"/>
</g>
<g id="シャツのコピー_12">
	<path class="st0" d="M334.86,218.28l-4.29,5.56c0,0-8.51,37.25,2.23,59.36c3.53-1.93,11.02-18.43,15.28-24.89
		c4.26-6.46,27.06-46.95,24.26-49.54s-23.78,14.4-23.78,14.4l-10.35,12.1L334.86,218.28z"/>
	<polygon class="st18" points="332.53,228.27 331.63,222.03 334.92,220.08 337.99,229.87 333.5,230.04 	"/>
	<path class="st0" d="M371.21,203.39l-1.07-2.61l-1.55,0.1c0,0,0.71,0.86-0.07,2.71c-0.78,1.86-4.31,3.01-5.99,4.93
		c-1.68,1.91-17.43,9.26-17.37,10.16s-3.36,3.83-3.3,4.73s-2.22,7.36-2.22,7.36l2.09,4.37l1.62-2.81l4.14-5.68l0.66-3.65l0.06,0.9
		c0,0,5.8,5.96,7.05,11.29c1.25,5.33,2.12,5.27,2.12,5.27s9.8-15.98,13.04-21.6c3.24-5.62,4.74-10.26,4.68-11.16
		S371.21,203.39,371.21,203.39z"/>
	<path class="st0" d="M338.52,207.78c0,0-0.93-0.87-3.5,2.83s-11.92,18.46-11.92,18.46c0.93,0.87,3.53-1.93,7.96-3.9
		c4.43-1.97,5.26-3.8,5.26-3.8l-1.56,6.36l1,2.66l1.8-0.07l0.6-8.13c0,0,1.6-5.46,1.5-8.16
		C339.55,211.35,342.95,205.82,338.52,207.78z"/>
</g>
<g id="ネクタイのコピー_12">
	<g>
		<polygon class="st19" points="349.12,231.68 341.63,235.78 339.32,234.22 348.5,224.85 351.52,229.08 		"/>
		<path class="st20" d="M335.53,236.26c0,0-1.6,5.46-3.09,13.63c-1.5,8.16-3.09,23.33-3.09,23.33s1.64,10.05,3.44,9.98
			s11.24-17.9,11.24-17.9s-1.13-24.81-1.23-27.5C342.69,235.1,335.53,236.26,335.53,236.26z"/>
		<path class="st19" d="M333.06,230.5c0,0-0.63,7.23,0.34,8.99c0.97,1.76,9.75,2.45,9.75,2.45s5.34-8.42,2.6-9.22
			C343.02,231.93,335.73,229.5,333.06,230.5z"/>
	</g>
</g>
<g id="髪のコピー_13_3_">
	<path class="st0" d="M347.78,134.28c-1.23-2.25-23.3,5.74-26.44,8.29s-6.9,2.97-10.31,13.09c-3.41,10.12-2.5,5.32-2.5,5.32
		s-1.37-7.34-0.74-12.23c0.63-4.89,3.38-17.96,6.5-21.32c3.12-3.36,14.21-10.26,23.05-12.21c8.84-1.95,18.75-0.84,23.66,3.98
		c1.26,1.24,3.92,0.23,7.41,2.97c1.06,0.83,7.65,9.44,8.76,17.51c1.11,8.07,5.98,20.54-1.33,25.67c-0.19-1.29,0.44-6.18-2.8-6.06
		s-6.45,1.05-7.16,3.51c-1.21,4.15-2.06,9.81-3.65,10.68c-2.25,1.23,1.97-9.8-0.76-17.81C358.73,147.66,349.52,137.46,347.78,134.28
		z"/>
</g>
<g id="眼鏡のコピー_11">
	<path class="st21" d="M330.38,167.37c0,0-2.04-2.88-6.54-2.53c-1.62,0.13-2.91,2.62-3.36,3.67c-0.45,1.05,2.26-0.9,3.76-1.51
		c1.5-0.6,4.97,1.5,5.42,0.45C330.1,166.39,330.38,167.37,330.38,167.37z"/>
	<path class="st21" d="M343.26,165c0,0,17.6-6.33,20-7.23c2.4-0.9,6.55,1.63,6.55,1.63l-1.59,0.87c0,0-2.49-1.53-4.08-0.66
		s-20.78,8.08-20.78,8.08L343.26,165z"/>
	<path class="st0" d="M318.05,174.34c-2.16,0.81-7.14-0.29-8.84-1.86c-1.51-1.4-2.38-5.02-1.73-7.24c0.65-2.22,2-5.19,5.65-5.33
		s6.62,1.21,7.46,4.1C321.42,166.91,322.37,172.71,318.05,174.34z"/>
	<path class="st0" d="M340.77,173.47c-2.34,0.88-7.73-0.31-9.56-2.01c-1.64-1.52-2.58-5.44-1.88-7.84c0.7-2.4,2.16-5.62,6.11-5.76
		c3.95-0.15,7.17,1.31,8.07,4.44C344.42,165.42,345.45,171.71,340.77,173.47z"/>
</g>
<g id="右手のコピー_13_3_">
	<g>
		<path class="st0" d="M169.24,291.9c0,0-3.2-0.67-5.49,1.79c-2.29,2.47-7.72,5.85-6.02,8.96s8.23,7.63,10.61,7.54
			c2.38-0.09,2.29-2.47,3.88-2.53c1.59-0.06,1.59-0.06,3.17-0.12s9.37-4.32,9.37-4.32s-0.3-7.93-5.85-7.72
			S169.24,291.9,169.24,291.9z"/>
		<path class="st0" d="M195.4,290.92c-5.61,0.21-12.78-1.9-16.74-1.75c-3.96,0.15-5.58-0.58-9.43,2.74s-8.42,8.26-11.54,9.96
			s-5.43,3.38-6.96,5.03c-1.53,1.65-0.61,4.79,2.53,3.88c3.14-0.91,7.05-2.65,10.92-5.17c3.88-2.53,6.14-5.79,10.1-5.94
			c3.96-0.15,6.37,0.55,7.23,2.11c0.85,1.56,0.15,3.96-1.38,5.61c-1.53,1.65-3.85,3.32-6.96,5.03s-3.93,0.94-4.61,4.14
			c-0.52,2.46,7.26,2.9,10.37,1.2s8.54-5.08,11.72-5.2c3.17-0.12,11.77-3.62,14.95-3.74C208.78,308.68,206.51,290.5,195.4,290.92z"
			/>
		<line class="st1" x1="164.19" y1="305.59" x2="172.21" y2="307.67"/>
		<path class="st22" d="M178.5,305.85c0,0,0.64-3.99-1.76-4.7c-2.41-0.7-3.08,2.5-3.88,2.53c-0.79,0.03-2.44-1.96-2.44-1.96"/>
	</g>
</g>
<g id="左手のコピー_13_3_">
	<g>
		<path class="st0" d="M309.66,335.77c0,0-3.96-0.97-8.46-1.95c-4.5-0.98-5.33-2.49-9.16-1.57c-3.83,0.92-6.88,1.8-8.31,4.95
			c-1.43,3.14-2.97,3.2-5.2,5.6c-2.23,2.4-5.28,3.29-4.37,7.11c0.92,3.83,1.63,2.26,1.69,3.8c0.06,1.54-1.46,2.37,0.14,3.86
			c1.6,1.48,1.66,3.03,3.97,2.94c3.86-0.14,1.08,0.53,1.6,1.48c0.83,1.51,3.94,2.17,7.03,2.05c3.93-0.15,3.11,0.66,8.48-0.32
			c5.37-0.97,16-6.62,15.97-7.09c-0.03-0.46-0.21-16.18-2-18.32C310.08,337.15,309.66,335.77,309.66,335.77z"/>
		<line class="st1" x1="282.38" y1="339.36" x2="286.1" y2="338.65"/>
		<polyline class="st1" points="275.56,352.85 281.82,348.08 284.88,347.19 		"/>
		<path class="st1" d="M277.04,358.75c0,0,5.05-3.73,6.59-3.79c1.54-0.06,2.28-0.86,2.28-0.86"/>
		<line class="st1" x1="281.53" y1="360.58" x2="284.59" y2="360.2"/>
	</g>
</g>
<g id="African01のコピー_12">
	<g id="服のコピー_13_4_">
	</g>
	<g id="顔のコピー_13_4_">
	</g>
	<g id="アクセサリーのコピー_12">
	</g>
	<g id="髪の毛のコピー_12">
	</g>
	<g id="バンダナのコピー_12">
	</g>
	<g id="手のコピー_13_2_">
	</g>
</g>
<g id="服のコピー_13_3_">
</g>
<g id="左手のコピー_13_2_">
</g>
<g id="顔のコピー_13_3_">
</g>
<g id="ヒゲのコピー_12">
</g>
<g id="帽子のコピー_12">
	<g id="レイヤー_47のコピー_12">
	</g>
	<g id="レイヤー_48のコピー_12">
	</g>
</g>
<g id="生徒のコピー_12">
	<g id="服のコピー_13_2_">
	</g>
	<g id="顔のコピー_13_2_">
	</g>
	<g id="髪のコピー_13_2_">
		<g id="レイヤー_60のコピー_12">
		</g>
	</g>
</g>
<g id="ボードのコピー_12">
</g>
<g id="手のコピー_13">
</g>
<g id="カメラのコピー_12">
</g>
<g id="道路のコピー_13">
</g>
<g id="海のコピー_13">
</g>
<g id="木のコピー_12">
</g>
<g id="ビルのコピー_13">
</g>
<g id="右生徒のコピー_13">
	<g id="服のコピー_13_1_">
	</g>
	<g id="顔のコピー_13_1_">
	</g>
	<g id="髪のコピー_13_1_">
	</g>
	<g id="右手のコピー_13_1_">
	</g>
	<g id="左手のコピー_13_1_">
	</g>
</g>
<g id="左生徒のコピー_13">
	<g id="服のコピー_13">
	</g>
	<g id="右手のコピー_13">
	</g>
	<g id="左腕のコピー_12">
	</g>
	<g id="奥の髪のコピー_12">
	</g>
	<g id="顔のコピー_13">
	</g>
	<g id="左手のコピー_13">
	</g>
	<g id="髪のコピー_13">
	</g>
</g>
</svg>
