<?xml version="1.0" encoding="utf-8"?>
<!-- Generator: Adobe Illustrator 24.1.0, SVG Export Plug-In . SVG Version: 6.00 Build 0)  -->
<svg version="1.1" id="_x32__x5F_90_x25_主線_x5F_微調整_x5F_1pt_x5F_0327のコピー_5"
	 xmlns="http://www.w3.org/2000/svg" xmlns:xlink="http://www.w3.org/1999/xlink" x="0px" y="0px" viewBox="0 0 530 340"
	 style="enable-background:new 0 0 530 340;" xml:space="preserve">
<style type="text/css">
	.st0{fill:#FFFFFF;stroke:#333333;stroke-linecap:round;stroke-linejoin:round;stroke-miterlimit:10;}
	.st1{fill:none;stroke:#333333;stroke-linecap:round;stroke-linejoin:round;stroke-miterlimit:10;}
	.st2{fill:#005C92;stroke:#333333;stroke-miterlimit:10;}
	.st3{fill:#333333;stroke:#333333;stroke-width:1.8;stroke-linecap:round;stroke-linejoin:round;stroke-miterlimit:10;}
	.st4{fill:#005C92;stroke:#005C92;stroke-miterlimit:10;}
	.st5{fill:#FFFFFF;stroke:#333333;stroke-miterlimit:10;}
	.st6{fill:#FFFFFF;stroke:#333333;stroke-linecap:round;stroke-miterlimit:10;}
	.st7{fill:none;stroke:#005C92;stroke-linecap:round;stroke-linejoin:round;stroke-miterlimit:10;}
	.st8{fill:#333333;stroke:#333333;stroke-width:1.2549;stroke-linecap:round;stroke-linejoin:round;stroke-miterlimit:10;}
	.st9{fill:#005C92;stroke:#005C92;stroke-linecap:round;stroke-linejoin:round;stroke-miterlimit:10;}
	.st10{fill:#FFFFFF;stroke:#333333;stroke-linejoin:round;stroke-miterlimit:10;}
	.st11{fill:none;stroke:#FFFFFF;stroke-width:1.35;stroke-linecap:round;stroke-linejoin:round;stroke-miterlimit:10;}
	.st12{fill:#FFFFFF;stroke:#333333;stroke-width:1.35;stroke-linecap:round;stroke-linejoin:round;stroke-miterlimit:10;}
	.st13{fill:none;stroke:#333333;stroke-width:1.35;stroke-linecap:round;stroke-linejoin:round;stroke-miterlimit:10;}
	.st14{fill:#333333;stroke:#333333;stroke-width:1.35;stroke-linecap:round;stroke-linejoin:round;stroke-miterlimit:10;}
	.st15{fill:#333333;stroke:#FFFFFF;stroke-width:1.125;stroke-linecap:round;stroke-linejoin:round;stroke-miterlimit:10;}
</style>
<g id="資料のコピー_12">
	<g id="_x32_のコピー_12">
	</g>
	<g id="_x31_のコピー_12">
		<g id="_x30_1mapのコピー_12">
		</g>
		<g id="_x31_mapのコピー_12">
		</g>
		<g id="_x32_mapのコピー_12">
		</g>
		<g id="_x33_photoのコピー_12">
		</g>
		<g id="_x34_photoのコピー_12">
		</g>
		<g id="本文のコピー_12">
		</g>
	</g>
	<g id="本のコピー_12">
	</g>
</g>
<g id="顔のコピー_13_6_">
</g>
<g id="髪のコピー_13_4_">
</g>
<g id="服のコピー_13_6_">
</g>
<g id="lineのコピー_11">
</g>
<g id="マークのコピー_7">
</g>
<g id="端子の穴のコピー_11">
</g>
<g id="手のコピー_13_3_">
	<g id="手のコピー_13_4_">
	</g>
</g>
<g id="顔のコピー_13_5_">
</g>
<g id="シャツのコピー_12">
</g>
<g id="ネクタイのコピー_12">
</g>
<g id="髪のコピー_13_3_">
</g>
<g id="眼鏡のコピー_11">
</g>
<g id="右手のコピー_13_3_">
</g>
<g id="左手のコピー_13_3_">
</g>
<g id="African01のコピー_12">
	<g id="服のコピー_13_4_">
		<path class="st0" d="M303.16,103.63c0,0-3.47-1.94-6.7-1.75c-3.24,0.19-5.06-0.67-6.84,0.27c-1.78,0.94-5.38,1.03-6.26,1.95
			c-0.88,0.92-2.66,1.86-6.17,5.55s-14.37,1.24-20.61,4.09c-6.23,2.85-14.29,4.84-15.94,11.18c-1.65,6.34-3.88,26.2-6.45,31.66
			c-2.57,5.46-5.06,14.52-5.06,14.52s-0.96-2.68-1.93-5.36c-0.96-2.68-6.87-24.14-8.69-25c-1.82-0.86-15.32-0.54-19.77,1.37
			c-4.46,1.91-8.08,1.09-11.57,5.68s-6.09,9.15-6.94,10.97c-0.86,1.82,0.98,3.58,4.65,6.19s5.55,6.17,10.2,12.36
			c4.65,6.19,12.34,26.72,15.16,32.05c2.83,5.33,30.35,27.19,35.79,28.86c5.44,1.67,24.05,27.34,24.05,27.34l111.3-89.96
			c0,0-3.98-16.11-4.07-19.71c-0.09-3.6-0.3-12.6-5.85-18.77c-5.55-6.17-17.52-17.59-22.98-20.16c-5.46-2.57-9.53-12.26-14.8-11.74
			C328.42,105.74,303.16,103.63,303.16,103.63z"/>
	</g>
	<g id="顔のコピー_13_4_">
		<g>
			<path class="st0" d="M286.88,37.83c-1.33,5.11-2.69,8.77-2.61,12.39c0.09,3.62,1.59,5.77,1.66,8.66
				c0.07,2.9-1.19,10.91-1.09,15.26c0.1,4.35,0.08,5.36,3.15,10.42c1.69,2.79,5.15,8.12,8.21,9.62c2.91,1.43,1.59,5.77,1.62,7.21
				c0.03,1.45-2.81,3.69-3.54,3.71c-0.72,0.02,0.93,8.68,6.02,9.29s14.55,1.83,19.57-0.46s10.08-3.14,8.6-4.56
				c-1.48-1.42-2.45-11.55-1.1-15.93c1.35-4.38,1.31-5.83,2.73-7.32c1.42-1.48,5.78-0.86,7.89-3.81c2.11-2.95,6.91-14.67,6.91-14.67
				l-9.9-20.07l-34.31-9.34L286.88,37.83z"/>
			<path class="st1" d="M297.51,94.93c0,0,1.8,2.05,6.31,1.94c2.24-0.05,4.45-0.85,5.93-1.63"/>
			<path class="st1" d="M332.53,66.49c0,0,0.69-1.47,2.12-2.23c1.92-1.02,3.61-0.81,3.61-0.81s1.83-0.77,2.75,0.66
				c0.92,1.43,0.97,3.6,0.97,3.6"/>
		</g>
	</g>
	<g id="アクセサリーのコピー_12">
		<g>
			<circle class="st2" cx="277.83" cy="137.92" r="2.25"/>
			<circle class="st2" cx="276.14" cy="142.46" r="2.74"/>
			<circle class="st2" cx="275.34" cy="146.98" r="2.74"/>
			<circle class="st2" cx="274.57" cy="152.4" r="2.74"/>
			<circle class="st2" cx="273.8" cy="157.82" r="2.74"/>
			<circle class="st2" cx="273.93" cy="163.22" r="2.74"/>
			<circle class="st2" cx="274.95" cy="168.6" r="2.74"/>
			<circle class="st2" cx="277.76" cy="173.03" r="2.74"/>
			<circle class="st2" cx="281.44" cy="176.54" r="2.74"/>
			<circle class="st2" cx="286.89" cy="178.22" r="2.74"/>
			<circle class="st2" cx="292.28" cy="178.09" r="2.74"/>
			<circle class="st2" cx="297.64" cy="176.16" r="2.74"/>
			<circle class="st2" cx="302.97" cy="173.33" r="2.74"/>
			<circle class="st2" cx="307.39" cy="169.63" r="2.74"/>
			<circle class="st2" cx="310.88" cy="165.04" r="2.74"/>
			<circle class="st2" cx="313.47" cy="160.48" r="2.74"/>
			<circle class="st2" cx="316.04" cy="155.02" r="2.74"/>
			<circle class="st2" cx="318.64" cy="150.46" r="2.74"/>
			<circle class="st2" cx="320.31" cy="145.02" r="2.74"/>
			<circle class="st2" cx="321.98" cy="139.57" r="2.74"/>
			<circle class="st2" cx="323.65" cy="134.13" r="2.74"/>
			<circle class="st2" cx="325.32" cy="128.69" r="2.74"/>
			<circle class="st2" cx="326.1" cy="123.27" r="2.74"/>
			<circle class="st2" cx="326.87" cy="117.85" r="2.74"/>
		</g>
		<g>
			<circle class="st2" cx="285.52" cy="120.63" r="2.25"/>
			<circle class="st2" cx="283.81" cy="124.27" r="2.74"/>
			<circle class="st2" cx="282.12" cy="128.81" r="2.74"/>
			<circle class="st2" cx="280.42" cy="133.36" r="2.74"/>
			<circle class="st2" cx="279.65" cy="138.78" r="2.74"/>
			<circle class="st2" cx="279.78" cy="144.17" r="2.74"/>
			<circle class="st2" cx="280.81" cy="149.55" r="2.74"/>
			<circle class="st2" cx="283.61" cy="153.99" r="2.74"/>
			<circle class="st2" cx="287.3" cy="157.5" r="2.74"/>
			<circle class="st2" cx="292.74" cy="159.17" r="2.74"/>
			<circle class="st2" cx="298.14" cy="159.04" r="2.74"/>
			<circle class="st2" cx="303.47" cy="156.22" r="2.74"/>
			<circle class="st2" cx="307.9" cy="153.41" r="2.74"/>
			<circle class="st2" cx="312.32" cy="149.71" r="2.74"/>
			<circle class="st2" cx="314.91" cy="145.14" r="2.74"/>
			<circle class="st2" cx="317.5" cy="140.58" r="2.74"/>
			<circle class="st2" cx="319.2" cy="136.04" r="2.74"/>
			<circle class="st2" cx="321.77" cy="130.58" r="2.74"/>
			<circle class="st2" cx="323.46" cy="126.04" r="2.74"/>
		</g>
		<g>
			<circle class="st2" cx="294.99" cy="102.4" r="2.25"/>
			<circle class="st2" cx="291.48" cy="106.09" r="2.74"/>
			<circle class="st2" cx="288.89" cy="110.65" r="2.74"/>
			<circle class="st2" cx="287.19" cy="115.19" r="2.74"/>
			<circle class="st2" cx="285.52" cy="120.63" r="2.74"/>
			<circle class="st2" cx="285.65" cy="126.03" r="2.74"/>
			<circle class="st2" cx="286.68" cy="131.41" r="2.74"/>
			<circle class="st2" cx="289.48" cy="135.84" r="2.74"/>
			<circle class="st2" cx="293.17" cy="139.36" r="2.74"/>
			<circle class="st2" cx="298.61" cy="141.03" r="2.74"/>
			<circle class="st2" cx="304.01" cy="140.9" r="2.74"/>
			<circle class="st2" cx="309.34" cy="138.07" r="2.74"/>
			<circle class="st2" cx="313.78" cy="135.27" r="2.74"/>
			<circle class="st2" cx="318.19" cy="131.56" r="2.74"/>
			<circle class="st2" cx="320.78" cy="127" r="2.74"/>
			<circle class="st2" cx="323.38" cy="122.44" r="2.74"/>
			<circle class="st2" cx="325.07" cy="117.9" r="2.74"/>
			<circle class="st2" cx="326.74" cy="112.45" r="2.74"/>
		</g>
	</g>
	<g id="髪の毛のコピー_12">
		<path class="st3" d="M292.45,28.27l-5.07,0.12c0,0,0.69-1.47,0.67-2.19c-0.02-0.72-2.92-0.66-2.24-2.85s0.67-2.19,2.12-2.23
			c1.45-0.03-2.21-1.4-0.07-2.9c2.14-1.5,2.87-1.52,3.61-0.81c0.74,0.71-0.05-2.17,1.4-2.21c1.45-0.03,2.87-1.52,2.87-1.52
			s0.67-2.19,2.12-2.23c1.45-0.03,2.92,0.66,3.62-0.09s1.38-2.93,2.85-2.24s2.9-0.07,2.9-0.07s0.69-1.47,2.87-1.52
			c2.17-0.05,3.64,0.64,4.38,1.35c0.74,0.71,1.45-0.03,2.16-0.78s2.9-0.07,4.38,1.35c1.48,1.42,1.5,2.14,2.93,1.38
			c1.43-0.76,2.87-1.52,4.37,0.62c1.5,2.14,2.21,1.4,3.66,1.36c1.45-0.03,2.9-0.07,4.4,2.07s1.48,1.42,3.66,1.36
			c2.17-0.05,2.92,0.66,3.69,2.81c0.78,2.16,0.79,2.88,2.24,2.85c1.45-0.03,2.9-0.07,2.23,2.12c-0.67,2.19,0.79,2.88,1.52,2.87
			c0.72-0.02,1.47,0.69,1.5,2.14c0.03,1.45-0.64,3.64-0.62,4.37c0.02,0.72,2.9-0.07,2.23,2.12c-0.67,2.19-2.14,1.5-2.11,2.95
			s2.92,0.66,2.23,2.12c-0.69,1.47-1.36,3.66-2.83,2.97s-16.03-3.25-16.03-3.25L292.45,28.27z"/>
	</g>
	<g id="バンダナのコピー_12">
		<g>
			<path class="st0" d="M350.84,43.57c0,0-25.01-14.64-28.63-14.55c-3.62,0.09-11.65-1.9-11.65-1.9l38.49,32.45L350.84,43.57z"/>
			<path class="st0" d="M344.8,64.03l-6.54-0.57c0,0-5.26-7.85-7.47-9.25c-2.21-1.4-14.76-6.93-17.59-7.56
				c-2.92-0.66-10.22-2.66-14.57-2.56c-4.35,0.1-13.76,1.05-13.74,1.78c0.02,0.72-0.67,2.19-0.67,2.19s-2.23-2.12-2.28-4.3
				c-0.05-2.17,3.26-15.31,4.7-16.07s2.12-2.23,5.75-2.31c3.62-0.09,13.07-1.74,24.4,3.06s19.35,13.87,21.01,15.45
				c2.23,2.12,5.19,4.95,7.42,7.08c2.23,2.12,3.83,8.61,3.83,8.61L344.8,64.03z"/>
			<path class="st0" d="M351.31,63.15l-5.87,27.7l1.76,13.01c0,0,1.43-0.76,2.88-0.79c1.45-0.03,1.4-2.21,4.25-4.45
				c2.85-2.24,4.26-3.73,5.7-4.49c1.43-0.76,2.9-0.07,1.36-3.66s-3.92-12.24-4.02-16.59s-0.88-6.51-0.26-10.87
				c0.62-4.37,1.19-10.91,0.42-13.07s-2.04-4.02-3.3-6.31c-1.26-2.29-1.91,0.63-1.91,0.63L351.31,63.15z"/>
			<path class="st0" d="M350.07,41.42c0,0,1.43-0.76,2.9-0.07s2.35,7.2,2.43,10.82s-0.57,6.54-1.85,13.83
				c-1.28,7.28-5.4,16.81-5.3,21.16s1.03,13.03,0.45,18.85c-0.59,5.82-3.99,15.33-4.66,17.52c-0.67,2.19,0.1,4.35-1.35,4.38
				c-1.45,0.03-4.35,0.1-5.85-2.04c-1.5-2.14-3.02-5.01-5.95-6.39s-4.38-1.35-6.56-1.3s-5.11-1.33-5.11-1.33s0.69-1.47,4.2-6.63
				s9.84-13.29,10.44-18.38s3.87-20.4,4.53-23.32c0.66-2.92,2.66-10.22,4.78-12.44c2.12-2.23,9.15-11.82,7.68-12.51
				s-3.34-1.93-3.34-1.93L350.07,41.42z"/>
		</g>
	</g>
	<g id="手のコピー_13_2_">
		<g>
			<path class="st0" d="M215.65,143.92c0,0,0.58-8.61-2.75-17.13c-3.33-8.52-9.17-24.01-10.86-29.44s-1.93-15.59-5.06-15.51
				c-3.12,0.07-4.67,0.89-4.59,4.02s2.71,15.57,3.55,17.89c0.84,2.32-2,2.12-3.07,2.42c-3.11,0.86-2.21,5.52-2.99,5.54
				s-5.47,0.13-5.41,2.47c0.06,2.34,0.13,5.47,0.13,5.47s-5.47,0.13-5.41,2.47c0.06,2.34,0.18,7.81,2.53,7.76
				c2.34-0.06,1.64,3.09,2.45,4.63c0.82,1.54,0.98,8.57,5.71,10.02c4.72,1.45,6.32,2.98,7.94,5.28c1.62,2.31,2.42,3.07,3.98,3.03
				C203.36,152.81,215.71,146.26,215.65,143.92z"/>
			<path class="st1" d="M189.88,111.71c0,0-1.43,5.5,0.2,8.59s2.47,5.41,4.82,5.36c1.56-0.04,1.56-0.04,1.56-0.04"/>
			<path class="st1" d="M184.58,118.87c0,0,0.93,6.23,1.73,6.99c0.8,0.76,3.16,1.49,4.72,1.45c1.56-0.04,3.09-1.64,3.09-1.64"/>
			<path class="st1" d="M181.71,129.88c0,0,3.92,0.69,5.49,0.65s3.83-3.22,3.83-3.22"/>
			<path class="st1" d="M207.44,126.92c0,0-1.54,0.82-4.02-4.59c-2.47-5.41-2.58-10.1-4.95-10.82c-2.36-0.73-3.89,0.87-2.98,6.32
				c0.91,5.45,1.75,7.77,1.82,10.9c0.07,3.12-1.4,7.07,0.24,10.15c1.64,3.09,5.69,9.24,5.69,9.24"/>
		</g>
	</g>
</g>
<g id="服のコピー_13_3_">
	<path class="st0" d="M391.9,144.29c4.39-0.99,11.65-2.08,17.89-4.92c6.23-2.85,8.03-2.89,14.23-7.54
		c6.19-4.65,12.66,2.4,17.16,2.29c4.5-0.11,23.27-5.95,29.65-2.5c6.38,3.45,12.83,9.6,16.51,13.11
		c3.68,3.51,18.51,21.17,24.93,26.42c6.43,5.25,12.85,10.5,13.04,18.6c0.19,8.1,0.49,20.69-4.72,28.92s-21.73,32.92-25.93,45.63
		c-4.2,12.7-10.12,29.05-19.93,32.88c-9.81,3.83-47.45,20.87-63.22,29.4c-20,10.83-19.71,4.07-19.71,4.07s-3.04-14.33-3.15-18.83
		c-0.11-4.5-0.37-34.65-0.08-41.41c0.24-5.69-27.55-22.75-27.55-22.75s-12.15,19.19-23.61,29.37c-11.46,10.17-37,34.19-39.74,32.45
		s-10.62-30.36-10.77-36.66c-0.15-6.3-3.93-32.77,1.8-37.85c5.73-5.09,9.14-6.01,19.5-13.07c7.53-5.13,28.37-18.68,35.44-24.25
		c7.07-5.57,24.64-23.99,27.21-29.45S382.95,146.31,391.9,144.29z"/>
	<path class="st0" d="M291.92,237.14c0,0,2.33-0.37,4,5.6s2.59,6.85,2.72,12.25c0.13,5.4-1.29,21.64-1.05,31.53
		s-0.47,18.02-0.47,18.02"/>
	<path class="st1" d="M389.4,250.72c0,0,1.77-4.23,4.44-5.2c2.68-0.96,13.45-2.12,25.13-3.3c11.68-1.18,22.2-13.13,25.77-14.11
		c3.58-0.98,3.54-2.78,7.13-2.87c3.6-0.09,18.38-22.04,18.38-22.04"/>
	<path class="st0" d="M394.83,249.1c0,0,3.02-0.63,6.36,1.59c4.16,2.76,6.32,1.71,7.29,4.39c0.43,1.2,1.39,20.67-1.12,28.83
		c-2.51,8.16-12.5,42.61-12.5,42.61"/>
</g>
<g id="左手のコピー_13_2_">
	<g>
		<path class="st0" d="M408.26,254.57c0,0-16.55-3.19-21.59-4.5c-5.04-1.31-7.33-6.99-12.41-9.73
			c-5.08-2.74-15.56-12.63-18.23-13.89c-4.35-2.05-7.14,0.89-4.89,5.13c1.42,2.68,7.34,7.7,8.09,9.12c0.75,1.41,0.02,0.72-6.39,2.3
			c-6.41,1.58-9.24,3.08-13.53,3.19s-11.54-3.31-15.08-1.79s-2.06,3.63,0.82,4.28c1.18,0.27,3.65,1.56,4.35,2.05
			c1.14,0.8-5.04-1.31-5.74-0.58c-3.31,3.48,2.98,4.94,7.31,6.27c4.33,1.33-2.9-1.36-2.81,2.22c0.07,2.86,8.69,4.09,11.59,5.46
			s-11.5-1.88-7.11,2.32c2.59,2.47,7.24,3.41,14.42,3.96c7.17,0.55,15.05,0.36,23.62-0.56s35.19,4.18,38.09,5.54
			C410.75,268.84,408.26,254.57,408.26,254.57z"/>
		<path class="st1" d="M329.39,250.71c0,0,6.49,1.99,7.92,1.96s3.6,0.63,3.6,0.63"/>
		<path class="st1" d="M332.39,256.73c0,0,3.62,1.7,5.05,1.67c1.43-0.03,7.16-0.17,7.87-0.19"/>
		<line class="st1" x1="346.91" y1="264.91" x2="340.45" y2="264.34"/>
	</g>
</g>
<g>
	<path class="st0" d="M298.62,261.89c0,0-0.06-10.22-0.59-12.94c-0.52-2.72-2.72-7.99-3.17-8.15c-0.45-0.16-13.06,7.68-15.73,6.7
		c-2.68-0.98-6.95-0.69-11-0.66c-4.06,0.04-7.62-1.26-11.44,0.88c-3.81,2.15-6.09,2.83-8.68,4.41c-2.6,1.58-7.14,2.95-5.84,4.94
		c1.3,1.99,2.63,2.48,4.46,1.63c1.83-0.85,5.64-3,7.14-2.95c1.5,0.04,3.77-0.65,1.58,2.6c-2.19,3.24-5.77,7.5-7.96,10.74
		c-2.19,3.24-6.66,7.17-7.92,9.24c-1.26,2.07-1.63,4.46,0.32,4.66s2.65-0.8,1.5,0.04c-1.38,1.01-1.58,2.96-0.41,3.89
		c1.18,0.93,2.68,0.98,3.61-0.2s1.66-0.4,1.34,0.49c-0.33,0.89-0.04,1.5,1.3,1.99c1,0.36,0.89,0.33,2.88-0.97
		c1.99-1.3,1.5,0.04,1.5,0.04s0.24,2.11,2.07,1.26c1.83-0.85,6.65-1.62,8.85-4.86c2.19-3.24,4.79-4.82,7.1-7.01
		c2.31-2.19,5.44-1.05,8.52-3.97c3.08-2.92,5.24-4.66,6.01-5.39C284.82,267.59,297.12,261.85,298.62,261.89z"/>
	<path class="st1" d="M241.29,283.04c0,0,1.83-0.85,3.53-2.75c1.71-1.9,6.05-6.89,6.37-7.78"/>
	<path class="st1" d="M245.3,286.14c0,0,1.18-0.7,2.12-1.88c0.93-1.18,5.24-4.66,6.17-5.83c0.93-1.18,3.57-4.26,3.57-4.26"/>
	<path class="st1" d="M251.25,287.71c0,0,1.96-1.33,3.5-2.79c1.54-1.46,2.92-2.47,4.02-4.09s2.15-1.74,3.08-2.92"/>
	<path class="st1" d="M256.13,256.01c0,0-0.86-0.2,1.81,0.77c2.68,0.98,4.05,5.52,8.11,5.48"/>
</g>
<g id="顔のコピー_13_3_">
	<path class="st0" d="M426.97,54.27c0,0-6.02,5.52-6.64,11.69c-0.32,3.15,1.68,6.11,1.04,11.51c-0.64,5.4-3.41,18.53-2.49,24.66
		c0.91,6.13,8.89,18.24,12,19.7c3.11,1.46,5.45,2.95,5.49,4.48s0.9,5.36-0.62,6.17c-1.52,0.8-3.04,1.61-4.56,2.41
		c-1.52,0.8-2.71,15.44-1.81,20.8s0.99,9.2,1.02,10.74s2.29-0.82,3.81-1.63c1.52-0.8,34.76-25.42,36.28-26.23
		c1.52-0.8-1.66-5.34-1.7-6.88s1.92-16.19,4.89-20.87c2.96-4.68,4.48-5.49,5.23-6.27s8.38-3.27,9.09-5.6
		c0.71-2.32,3.53-13.15-0.33-13.83c-2.39-0.42-9.95,1.77-11.42,4.88c-1.46,3.11,6.68-10.15,6.68-10.15l-15.91-22.69L426.97,54.27z"
		/>
</g>
<g id="ヒゲのコピー_12">
	<path class="st3" d="M489.68,72.77c0,0-16.19-1.92-16.96-1.9s-2.23,3.13-2.96,4.68c-0.73,1.55,0.82,2.29,1.61,3.04
		c0.79,0.75,0.04,1.54-0.71,2.32c-0.75,0.79,0.05,2.31,0.09,3.84s1.57,1.5,0.05,2.31c-1.52,0.8,0.84,3.06,0.09,3.84
		c-0.75,0.79,0.84,3.06,0.09,3.84c-0.75,0.79,0.09,3.84-1.45,3.88c-1.54,0.04,0.07,3.07-0.68,3.86c-0.75,0.79,0.05,2.31-1.45,3.88
		c-1.5,1.57-2.27,1.59-3.77,3.16s-2.25,2.36-3.02,2.38c-0.77,0.02-1.5,1.57-2.27,1.59s-1.52,0.8-2.29,0.82s-3.06,0.84-3.82,0.86
		c-0.77,0.02-2.34-1.48-1.59-2.27s-0.79-0.75-0.82-2.29c-0.04-1.54-0.05-2.31,0.68-3.86s-0.84-3.06-0.88-4.59
		c-0.04-1.54-1.59-2.27-3.93-3.75c-2.34-1.48-3.88-1.45-6.2-2.16c-2.32-0.71-4.63-0.66-6.17-0.62c-1.54,0.04-3.88-1.45-5.4-0.64
		s-3.07,0.07-3.84,0.09c-0.77,0.02-2.25,2.36-3,3.15c-0.75,0.79-0.7,3.09-2.21,3.9c-1.52,0.8,0.88,4.59,0.93,6.9
		c0.05,2.31,0.05,2.31,1.72,3.12c1.67,0.81,0.73,2.97,1.53,4.49c0.8,1.52,2.36,2.25,2.38,3.02s1.59,2.27,1.61,3.04
		s2.34,1.48,2.38,3.02s2.36,2.25,3.9,2.21c0,0,1.57,1.5,2.34,1.48c0.77-0.02,0.7-3.09,2.27-1.59c1.57,1.5,3.82-0.86,3.81-1.63
		s2.29-0.82,3.82-0.86c1.54-0.04,2.25-2.36,3-3.15c0.75-0.79,2.29-0.82,3.82-0.86c1.54-0.04,3.04-1.61,3.02-2.38
		c-0.02-0.77,3.06-0.84,3.82-0.86s3.04-1.61,3.02-2.38s3.04-1.61,3.82-0.86c0.79,0.75,1.5-1.57,2.25-2.36
		c0.75-0.79,1.5-1.57,3.04-1.61c1.54-0.04,1.48-2.34,2.21-3.9c0.73-1.55-0.05-2.31,0.71-2.32c0.77-0.02,1.48-2.34,1.46-3.11
		s0.7-3.09,2.21-3.9c1.52-0.8-0.05-2.31,0.62-6.17c0.68-3.86,2.96-4.68,7.57-4.79c4.61-0.11,2.98,9.48,2.98,9.48
		s0.99-4.19,1.76-4.21s2.95-5.45,3.66-7.77c0.71-2.32,0.7-3.09,1.43-4.65c0.73-1.55,1.5-1.57,1.46-3.11
		c-0.04-1.54,1.45-3.88,1.45-3.88L489.68,72.77z M445.89,106.86c-0.73,1.55-1.48,2.34-0.7,3.09s0.04,1.54-0.71,2.32
		c-0.75,0.79-0.73,1.55-0.71,2.32c0.02,0.77-1.48,2.34-2.25,2.36c-0.77,0.02,0.82,2.29-0.71,2.32s-3.04,1.61-3.81,1.63
		c-0.77,0.02-2.32-0.71-3.07,0.07c-0.75,0.79-3.84,0.09-3.88-1.45c-0.04-1.54-0.82-2.29-1.61-3.04c-0.79-0.75-0.8-1.52-1.61-3.04
		c-0.8-1.52,0.73-1.55-0.82-2.29c-1.55-0.73-2.34-1.48-1.59-2.27c0.75-0.79,0.71-2.32-0.07-3.07c-0.79-0.75-0.8-1.52-0.04-1.54
		c0.77-0.02,0.71-2.32,0.71-2.32c-0.04-1.54-0.05-2.31,0.71-2.32s1.54-0.04,2.29-0.82s2.27-1.59,3.06-0.84
		c0.79,0.75,1.55,0.73,2.32,0.71s2.29-0.82,3.07-0.07c0.79,0.75,2.32,0.71,3.09,0.7c0.77-0.02,3.07-0.07,3.09,0.7
		c0.02,0.77,1.61,3.04,2.38,3.02S446.63,105.31,445.89,106.86z"/>
</g>
<g id="帽子のコピー_12">
	<g id="レイヤー_47のコピー_12">
	</g>
	<g>
		<path class="st0" d="M500.75,69.82c0,0,1.37-6.95,2.11-8.51c0.73-1.55,5.98-7.06,5.93-9.37s1.39-6.18-0.18-7.68
			c-1.57-1.5-10.19-8.22-14.85-10.41c-4.66-2.2-27.92-10.1-35.64-11.46c-7.72-1.35-21.66-5.64-25.5-5.55s-5.38,0.13-5.32,2.43
			s-0.5,11.54-1.19,14.64c-0.7,3.09-2.91,6.99-2.86,9.29s57.46,24.01,57.46,24.01L500.75,69.82z"/>
		<path class="st0" d="M502.42,42.87c0,0-23.23-7.14-31.72-8.47c-8.49-1.34-36.4-11.44-36.44-12.98c-0.04-1.54,13.12,2,13.12,2"/>
		<path class="st0" d="M502.86,74.04c-5.24,2.36-14.57,1.84-23.17,0.55c-8.6-1.29-29.9-6.75-37.52-9.55
			c-7.63-2.8-19.07-7.01-20.61-8.46c-1.55-1.46-5.45-6.61-5.57-11.82c-0.12-5.22,0.26-5.22,3.65-4.56
			c3.03,0.59,21.45,10.7,29.06,12.76c7.61,2.06,23.62,7.65,29.72,9.74c6.1,2.09,24.3,4.65,26.57,4.59c2.27-0.05,3.08,2.16,2.36,3.67
			C506.6,72.46,502.86,74.04,502.86,74.04z"/>
	</g>
	<g id="レイヤー_48のコピー_12">
	</g>
</g>
<g id="生徒のコピー_12">
	<g id="服のコピー_13_2_">
		<g>
			<path class="st0" d="M114,136.92c-3.73-5.31-10.97-6.94-14.61-8.66c-3.64-1.71-14.63-9.56-18.23-9.47
				c-3.6,0.09-18.06-2.27-21.59,0.51c-3.54,2.78-6.13,7.35-8.78,9.21c-2.66,1.86-6.19,4.65-10.61,8.35s-14.29,4.84-18.49,17.54
				c-4.2,12.7-4.53,37.02-5.21,46.04c-0.69,9.02-4.84,23.52-4.65,31.62s-5.62,28.94-1.89,34.25s6.51,8.85,13.73,9.58
				s38.73,0.88,49.53,0.63c10.8-0.26,37.64,2.01,39.61-0.04c1.28-1.33,4.41-5.93,4.28-11.33c-0.13-5.4-4.77-11.3-3.98-13.88
				c0.84-2.72,34.62-20.63,34.62-20.63s12.36-4.47,11.94-10.19c-0.35-4.82-16.12-10.37-16.68-15.81
				c-0.47-4.52-2.19-21.28-2.76-24.24c-2.06-10.75-14.05-23.07-18.72-30.17C116.85,143.15,114,136.92,114,136.92z"/>
			<path class="st1" d="M53.53,206.77c0,0-0.43,19.82-2.12,24.36c-1.69,4.54,0.13,5.4-2.51,8.16c-2.64,2.76-6.13,7.35-6.13,7.35"/>
			<path class="st0" d="M50.52,235.79c0,0,1.92,0.72,1.11,4.34c-0.81,3.62-0.75,6.32-0.75,6.32"/>
			<path class="st1" d="M51.6,239.22c0,0,15.34,1.44,20.74,1.31c5.4-0.13,32.48,2.83,36.1,3.65c3.93,0.88,7.28,2.77,7.28,2.77"/>
		</g>
	</g>
	<g id="顔のコピー_13_2_">
		<path class="st0" d="M102.22,157.9c0,0-13.23-7.37-18.68-10.31c-5.45-2.94-10.21-9.74-13.36-12.74c-3.14-3-9.34-5.15-8.64-8.24
			c0.69-3.09,3.71-5.46,5.14-10.11c1.43-4.64,1.21-13.59,1.87-18.21c0.66-4.62,2.59-14.65,2.56-16.19
			c-0.04-1.54-1.75-9.17,2.07-10.03s7.08,1.37,7.08,1.37s19.63-14.29,24.14-18.23s10.6-6.39,10.6-6.39s4.7,3.73,5.59,9.08
			c0.89,5.35,1.08,13.03,0.38,16.12s3.2,5.3,4.77,6.8s-2.16,6.19-3.67,7c-1.52,0.8-1.87,2.39-2.21,3.89
			c-0.15,0.65,0.59,3.05,0.11,4.61c-0.45,1.45-3.59,4.36-4.27,6.15c-2.02,5.37-4.88,11.27-7.59,11.79
			c-6.79,1.3-13.27-8.9-13.76,2.63s-1.95,15.14,2.09,23.49C99.78,147.32,102.13,154.07,102.22,157.9z"/>
	</g>
	<g id="髪のコピー_13_2_">
		<path class="st0" d="M77.93,72.73c0,0-0.14-2.95-0.1-0.58c0.1,5.4-1.01,11.52,1.17,13.61c3.14,3,5.55,7.55,4.73,5.26
			c-0.82-2.28-2.5-8.39-1.79-10.71c0.71-2.32-0.79-7.37,0.28-7.54c1.07-0.17,4.18,1.29,7.16-2.62c2.98-3.91,9.08-5.59,10.58-7.16
			c1.5-1.57,12.81-10.29,15.02-14.18c2.36,2.25,5.71,9.6,6.14,13.55s2.53-4.54,2.42-9.15c-0.11-4.61-2.54-9.92-5.66-12.15
			c-3.12-2.23-7.11-8.28-14.84-10.4S76.8,25.14,67.74,31.5s-18.2,9.65-20.89,25.84c-2.69,16.19-2.54,22.33,0.64,26.86
			c3.18,4.53,7.16,10.58,10.25,11.28s10.82,4.66,10.5,6.43c-0.32,1.77-0.07-8.4,2.29-11.82c2.36-3.42,3.12-2.02,2.34-4.19
			c-0.82-2.28-2.94-5.17-2.11-10.63C71.58,69.81,77.93,72.73,77.93,72.73z"/>
		<path class="st0" d="M44.16,73.53c0,0-7.63-4.43-15.46-4.24c-7.68,0.18-14.46,5.72-17.33,14.23s-7.31,15.53-4.81,23.92
			s4.53,7.94,7.77,14.78c3.03,6.4,4.07,9.89,1.92,16.08c-2.16,6.19-5.25,5.5-2.18,5.43s9.12-4.06,11.31-8.72
			c2.19-4.66,7.46-9.39,4.99-16.25c-2.47-6.85-5.63-14.38-2.57-22.58C32.13,84.57,39,82.87,43.63,83.53
			C47.72,84.11,44.16,73.53,44.16,73.53z"/>
		<g id="レイヤー_60のコピー_12">
			<path class="st4" d="M44.88,71.61c0,0-1.54-0.36-2.29,0.42s-1.32,9.25,1.04,11.49c2.36,2.25,3.86,0.68,3.86,0.68
				s-2.3-4.12-2.44-7.46C44.94,74.28,44.88,71.61,44.88,71.61z"/>
		</g>
	</g>
</g>
<g id="ボードのコピー_12">
	<g>
		<path class="st0" d="M119.31,224.2c0.23,2.69,14.94,26.72,17.86,29.18c2.92,2.46,11.63,19.78,13.81,24.11
			c1.62,3.22,2.18,4.33,7.4,2.08c5.23-2.25,46.3-18.42,53.24-21.72c5.69-2.71,38.3-16.83,40.92-17.96c1.65-0.71,2.46-2.92-2.48-7.92
			c-1.79-1.81-30.28-37.15-33.28-40.51c-3-3.36-4.05-5.07-7.56-3.87s-66.46,25.57-71.69,27.82
			C132.7,217.49,119.08,221.51,119.31,224.2z"/>
		<path class="st5" d="M154.02,274.65c-9.96-19.81-13.14-24.02-14.93-25.53c-2.21-2.14-12.25-18.28-15.45-24.61
			c2.5-1.25,7-2.89,9.44-3.78c2.1-0.76,3.91-1.42,5.26-2c5.77-2.49,68.64-26.76,71.37-27.7c0.11-0.04,0.2-0.07,0.28-0.09
			c0.41,0.37,1.1,1.15,1.67,1.79c0.25,0.29,0.52,0.59,0.8,0.9c1.36,1.52,8.75,10.6,15.9,19.38c11.18,13.73,16.55,20.3,17.53,21.29
			c0.65,0.66,1.14,1.21,1.5,1.66c-8.01,3.47-33.55,14.55-38.66,16.99c-4.34,2.07-23.16,9.61-36.9,15.11
			c-7.97,3.19-14.27,5.72-16.19,6.54c-0.57,0.24-1.01,0.42-1.35,0.54C154.18,274.98,154.1,274.81,154.02,274.65z"/>
		<path class="st2" d="M231.86,204.17c0.17,2.01-5.99-6.71-5.99-6.71s-9.71,2.64-9.63,3.54c0.08,0.9,16.27,21.19,17.24,22.01
			c0.97,0.82,8.74-3.46,9.63-3.54c0.9-0.08-6.07-7.61-6.15-8.51c-0.08-0.9,3.51-1.2,3.36-3c-0.15-1.79-1.43-6.2-4.12-5.97
			C233.5,202.22,231.7,202.38,231.86,204.17z"/>
		<path class="st0" d="M208.46,201.31c0.7,0.88,3.47,3.51,4.45,7.09c0.72,2.6,4.67,7.09,7.43,9.73c2.76,2.64,4.65,6.19,6.51,8.85
			c1.86,2.66,5.57,7.07,5.57,7.07"/>
		<path class="st6" d="M138.77,229.86c0.61,0.94,3.09,3.85,3.71,7.51c0.45,2.66,3.93,7.53,6.41,10.43c2.48,2.9,3.1,6.56,4.68,9.39
			s4.07,5.73,4.07,5.73"/>
		<path class="st0" d="M220.56,233.83c-0.76-0.83-2.73-2.45-3.96-5.95c-0.9-2.55-1.23-3.44-4.17-5.87
			c-2.94-2.43-4.18-5.93-6.22-8.45"/>
		<path class="st0" d="M200.32,216.17c0.49,1.01,1.66,3.5,4.47,5.92c2.05,1.76,3.31,3.2,4.51,6.83c1.2,3.63,3.09,5.17,4.69,7.99"/>
		<path class="st0" d="M208.1,239.53c-0.76-0.83-3.12-3.24-3.98-6.85c-0.58-2.45-1.23-3.44-4.17-5.87
			c-2.94-2.43-4.18-5.93-6.22-8.45"/>
		<path class="st0" d="M202.88,241.96c-0.7-0.88-2.56-3.54-3.53-7.12c-0.71-2.61-1.87-3.56-4.63-6.21s-3.73-6.22-5.59-8.89"/>
		<path class="st5" d="M198.46,206.04c0,0,3.56-1.88,4.46-1.91s2.76,2.64,2.78,3.54s-2.28,1.85-3.56,1.88
			C200.34,209.6,198.46,206.04,198.46,206.04z"/>
		<path class="st5" d="M190.42,208.93c0,0,3.56-1.88,4.46-1.91s2.76,2.64,2.78,3.54c0.02,0.9-2.28,1.85-3.56,1.88
			C192.31,212.49,190.42,208.93,190.42,208.93z"/>
		<path class="st5" d="M182.39,211.82c0,0,3.56-1.88,4.46-1.91s2.76,2.64,2.78,3.54s-2.28,1.85-3.56,1.88
			C184.27,215.38,182.39,211.82,182.39,211.82z"/>
		<path class="st5" d="M174.33,213.81c-1.27,0.03-13.41,3.92-12.49,4.8c0.92,0.88,20.6,33.72,21.52,34.6s0.92,0.88,3.6-0.09
			c2.68-0.96,10.71-3.85,11.59-4.78c0.88-0.92-0.94-1.78-1.88-3.56C195.73,243.01,177.03,213.75,174.33,213.81z"/>
		<path class="st5" d="M156.47,219.64c-1.27,0.03-13.39,4.82-12.47,5.7s18.8,33.76,19.73,34.64s0.94,1.78,3.62,0.81
			c2.68-0.96,10.71-3.85,11.59-4.78c0.88-0.92-0.04-1.8-0.98-3.58C177.01,250.66,159.17,219.57,156.47,219.64z"/>
		<path class="st7" d="M200.54,204.19c0,0-1.41,1.32,0.02,1.99s2.85,0.64,2.85,0.64"/>
		<path class="st7" d="M192.51,207.08c0,0-1.41,1.32,0.02,1.99s2.85,0.64,2.85,0.64"/>
		<path class="st7" d="M184.48,209.97c0,0-1.41,1.32,0.02,1.99c1.43,0.67,2.85,0.64,2.85,0.64"/>
		<g>
			<path class="st0" d="M188.43,268.05c1.63,0.56,1.91,1.96-0.28,3.03c-2.2,1.07-6.87,1.81-5.64-0.69
				C183.18,269,186.79,267.49,188.43,268.05z"/>
			<path class="st0" d="M181.86,270.25c1.45,0.41,1.71,2.25-0.24,3.15s-6.11,0.89-5.02-1.14
				C177.21,271.13,180.42,269.84,181.86,270.25z"/>
			<path class="st0" d="M204.52,261.73c1.86,0.62,2.24,3.22-0.24,4.46c-2.47,1.24-7.8,1.13-6.44-1.72
				C198.59,262.88,202.66,261.11,204.52,261.73z"/>
			<path class="st0" d="M196.72,265.11c1.84,0.81,1.97,3.51-0.68,4.54s-8.09,0.39-6.42-2.39
				C190.54,265.71,194.87,264.3,196.72,265.11z"/>
		</g>
	</g>
</g>
<g>
	<polygon class="st8" points="161.51,251.48 92.79,232.44 92.48,230.33 93.11,228.04 94.58,225.96 163.31,245 161.52,247.35 	"/>
	<polygon class="st0" points="161.62,251.62 173.86,251.84 163.74,244.95 160.62,247.32 	"/>
	<path class="st9" d="M169.56,251.84c0,0-0.54-0.48-0.69-1.07c-0.15-0.59,1.3-0.97,1.3-0.97l3.91,2.2L169.56,251.84z"/>
</g>
<g id="手のコピー_13">
	<g>
		<path class="st10" d="M113.77,248.99c0,0,5.7-5.98,8.98-8.56c3.28-2.58,4.13-1.77,8.2-6.04s4.93-3.46,6.61-2.66
			c1.69,0.79,5.08,3.22,6.79,4.85c0.85,0.81-2.48,0.89-2.48,0.89s3.3-1.75,5.88,1.53c2.58,3.28,2.6,4.11,2.62,4.95
			c0.02,0.83,0.83-0.02,0.06,2.5c-0.77,2.52-4.05,5.1-4.05,5.1s2.52,0.77,0.08,3.34s-2.4,4.23-4.07,4.27
			c-1.67,0.04-4.19-0.74-3.38-1.59c0.81-0.85,0.06,2.5-2.42,3.4c-2.48,0.89-4.13,1.77-5.76,3.47c-1.63,1.71-5.68,6.81-14.04,6.17
			c-8.36-0.64-6.08-11.47-5.89-13.47C111.08,255.15,112.18,252.37,113.77,248.99z"/>
		<path class="st1" d="M133.57,239.34c0,0,3.3-1.75,4.13-1.77c0.83-0.02,5-0.12,5-0.12"/>
		<path class="st1" d="M136.21,245.12c0,0,4.09-3.44,5.78-2.64s5.02,0.72,5.02,0.72l2.43,5.16"/>
		<path class="st1" d="M138.85,250.9c0,0,2.44-2.56,4.13-1.77c1.69,0.79,3.4,2.42,3.4,2.42"/>
		<path class="st1" d="M139.01,257.57c0,0,0.77-2.52,1.61-2.54c0.83-0.02,1.69,0.79,1.69,0.79"/>
	</g>
</g>
<g id="カメラのコピー_12">
	<path class="st8" d="M94.26,124.67l-0.1,3.6l25.37,49.04c0,0,4.04,0.56,3.24-3.06c-0.8-3.62-4.23-10.02-8.5-18.24
		C109.98,147.78,94.26,124.67,94.26,124.67z"/>
	<polygon class="st0" points="76.41,190.07 115.56,174.35 127.24,175.26 126.26,177.94 89.95,195.43 	"/>
	<path class="st8" d="M73.98,180.1c0,0-11.13-21.01-13.65-27.38c-2.53-6.37-7.43-24.51-7.36-27.21c0.07-2.7,1.41-2.21,2.8-3.52
		c1.31-1.24,3.67-2.6,3.67-2.6s-1.8,1.75-1.92,4.45c-0.16,3.6,6.97,24.95,11.63,35.43c4.91,11.03,9.04,19.03,10.29,21.31
		c2.08,3.79,5.84,14.25,5.84,14.25s-2.8,3.52-5.35-1.95C77.39,187.4,73.98,180.1,73.98,180.1z"/>
	<path class="st5" d="M78.58,176.63c0,0-6.3-0.17-7.2-0.2s1.6,7.25,3.4,7.3s8.07,1.12,7.22-0.7
		C81.16,181.2,80.38,176.68,78.58,176.63z"/>
	<path class="st5" d="M117.52,162.5c0,0-4.23,1.02-4.96,1.16s1.7,5.56,3.16,5.27c1.47-0.28,4.95-0.6,4.82-1.89
		C120.38,165.38,118.99,162.22,117.52,162.5z"/>
	<path class="st8" d="M75.95,190.51c0,0,9.25,23.66,11.03,24.61c1.77,0.95,8.85,5.64,10.67,4.79s-0.14-3.69-0.73-6.32
		c-0.8-3.62-7.55-20.01-8.45-20.04C87.57,193.53,75.95,190.51,75.95,190.51z"/>
	<path class="st8" d="M97.65,219.92c0,0,34.71-17.95,35.63-18.83s-5.61-25.36-5.61-25.36l-38.3,17.86L97.65,219.92z"/>
	<line class="st11" x1="88.52" y1="191.76" x2="97.65" y2="219.92"/>
	<path class="st8" d="M93.92,175.25l-0.22,8.1c0,0,5.37,1.05,7.17,1.1s12.74-5.05,12.74-5.05l2.51-9.38l-11.28,1.04L93.92,175.25z"
		/>
	<polygon class="st12" points="102.05,174.57 100.88,184.44 112.72,179.37 114.76,170.42 	"/>
	<line class="st13" x1="101.1" y1="176.35" x2="100.88" y2="184.44"/>
	<polyline class="st1" points="115.66,170.44 101.12,175.45 93.92,175.25 	"/>
	<line class="st1" x1="104.67" y1="177.34" x2="111.04" y2="174.82"/>
	<line class="st1" x1="103.7" y1="180.02" x2="110.07" y2="177.49"/>
	<path class="st14" d="M84.57,186.94l1.09,2.19c0,0,2.26,1.23,3.85,0.76s4.22-1.46,4.09-2.97c-0.2-2.27-0.13-1.51-0.13-1.51
		s-1.99-2.11-5.51-1.05C84.44,185.43,84.57,186.94,84.57,186.94z"/>
	
		<ellipse transform="matrix(0.9322 -0.3619 0.3619 0.9322 -63.6479 55.3555)" class="st15" cx="115.94" cy="197.58" rx="12.6" ry="12.1"/>
	
		<ellipse transform="matrix(0.9322 -0.3619 0.3619 0.9322 -63.9595 56.1752)" class="st14" cx="117.97" cy="198.82" rx="13.08" ry="12.56"/>
	<g>
		
			<ellipse transform="matrix(0.2412 -0.9705 0.9705 0.2412 -103.1309 268.1047)" class="st5" cx="119.88" cy="200" rx="12.58" ry="12.2"/>
		<path class="st1" d="M117.53,190.3c0,0-0.44,0.1-1.09,0.38c-1.97,0.83-5.93,3.26-6.09,9.33c-0.22,8.1,8.21,9.74,9.59,9.78"/>
		<line class="st1" x1="122.67" y1="192.24" x2="117.11" y2="205.6"/>
		<line class="st1" x1="125.26" y1="192.31" x2="119.7" y2="205.67"/>
	</g>
</g>
<g id="道路のコピー_13">
</g>
<g id="海のコピー_13">
</g>
<g id="木のコピー_12">
</g>
<g id="ビルのコピー_13">
</g>
<g id="右生徒のコピー_13">
	<g id="服のコピー_13_1_">
	</g>
	<g id="顔のコピー_13_1_">
	</g>
	<g id="髪のコピー_13_1_">
	</g>
	<g id="右手のコピー_13_1_">
	</g>
	<g id="左手のコピー_13_1_">
	</g>
</g>
<g id="左生徒のコピー_13">
	<g id="服のコピー_13">
	</g>
	<g id="右手のコピー_13">
	</g>
	<g id="左腕のコピー_12">
	</g>
	<g id="奥の髪のコピー_12">
	</g>
	<g id="顔のコピー_13">
	</g>
	<g id="左手のコピー_13">
	</g>
	<g id="髪のコピー_13">
	</g>
</g>
</svg>
